<svg width="114" height="103" viewBox="0 0 114 103" fill="none" xmlns="http://www.w3.org/2000/svg">
<mask id="mask0_379_115" style="mask-type:alpha" maskUnits="userSpaceOnUse" x="0" y="0" width="104" height="103">
<rect y="0.168945" width="103.122" height="102.4" fill="#D9D9D9"/>
</mask>
<g mask="url(#mask0_379_115)">
<path d="M24.1284 85.5021C22.1508 85.5021 20.4996 84.8443 19.1748 83.5287C17.8499 82.2132 17.1875 80.5735 17.1875 78.6098V24.1277C17.1875 22.164 17.8499 20.5244 19.1748 19.2088C20.4996 17.8933 22.1508 17.2355 24.1284 17.2355H44.3232C44.0037 15.0037 44.5601 13.0235 45.9924 11.2949C47.4246 9.5664 49.281 8.70215 51.5616 8.70215C53.8422 8.70215 55.6986 9.5664 57.1309 11.2949C58.5631 13.0235 59.1195 15.0037 58.8001 17.2355H78.9949C80.9725 17.2355 82.6237 17.8933 83.9485 19.2088C85.2733 20.5244 85.9358 22.164 85.9358 24.1277V78.6098C85.9358 80.5735 85.2733 82.2132 83.9485 83.5287C82.6237 84.8443 80.9725 85.5021 78.9949 85.5021H24.1284ZM51.5616 19.1226C52.4926 19.1226 53.2624 18.8204 53.8711 18.216C54.4798 17.6115 54.7842 16.8471 54.7842 15.9226C54.7842 14.9982 54.4798 14.2337 53.8711 13.6293C53.2624 13.0248 52.4926 12.7226 51.5616 12.7226C50.6307 12.7226 49.8608 13.0248 49.2521 13.6293C48.6434 14.2337 48.3391 14.9982 48.3391 15.9226C48.3391 16.8471 48.6434 17.6115 49.2521 18.216C49.8608 18.8204 50.6307 19.1226 51.5616 19.1226ZM21.4843 77.9698C25.3514 74.2009 29.8451 71.232 34.9654 69.0632C40.0857 66.8943 45.6178 65.8098 51.5616 65.8098C57.5055 65.8098 63.0376 66.8943 68.1579 69.0632C73.2782 71.232 77.7719 74.2009 81.639 77.9698V24.1277C81.639 23.4714 81.3636 22.8697 80.8127 22.3226C80.2618 21.7756 79.6559 21.5021 78.9949 21.5021H24.1284C23.4674 21.5021 22.8615 21.7756 22.3105 22.3226C21.7597 22.8697 21.4843 23.4714 21.4843 24.1277V77.9698ZM51.5616 55.9636C55.1643 55.9636 58.2134 54.7247 60.7088 52.2467C63.2042 49.7688 64.4519 46.7411 64.4519 43.1637C64.4519 39.5862 63.2042 36.5585 60.7088 34.0806C58.2134 31.6026 55.1643 30.3637 51.5616 30.3637C47.9589 30.3637 44.9099 31.6026 42.4145 34.0806C39.919 36.5585 38.6713 39.5862 38.6713 43.1637C38.6713 46.7411 39.919 49.7688 42.4145 52.2467C44.9099 54.7247 47.9589 55.9636 51.5616 55.9636ZM25.2853 81.2354H77.838V80.497C74.059 76.9688 69.9441 74.35 65.493 72.6405C61.042 70.9312 56.3982 70.0765 51.5616 70.0765C46.8352 70.0765 42.2327 70.9175 37.7542 72.5996C33.2756 74.2816 29.1193 76.8593 25.2853 80.3328V81.2354ZM51.5616 51.697C49.2205 51.697 47.2029 50.856 45.509 49.1739C43.8151 47.4918 42.9681 45.4884 42.9681 43.1637C42.9681 40.8389 43.8151 38.8355 45.509 37.1534C47.2029 35.4714 49.2205 34.6303 51.5616 34.6303C53.9028 34.6303 55.9203 35.4714 57.6143 37.1534C59.3082 38.8355 60.1552 40.8389 60.1552 43.1637C60.1552 45.4884 59.3082 47.4918 57.6143 49.1739C55.9203 50.856 53.9028 51.697 51.5616 51.697Z" fill="#1C1B1F"/>
</g>
<rect width="68.9875" height="90.6399" rx="34.4938" transform="matrix(0.927881 0.372876 0.377409 -0.926047 25.7793 84.1064)" fill="#E68832" fill-opacity="0.3"/>
</svg>
