<svg width="113" height="103" viewBox="0 0 113 103" fill="none" xmlns="http://www.w3.org/2000/svg">
<mask id="mask0_379_115" style="mask-type:alpha" maskUnits="userSpaceOnUse" x="0" y="0" width="103" height="103">
<rect y="0.169922" width="102.399" height="102.4" fill="#D9D9D9"/>
</mask>
<g mask="url(#mask0_379_115)">
<path d="M76.7991 77.4619C78.5769 77.4619 80.088 76.8397 81.3324 75.5952C82.5769 74.3508 83.1991 72.8397 83.1991 71.0619C83.1991 69.2841 82.5769 67.773 81.3324 66.5285C80.088 65.2841 78.5769 64.6619 76.7991 64.6619C75.0214 64.6619 73.5103 65.2841 72.2658 66.5285C71.0214 67.773 70.3992 69.2841 70.3992 71.0619C70.3992 72.8397 71.0214 74.3508 72.2658 75.5952C73.5103 76.8397 75.0214 77.4619 76.7991 77.4619ZM76.7991 90.2619C78.9324 90.2619 80.9235 89.7641 82.7724 88.7685C84.6213 87.773 86.1502 86.3863 87.359 84.6085C85.7235 83.613 84.0168 82.8841 82.2391 82.4219C80.4613 81.9596 78.648 81.7285 76.7991 81.7285C74.9503 81.7285 73.137 81.9596 71.3592 82.4219C69.5814 82.8841 67.8748 83.613 66.2392 84.6085C67.4481 86.3863 68.977 87.773 70.8259 88.7685C72.6747 89.7641 74.6658 90.2619 76.7991 90.2619ZM23.9586 85.5029C22.0496 85.5029 20.4236 84.8315 19.0807 83.4886C17.7378 82.1457 17.0664 80.5197 17.0664 78.6107V24.1286C17.0664 22.2195 17.7378 20.5935 19.0807 19.2506C20.4236 17.9078 22.0496 17.2363 23.9586 17.2363H78.4402C80.3492 17.2363 81.9752 17.9078 83.3181 19.2506C84.661 20.5935 85.3324 22.2195 85.3324 24.1286V49.5152C84.583 49.2582 83.8664 49.049 83.1826 48.8876C82.4989 48.7262 81.7933 48.5662 81.0658 48.4076V24.1286C81.0658 23.4722 80.7923 22.8705 80.2453 22.3235C79.6982 21.7765 79.0965 21.503 78.4402 21.503H23.9586C23.3023 21.503 22.7006 21.7765 22.1535 22.3235C21.6065 22.8705 21.333 23.4722 21.333 24.1286V78.6107C21.333 79.267 21.6065 79.8687 22.1535 80.4158C22.7006 80.9628 23.3023 81.2363 23.9586 81.2363H48.1307C48.2346 82.0349 48.3673 82.7761 48.5287 83.4598C48.6901 84.1436 48.8993 84.8247 49.1563 85.5029H23.9586ZM21.333 81.2363V21.503V48.4076V48.0876V81.2363ZM31.9996 69.585H48.8938C49.0524 68.8575 49.2671 68.1519 49.5379 67.4681C49.8087 66.7843 50.0917 66.0678 50.3871 65.3183H31.9996V69.585ZM31.9996 53.503H60.0773C61.4776 52.5184 62.8574 51.6842 64.2167 51.0004C65.576 50.3166 67.0351 49.7805 68.5941 49.3921V49.2363H31.9996V53.503ZM31.9996 37.421H70.3992V33.1543H31.9996V37.421ZM76.7991 94.5286C72.0457 94.5286 68.0129 92.8726 64.7008 89.5604C61.3887 86.2483 59.7326 82.2154 59.7326 77.4619C59.7326 72.7084 61.3887 68.6756 64.7008 65.3634C68.0129 62.0513 72.0457 60.3952 76.7991 60.3952C81.5526 60.3952 85.5854 62.0513 88.8975 65.3634C92.2096 68.6756 93.8656 72.7084 93.8656 77.4619C93.8656 82.2154 92.2096 86.2483 88.8975 89.5604C85.5854 92.8726 81.5526 94.5286 76.7991 94.5286Z" fill="#1C1B1F"/>
</g>
<rect width="68.5711" height="90.5496" rx="34.2855" transform="matrix(0.926968 0.375141 0.375135 -0.92697 25.5977 84.1074)" fill="#E68832" fill-opacity="0.3"/>
</svg>
