<svg width="112" height="104" viewBox="0 0 112 104" fill="none" xmlns="http://www.w3.org/2000/svg">
<mask id="mask0_379_115" style="mask-type:alpha" maskUnits="userSpaceOnUse" x="0" y="0" width="103" height="104">
<rect y="0.939453" width="102.399" height="102.4" fill="#D9D9D9"/>
</mask>
<g mask="url(#mask0_379_115)">
<path d="M46.8517 62.8058H55.549L53.1778 49.6202C54.4359 49.1826 55.4738 48.4113 56.2916 47.3063C57.1094 46.2014 57.5183 44.9679 57.5183 43.6058C57.5183 41.8608 56.9015 40.3716 55.668 39.1381C54.4346 37.9046 52.9453 37.2878 51.2004 37.2878C49.4554 37.2878 47.9661 37.9046 46.7327 39.1381C45.4992 40.3716 44.8824 41.8608 44.8824 43.6058C44.8824 44.9679 45.2913 46.2014 46.1091 47.3063C46.9269 48.4113 47.9648 49.1826 49.2229 49.6202L46.8517 62.8058ZM51.2004 90.375C42.6288 87.8315 35.5082 82.639 29.8385 74.7976C24.1688 66.9562 21.334 58.1234 21.334 48.2991V25.2263L51.2004 14.0674L81.0667 25.2263V48.2991C81.0667 58.1234 78.2319 66.9562 72.5622 74.7976C66.8925 82.639 59.7719 87.8315 51.2004 90.375ZM51.2004 85.8458C58.5958 83.4991 64.7113 78.8058 69.5468 71.7658C74.3823 64.7258 76.8001 56.9036 76.8001 48.2991V28.1392L51.2004 18.6212L25.6006 28.1392V48.2991C25.6006 56.9036 28.0184 64.7258 32.8539 71.7658C37.6894 78.8058 43.8049 83.4991 51.2004 85.8458Z" fill="#1C1B1F"/>
</g>
<rect width="73.4976" height="90.9908" rx="36.7488" transform="matrix(0.9728 0.231648 0.265962 -0.963983 24.7324 88.3438)" fill="#8ADD8F" fill-opacity="0.3"/>
</svg>
