<svg width="103" height="103" viewBox="0 0 103 103" fill="none" xmlns="http://www.w3.org/2000/svg">
<mask id="mask0_379_115" style="mask-type:alpha" maskUnits="userSpaceOnUse" x="0" y="0" width="103" height="104">
<rect y="0.606445" width="102.399" height="102.4" fill="#D9D9D9"/>
</mask>
<g mask="url(#mask0_379_115)">
<path d="M52.2087 63.1539C56.147 63.1539 59.5439 61.8821 62.3993 59.3386C65.2547 56.7949 66.6823 53.6852 66.6823 50.0093C66.6823 46.8859 65.6991 44.2206 63.7326 42.0134C61.7661 39.8062 59.3169 38.7026 56.3849 38.7026C53.918 38.7026 51.7888 39.5095 49.9974 41.1231C48.2059 42.7368 47.3102 44.6978 47.3102 47.0062C47.3102 48.0291 47.5221 49.0165 47.9461 49.9682C48.37 50.9201 48.9703 51.8199 49.7471 52.6678L53.0373 49.7057C52.5505 49.3447 52.1854 48.9481 51.942 48.516C51.6986 48.0838 51.5769 47.6161 51.5769 47.1129C51.5769 46.1119 51.9926 45.1888 52.824 44.3437C53.6554 43.4986 54.8424 43.076 56.3849 43.076C58.026 43.076 59.4454 43.7173 60.6434 45C61.8414 46.2828 62.4403 47.9881 62.4403 50.116C62.4403 52.4845 61.4927 54.5426 59.5973 56.2903C57.7019 58.038 55.2746 58.9118 52.3153 58.9118C48.9184 58.9118 45.996 57.5607 43.5482 54.8585C41.1003 52.1563 39.8764 48.7676 39.8764 44.6924C39.8764 42.6302 40.2812 40.6432 41.0908 38.7313C41.9003 36.8195 43.0709 35.0978 44.6026 33.5662L41.4764 30.5221C39.5838 32.3983 38.1151 34.5481 37.0703 36.9713C36.0255 39.3946 35.5031 41.9327 35.5031 44.5857C35.5031 49.6948 37.1113 54.0667 40.3277 57.7016C43.5441 61.3365 47.5044 63.1539 52.2087 63.1539ZM29.8663 90.2062V74.157C25.813 70.4592 22.6663 66.3033 20.4264 61.6893C18.1864 57.0753 17.0664 52.3313 17.0664 47.4575C17.0664 37.9943 20.3894 29.9533 27.0355 23.3345C33.6816 16.7157 41.7362 13.4062 51.1994 13.4062C58.8848 13.4062 65.8304 15.7461 72.0361 20.4257C78.2419 25.1053 82.2665 31.1484 84.1099 38.5549L88.5078 56.0729C88.8086 57.1505 88.6144 58.131 87.9252 59.0144C87.236 59.8978 86.317 60.3395 85.1683 60.3395H76.7991V74.7806C76.7991 76.6896 76.1277 78.3156 74.7849 79.6586C73.4419 81.0014 71.816 81.6728 69.9069 81.6728H59.7326V90.2062H55.466V77.4062H69.9069C70.6727 77.4062 71.3018 77.16 71.7941 76.6677C72.2864 76.1754 72.5325 75.5464 72.5325 74.7806V56.0729H84.0524L79.9991 39.5396C78.3636 33.0138 74.8518 27.7379 69.4639 23.7118C64.0759 19.6859 57.9877 17.6729 51.1994 17.6729C42.9506 17.6729 35.9107 20.5666 30.0796 26.354C24.2486 32.1413 21.333 39.1594 21.333 47.4082C21.333 51.6749 22.2041 55.7146 23.9463 59.5273C25.6885 63.3399 28.1596 66.7395 31.3596 69.7262L34.1329 72.2862V90.2062H29.8663Z" fill="#1C1B1F"/>
</g>
<rect width="68.5718" height="90.5498" rx="34.2859" transform="matrix(0.190767 0.981635 0.981635 -0.190767 0 36.0811)" fill="#4130BA" fill-opacity="0.3"/>
</svg>
