<svg width="64" height="64" viewBox="0 0 64 64" fill="none" xmlns="http://www.w3.org/2000/svg">
<mask id="mask0_379_115" style="mask-type:alpha" maskUnits="userSpaceOnUse" x="0" y="0" width="64" height="64">
<rect width="64" height="64" fill="#D9D9D9"/>
</mask>
<g mask="url(#mask0_379_115)">
<path d="M30.6662 54.6666V33.6051C28.1636 33.6051 25.7721 33.1376 23.4918 32.2025C21.2115 31.2675 19.191 29.9196 17.4302 28.1589C15.6696 26.3982 14.3328 24.3675 13.42 22.0667C12.5072 19.7658 12.0508 17.3675 12.0508 14.8717V12.2051H14.7174C17.1648 12.2051 19.5345 12.6827 21.8265 13.6379C24.1185 14.5931 26.1386 15.948 27.8867 17.7025C29.2987 19.1144 30.4431 20.7196 31.32 22.5179C32.197 24.3161 32.7773 26.217 33.061 28.2204C33.4542 27.4649 33.8952 26.7546 34.3841 26.0897C34.873 25.4247 35.4269 24.7828 36.0457 24.164C37.8017 22.4095 39.8309 21.0547 42.1332 20.0994C44.4355 19.1442 46.8354 18.6666 49.3328 18.6666H51.9995V21.3333C51.9995 23.8318 51.5214 26.2327 50.565 28.5361C49.6087 30.8395 48.2523 32.8695 46.4958 34.6263C44.7393 36.3831 42.732 37.7179 40.4739 38.6307C38.2158 39.5435 35.8354 39.9999 33.3328 39.9999V54.6666H30.6662ZM30.7174 30.8717C30.7174 28.7384 30.3063 26.7051 29.4841 24.7717C28.6619 22.8384 27.4952 21.1162 25.9841 19.6051C24.473 18.094 22.7508 16.9273 20.8174 16.1051C18.8841 15.2829 16.8508 14.8717 14.7174 14.8717C14.7174 17.0051 15.1174 19.0495 15.9174 21.0051C16.7174 22.9606 17.873 24.694 19.3841 26.2051C20.8952 27.7162 22.6286 28.8717 24.5841 29.6717C26.5397 30.4717 28.5841 30.8717 30.7174 30.8717ZM33.3328 37.3333C35.4662 37.3333 37.4995 36.9333 39.4328 36.1333C41.3662 35.3333 43.0884 34.1777 44.5995 32.6666C46.1106 31.1555 47.2773 29.4222 48.0995 27.4666C48.9217 25.5111 49.3328 23.4666 49.3328 21.3333C47.1995 21.3333 45.1551 21.7444 43.1995 22.5666C41.244 23.3888 39.5106 24.5555 37.9995 26.0666C36.4884 27.5777 35.3328 29.2999 34.5328 31.2333C33.7328 33.1666 33.3328 35.1999 33.3328 37.3333Z" fill="#1C1B1F"/>
</g>
<rect width="42.8573" height="56.5936" rx="21.4286" transform="matrix(0.968685 0.248291 0.248291 -0.968685 8 54.8213)" fill="#8ADD8F" fill-opacity="0.3"/>
</svg>
