<svg width="71" height="64" viewBox="0 0 71 64" fill="none" xmlns="http://www.w3.org/2000/svg">
<mask id="mask0_379_115" style="mask-type:alpha" maskUnits="userSpaceOnUse" x="0" y="0" width="64" height="64">
<rect width="64" height="64" fill="#D9D9D9"/>
</mask>
<g mask="url(#mask0_379_115)">
<path d="M14.9737 53.333C13.7463 53.333 12.7216 52.9219 11.8993 52.0997C11.0771 51.2775 10.666 50.2527 10.666 49.0253V14.974C10.666 13.7467 11.0771 12.7219 11.8993 11.8997C12.7216 11.0775 13.7463 10.6663 14.9737 10.6663H27.507C27.3087 9.27145 27.6541 8.03383 28.5429 6.95347C29.4318 5.87316 30.584 5.33301 31.9993 5.33301C33.4147 5.33301 34.5669 5.87316 35.4557 6.95347C36.3446 8.03383 36.69 9.27145 36.4917 10.6663H49.025C50.2523 10.6663 51.2771 11.0775 52.0993 11.8997C52.9216 12.7219 53.3327 13.7467 53.3327 14.974V49.0253C53.3327 50.2527 52.9216 51.2775 52.0993 52.0997C51.2771 52.9219 50.2523 53.333 49.025 53.333H14.9737ZM31.9993 11.8458C32.5771 11.8458 33.0549 11.6569 33.4327 11.2791C33.8105 10.9014 33.9993 10.4236 33.9993 9.84581C33.9993 9.26803 33.8105 8.79025 33.4327 8.41248C33.0549 8.0347 32.5771 7.84581 31.9993 7.84581C31.4216 7.84581 30.9438 8.0347 30.566 8.41248C30.1882 8.79025 29.9993 9.26803 29.9993 9.84581C29.9993 10.4236 30.1882 10.9014 30.566 11.2791C30.9438 11.6569 31.4216 11.8458 31.9993 11.8458ZM13.3327 48.6253C15.7327 46.2698 18.5216 44.4142 21.6994 43.0587C24.8771 41.7031 28.3105 41.0253 31.9993 41.0253C35.6882 41.0253 39.1216 41.7031 42.2994 43.0587C45.4771 44.4142 48.266 46.2698 50.666 48.6253V14.974C50.666 14.5638 50.4951 14.1877 50.1532 13.8458C49.8113 13.5039 49.4352 13.333 49.025 13.333H14.9737C14.5635 13.333 14.1874 13.5039 13.8455 13.8458C13.5036 14.1877 13.3327 14.5638 13.3327 14.974V48.6253ZM31.9993 34.8715C34.2353 34.8715 36.1276 34.0971 37.6763 32.5484C39.225 30.9997 39.9993 29.1074 39.9993 26.8715C39.9993 24.6356 39.225 22.7433 37.6763 21.1945C36.1276 19.6458 34.2353 18.8715 31.9993 18.8715C29.7634 18.8715 27.8711 19.6458 26.3224 21.1945C24.7737 22.7433 23.9993 24.6356 23.9993 26.8715C23.9993 29.1074 24.7737 30.9997 26.3224 32.5484C27.8711 34.0971 29.7634 34.8715 31.9993 34.8715ZM15.6917 50.6663H48.307V50.2048C45.9617 47.9997 43.4079 46.3629 40.6455 45.2945C37.8831 44.2262 35.001 43.692 31.9993 43.692C29.066 43.692 26.2096 44.2177 23.4301 45.2689C20.6506 46.3202 18.0711 47.9313 15.6917 50.1022V50.6663ZM31.9993 32.2048C30.5464 32.2048 29.2942 31.6792 28.243 30.6279C27.1917 29.5766 26.666 28.3245 26.666 26.8715C26.666 25.4185 27.1917 24.1664 28.243 23.1151C29.2942 22.0638 30.5464 21.5381 31.9993 21.5381C33.4523 21.5381 34.7045 22.0638 35.7558 23.1151C36.807 24.1664 37.3327 25.4185 37.3327 26.8715C37.3327 28.3245 36.807 29.5766 35.7558 30.6279C34.7045 31.6792 33.4523 32.2048 31.9993 32.2048Z" fill="#1C1B1F"/>
</g>
<rect width="42.8573" height="56.5936" rx="21.4286" transform="matrix(0.926969 0.375138 0.375138 -0.926969 16 52.4609)" fill="#E68832" fill-opacity="0.3"/>
</svg>
