<svg width="271" height="271" viewBox="0 0 271 271" fill="none" xmlns="http://www.w3.org/2000/svg">
<path d="M39.508 90.0327C39.508 90.0327 57.6433 74.1644 79.9343 81.7206C102.225 89.2768 119.605 123.658 141.141 124.792C162.676 125.925 182.7 114.213 199.702 124.414C216.704 134.615 219.726 178.819 187.234 183.353C154.742 187.886 136.607 171.641 122.628 172.396C108.648 173.152 74.6451 190.153 47.8201 182.597C20.995 175.041 -3.18502 122.902 39.508 90.0327Z" fill="#E8F4FF"/>
<g opacity="0.46">
<path d="M160.679 92.6246H83.1576C82.3428 92.6246 81.7477 91.8546 81.9529 91.0662L89.1897 63.2616C89.3324 62.7131 89.8278 62.3301 90.3944 62.3301H167.916C168.73 62.3301 169.325 63.1001 169.12 63.8885L161.883 91.6931C161.741 92.2416 161.246 92.6246 160.679 92.6246Z" fill="#BFD9FF"/>
<path d="M93.7891 68.2783H120.763" stroke="#A9C2FF" stroke-width="4.66865" stroke-miterlimit="10" stroke-linecap="round" stroke-linejoin="round"/>
<path d="M91.7148 80.7295H118.689" stroke="#A9C2FF" stroke-width="4.66865" stroke-miterlimit="10" stroke-linecap="round" stroke-linejoin="round"/>
<path d="M103.059 76.0244H130.034" stroke="#A9C2FF" stroke-width="4.66865" stroke-miterlimit="10" stroke-linecap="round" stroke-linejoin="round"/>
<path d="M93.0996 72.4277H101.192" stroke="#A9C2FF" stroke-width="4.66865" stroke-miterlimit="10" stroke-linecap="round" stroke-linejoin="round"/>
<path d="M91.9922 76.0244H100.085" stroke="#A9C2FF" stroke-width="4.66865" stroke-miterlimit="10" stroke-linecap="round" stroke-linejoin="round"/>
<path d="M125.051 68.2783H134.665" stroke="#A9C2FF" stroke-width="4.66865" stroke-miterlimit="10" stroke-linecap="round" stroke-linejoin="round"/>
<path d="M129.766 86.5687H115.409C115.337 86.5687 115.284 86.5004 115.302 86.4303L115.945 83.9617C115.958 83.9129 116.002 83.8789 116.052 83.8789H130.408C130.481 83.8789 130.533 83.9472 130.515 84.0173L129.873 86.4859C129.86 86.5347 129.816 86.5687 129.766 86.5687Z" stroke="#84AEE5" stroke-width="1.55622" stroke-miterlimit="10"/>
<path d="M111.92 86.5687H97.5636C97.4914 86.5687 97.4386 86.5004 97.4567 86.4303L98.0991 83.9617C98.1118 83.9129 98.1559 83.8789 98.2061 83.8789H112.563C112.635 83.8789 112.688 83.9472 112.67 84.0173L112.027 86.4859C112.014 86.5347 111.971 86.5687 111.92 86.5687Z" stroke="#84AEE5" stroke-width="1.55622" stroke-miterlimit="10"/>
<path d="M154.997 82.9895C154.261 82.0092 151.275 81.2962 150.45 80.3163C150.029 79.8155 150.029 78.8851 150.129 78.0941C150.423 77.9069 150.667 77.719 150.812 77.5445C151.06 77.1825 151.34 76.6762 151.62 76.1209C151.704 76.2036 151.817 76.2683 151.963 76.264C152.355 76.2524 153.847 74.2213 153.462 73.7505C153.242 73.4813 152.887 73.7148 152.623 73.9641C153.018 73.0597 153.296 72.3663 153.296 72.3663H153.281C153.318 72.2521 153.353 72.1375 153.382 72.0212C153.974 69.6465 152.529 67.7217 150.154 67.7217C147.78 67.7217 145.375 69.6465 144.783 72.0212C144.754 72.1375 144.731 72.2524 144.712 72.3663H144.697C144.697 72.3663 144.629 73.0597 144.573 73.9641C144.433 73.7148 144.194 73.4813 143.84 73.7505C143.22 74.2213 143.7 76.2524 144.086 76.264C144.23 76.2683 144.375 76.2036 144.501 76.1209C144.504 76.6762 144.531 77.1825 144.598 77.5445C144.67 77.7577 144.878 77.9911 145.148 78.2191C144.853 78.9812 144.403 79.8419 143.767 80.3163C142.454 81.2966 139.112 82.0092 137.888 82.9895C136.786 83.8711 135.804 86.446 135.617 86.9547H155.29C155.357 86.446 155.659 83.8711 154.997 82.9895Z" fill="#8DBCF8"/>
</g>
<path d="M147.191 114.757H69.6695C68.8547 114.757 68.2596 113.987 68.4645 113.199L75.7013 85.3944C75.844 84.8459 76.3394 84.4629 76.906 84.4629H154.427C155.242 84.4629 155.837 85.2329 155.632 86.0213L148.395 113.826C148.253 114.374 147.757 114.757 147.191 114.757Z" stroke="#7094D8" stroke-width="1.55622" stroke-miterlimit="10"/>
<path d="M145.737 112.682H68.2162C67.4014 112.682 66.8063 111.912 67.0115 111.124L74.2483 83.3192C74.391 82.7707 74.8864 82.3877 75.453 82.3877H152.974C153.789 82.3877 154.384 83.1577 154.179 83.9461L146.942 111.751C146.799 112.3 146.304 112.682 145.737 112.682Z" fill="#A5C5FF"/>
<path d="M92.5449 112.682H131.347" stroke="#7094D8" stroke-width="1.55622" stroke-miterlimit="10"/>
<path d="M81.7539 82.3877H114.538" stroke="#7094D8" stroke-width="1.55622" stroke-miterlimit="10"/>
<path d="M139.479 108.533H122.049C121.247 108.533 120.759 107.882 120.959 107.08L125.356 89.4428C125.556 88.6406 126.369 87.9902 127.171 87.9902H144.601C145.403 87.9902 145.891 88.6406 145.691 89.4428L141.293 107.08C141.094 107.882 140.281 108.533 139.479 108.533Z" fill="#B7DEFF"/>
<path d="M130.925 108.603L132.45 102.485L129.949 101.427C129.949 101.427 125.289 103.133 124.892 103.545C124.559 103.89 122.886 107.458 122.354 108.603H130.925Z" fill="#023F61"/>
<path d="M139.554 108.603C139.592 107.458 139.698 103.89 139.538 103.545C139.346 103.133 135.536 101.427 135.536 101.427L132.508 102.485L130.982 108.603H139.554Z" fill="#023F61"/>
<path d="M132.505 108.602L134.894 103.308L129.762 103.602L129.26 108.602H132.505Z" fill="#BEBECF"/>
<path d="M130.875 100.308L129.758 101.015L129.024 102.779L128.834 105.191L130.407 104.544L131.629 106.014L133.26 104.661L134.261 105.603L135.773 102.367L135.507 100.367L134.875 100.073L130.875 100.308Z" fill="#DEE0E8"/>
<path d="M131.22 95.6776C131.22 95.6776 130.845 94.8245 130.075 95.3921C129.306 95.9594 130.206 98.1509 130.764 97.4915C131.321 96.8321 131.22 95.6776 131.22 95.6776Z" fill="#FB8E74"/>
<path d="M136.707 95.6317C136.707 95.6317 137.438 94.7277 137.99 95.2343C138.542 95.7408 136.728 98.057 136.429 97.4373C136.131 96.8176 136.707 95.6317 136.707 95.6317Z" fill="#FB8E74"/>
<path d="M134.99 102.016L135.778 97.8398L131.221 98.2348L130.215 102.157C130.215 102.157 131.012 104.014 131.865 104.837C131.865 104.837 134.515 102.548 134.99 102.016Z" fill="#FB8877"/>
<path d="M138.685 93.9459C138.516 94.4539 138.097 94.5808 138.066 94.877C138.035 95.1733 137.845 95.935 137.556 96.2313C137.267 96.5276 137.117 96.6122 137.117 96.6122C137.117 96.6122 133.207 97.7128 131.222 96.1887C131.222 96.1887 131.092 95.6102 131.228 94.919C131.363 94.2346 131.031 94.1146 131.416 93.7761C131.802 93.4375 131.919 93.1412 131.928 92.7604C131.937 92.3795 131.967 91.9138 132.363 91.5329C132.759 91.1521 133.114 91.2789 133.5 90.9403C133.5 90.9403 134.07 89.9831 134.823 89.8744C135.576 89.7656 137.163 89.3664 138.108 90.5277C139.052 91.689 138.617 92.7054 138.89 93.0682C139.163 93.4317 138.685 93.9459 138.685 93.9459Z" fill="#713336"/>
<path d="M131.19 94.9587C131.19 94.9587 129.346 100.04 132.82 100.421C135.89 100.492 136.98 96.7458 137.419 94.8246C137.859 92.9034 137.587 90.8919 135.13 90.9576C132.673 91.0234 131.461 93.8205 131.19 94.9587Z" fill="#FBA990"/>
<path d="M132.154 93.1359C132.154 93.1359 132.381 93.5431 132.171 93.9539C131.96 94.3648 131.388 94.5227 131.303 95.0647C131.217 95.6067 130.966 96.734 130.813 96.7832C130.659 96.8327 130.768 95.6826 130.794 95.2883C130.82 94.8941 131.114 93.2642 131.933 92.2289C132.753 91.1937 133.259 90.7565 134.718 90.5191C136.177 90.2817 137.283 90.8956 137.688 91.7859C138.094 92.6763 137.445 94.9436 137.445 94.9436C137.445 94.9436 137.542 93.8658 137.181 93.6132C136.82 93.3603 136.522 93.1731 136.582 93.0253C136.641 92.8775 135.427 93.4134 134.213 93.0231C132.999 92.6329 132.607 92.8103 132.405 92.9353C132.203 93.06 132.154 93.1359 132.154 93.1359Z" fill="#713336"/>
<path d="M128.715 102.839C128.686 102.957 127.02 106.927 127.02 106.927L128.483 107.662L128.072 108.486" stroke="#022755" stroke-width="0.661782" stroke-miterlimit="10"/>
<path d="M135.92 102.839C135.89 102.957 135.577 106.927 135.577 106.927L133.746 107.662L133.746 108.486" stroke="#022755" stroke-width="0.661782" stroke-miterlimit="10"/>
<path d="M139.477 108.533H122.047C121.245 108.533 120.757 107.882 120.957 107.08L125.354 89.4428C125.554 88.6406 126.367 87.9902 127.169 87.9902H144.599C145.401 87.9902 145.889 88.6406 145.689 89.4428L141.291 107.08C141.092 107.882 140.279 108.533 139.477 108.533Z" stroke="white" stroke-width="1.55622" stroke-miterlimit="10"/>
<path d="M78.8477 89.0273H105.822" stroke="#73A5FF" stroke-width="4.66865" stroke-miterlimit="10" stroke-linecap="round" stroke-linejoin="round"/>
<path d="M76.7734 101.477H103.748" stroke="#73A5FF" stroke-width="4.66865" stroke-miterlimit="10" stroke-linecap="round" stroke-linejoin="round"/>
<path d="M88.1152 96.7744H115.09" stroke="#73A5FF" stroke-width="4.66865" stroke-miterlimit="10" stroke-linecap="round" stroke-linejoin="round"/>
<path d="M78.1582 93.1768H86.2506" stroke="#73A5FF" stroke-width="4.66865" stroke-miterlimit="10" stroke-linecap="round" stroke-linejoin="round"/>
<path d="M77.0469 96.7744H85.1393" stroke="#73A5FF" stroke-width="4.66865" stroke-miterlimit="10" stroke-linecap="round" stroke-linejoin="round"/>
<path d="M110.109 89.0273H119.723" stroke="#73A5FF" stroke-width="4.66865" stroke-miterlimit="10" stroke-linecap="round" stroke-linejoin="round"/>
<path d="M114.822 107.319H100.466C100.394 107.319 100.341 107.25 100.359 107.18L101.001 104.712C101.014 104.663 101.058 104.629 101.108 104.629H115.465C115.537 104.629 115.59 104.697 115.572 104.767L114.929 107.236C114.917 107.284 114.873 107.319 114.822 107.319Z" stroke="#7094D8" stroke-width="1.55622" stroke-miterlimit="10"/>
<path d="M96.9768 107.319H82.6203C82.548 107.319 82.4953 107.25 82.5133 107.18L83.1558 104.712C83.1684 104.663 83.2125 104.629 83.2627 104.629H97.6192C97.6915 104.629 97.7443 104.697 97.7262 104.767L97.0837 107.236C97.0711 107.284 97.027 107.319 96.9768 107.319Z" stroke="#7094D8" stroke-width="1.55622" stroke-miterlimit="10"/>
<path d="M113.5 79.2754H130.307" stroke="#7094D8" stroke-width="1.55622" stroke-miterlimit="10"/>
<path d="M146.566 152.384H69.0444C68.2296 152.384 67.6341 151.614 67.8397 150.826L75.0765 123.021C75.2192 122.473 75.7146 122.09 76.2812 122.09H153.802C154.617 122.09 155.212 122.86 155.007 123.648L147.77 151.453C147.628 152.002 147.132 152.384 146.566 152.384Z" fill="#BFD9FF"/>
<path d="M79.6738 128.037H106.648" stroke="#A9C2FF" stroke-width="4.66865" stroke-miterlimit="10" stroke-linecap="round" stroke-linejoin="round"/>
<path d="M77.5996 140.488H104.574" stroke="#A9C2FF" stroke-width="4.66865" stroke-miterlimit="10" stroke-linecap="round" stroke-linejoin="round"/>
<path d="M88.9434 135.783H115.918" stroke="#A9C2FF" stroke-width="4.66865" stroke-miterlimit="10" stroke-linecap="round" stroke-linejoin="round"/>
<path d="M78.9844 132.187H87.0768" stroke="#A9C2FF" stroke-width="4.66865" stroke-miterlimit="10" stroke-linecap="round" stroke-linejoin="round"/>
<path d="M77.875 135.783H85.9674" stroke="#A9C2FF" stroke-width="4.66865" stroke-miterlimit="10" stroke-linecap="round" stroke-linejoin="round"/>
<path d="M110.936 128.037H120.55" stroke="#A9C2FF" stroke-width="4.66865" stroke-miterlimit="10" stroke-linecap="round" stroke-linejoin="round"/>
<path d="M115.651 146.327H101.294C101.222 146.327 101.169 146.259 101.187 146.189L101.83 143.72C101.842 143.672 101.886 143.638 101.937 143.638H116.293C116.365 143.638 116.418 143.706 116.4 143.776L115.758 146.245C115.745 146.293 115.701 146.327 115.651 146.327Z" stroke="#84AEE5" stroke-width="1.55622" stroke-miterlimit="10"/>
<path d="M97.805 146.327H83.4485C83.3763 146.327 83.3231 146.259 83.3416 146.189L83.984 143.72C83.9967 143.672 84.0408 143.638 84.091 143.638H98.4475C98.5197 143.638 98.5725 143.706 98.5544 143.776L97.912 146.245C97.8993 146.293 97.8553 146.327 97.805 146.327Z" stroke="#84AEE5" stroke-width="1.55622" stroke-miterlimit="10"/>
<path d="M140.883 142.75C140.148 141.77 137.162 141.057 136.337 140.077C135.916 139.576 135.916 138.645 136.016 137.854C136.31 137.667 136.554 137.479 136.699 137.305C136.947 136.943 137.227 136.437 137.506 135.881C137.591 135.964 137.704 136.029 137.85 136.024C138.242 136.012 139.734 133.981 139.349 133.511C139.129 133.242 138.774 133.475 138.51 133.724C138.905 132.82 139.182 132.127 139.182 132.127H139.167C139.205 132.012 139.239 131.898 139.268 131.782C139.86 129.407 138.416 127.482 136.041 127.482C133.667 127.482 131.262 129.407 130.67 131.782C130.641 131.898 130.618 132.013 130.599 132.127H130.583C130.583 132.127 130.516 132.82 130.46 133.724C130.32 133.475 130.081 133.242 129.727 133.511C129.107 133.982 129.587 136.013 129.973 136.024C130.117 136.029 130.262 135.964 130.388 135.881C130.391 136.437 130.418 136.943 130.485 137.305C130.556 137.518 130.765 137.752 131.035 137.98C130.74 138.742 130.29 139.602 129.654 140.077C128.34 141.057 124.999 141.77 123.775 142.75C122.673 143.631 121.69 146.206 121.504 146.715H141.176C141.244 146.206 141.545 143.631 140.883 142.75Z" fill="#8DBCF8"/>
<g opacity="0.46">
<path d="M138.542 189.458H61.0209C60.2061 189.458 59.6109 188.688 59.8162 187.899L67.053 160.095C67.1957 159.546 67.6911 159.163 68.2577 159.163H145.779C146.594 159.163 147.189 159.933 146.984 160.722L139.747 188.526C139.604 189.075 139.109 189.458 138.542 189.458Z" fill="#BFD9FF"/>
<path d="M71.6523 165.11H98.627" stroke="#A9C2FF" stroke-width="4.66865" stroke-miterlimit="10" stroke-linecap="round" stroke-linejoin="round"/>
<path d="M69.5781 177.562H96.5527" stroke="#A9C2FF" stroke-width="4.66865" stroke-miterlimit="10" stroke-linecap="round" stroke-linejoin="round"/>
<path d="M80.9219 172.856H107.896" stroke="#A9C2FF" stroke-width="4.66865" stroke-miterlimit="10" stroke-linecap="round" stroke-linejoin="round"/>
<path d="M70.9629 169.26H79.0553" stroke="#A9C2FF" stroke-width="4.66865" stroke-miterlimit="10" stroke-linecap="round" stroke-linejoin="round"/>
<path d="M69.8555 172.856H77.9479" stroke="#A9C2FF" stroke-width="4.66865" stroke-miterlimit="10" stroke-linecap="round" stroke-linejoin="round"/>
<path d="M102.914 165.11H112.528" stroke="#A9C2FF" stroke-width="4.66865" stroke-miterlimit="10" stroke-linecap="round" stroke-linejoin="round"/>
<path d="M107.629 183.401H93.2726C93.2004 183.401 93.1476 183.332 93.1657 183.262L93.8081 180.794C93.8208 180.745 93.8649 180.711 93.9151 180.711H108.272C108.344 180.711 108.397 180.779 108.379 180.849L107.736 183.318C107.723 183.367 107.68 183.401 107.629 183.401Z" stroke="#84AEE5" stroke-width="1.55622" stroke-miterlimit="10"/>
<path d="M89.7834 183.401H75.4269C75.3547 183.401 75.3019 183.332 75.32 183.262L75.9624 180.794C75.9751 180.745 76.0192 180.711 76.0694 180.711H90.4259C90.4982 180.711 90.5509 180.779 90.5328 180.849L89.8904 183.318C89.8774 183.367 89.8337 183.401 89.7834 183.401Z" stroke="#84AEE5" stroke-width="1.55622" stroke-miterlimit="10"/>
<path d="M132.86 179.823C132.124 178.843 129.138 178.13 128.313 177.15C127.892 176.649 127.892 175.719 127.992 174.928C128.286 174.741 128.53 174.553 128.675 174.379C128.923 174.016 129.203 173.51 129.482 172.955C129.567 173.038 129.68 173.102 129.826 173.098C130.218 173.086 131.71 171.055 131.326 170.585C131.106 170.315 130.75 170.549 130.486 170.798C130.881 169.894 131.159 169.2 131.159 169.2H131.144C131.181 169.086 131.216 168.971 131.245 168.855C131.837 166.48 130.392 164.556 128.018 164.556C125.643 164.556 123.238 166.48 122.646 168.855C122.618 168.972 122.595 169.086 122.575 169.2H122.56C122.56 169.2 122.492 169.894 122.436 170.798C122.296 170.549 122.057 170.315 121.703 170.585C121.084 171.055 121.563 173.086 121.949 173.098C122.093 173.102 122.238 173.038 122.364 172.955C122.367 173.51 122.395 174.016 122.462 174.379C122.533 174.592 122.741 174.825 123.012 175.053C122.716 175.815 122.266 176.676 121.63 177.15C120.317 178.131 116.976 178.843 115.751 179.823C114.65 180.705 113.667 183.28 113.48 183.789H133.153C133.22 183.28 133.521 180.705 132.86 179.823Z" fill="#8DBCF8"/>
</g>
<path d="M123.045 189.596H136.878" stroke="#7094D8" stroke-width="1.55622" stroke-miterlimit="10"/>
<path d="M76.0137 152.523H108.937" stroke="#7094D8" stroke-width="1.55622" stroke-miterlimit="10"/>
<path d="M116.475 152.523H124.498" stroke="#7094D8" stroke-width="1.55622" stroke-miterlimit="10"/>
<path d="M151.125 122.229H153.906C154.724 122.229 155.308 123.02 155.068 123.801L153.891 127.624" stroke="#7094D8" stroke-width="1.55622" stroke-miterlimit="10"/>
<path d="M63.0495 73.3375H61.6309C61.2747 73.3375 61.0582 73.0488 61.1468 72.6925L61.5005 71.2739C61.5894 70.9176 61.95 70.6289 62.3063 70.6289H63.7249C64.0811 70.6289 64.2976 70.9176 64.2091 71.2739L63.8553 72.6925C63.7664 73.0488 63.4058 73.3375 63.0495 73.3375Z" fill="#BFD9FF"/>
<path d="M62.0124 77.4976H60.5938C60.2376 77.4976 60.0211 77.2089 60.1097 76.8526L60.4634 75.434C60.5523 75.0778 60.9129 74.7891 61.2692 74.7891H62.6878C63.044 74.7891 63.2605 75.0778 63.172 75.434L62.8182 76.8526C62.7293 77.2089 62.3687 77.4976 62.0124 77.4976Z" fill="#EDF4FF"/>
<path d="M66.5281 77.4976H65.1095C64.7532 77.4976 64.5368 77.2089 64.6253 76.8526L64.979 75.434C65.0679 75.0778 65.4285 74.7891 65.7848 74.7891H67.2034C67.5597 74.7891 67.7761 75.0778 67.6876 75.434L67.3338 76.8526C67.2449 77.2089 66.8843 77.4976 66.5281 77.4976Z" fill="#BFD9FF"/>
<path d="M71.0398 77.4976H69.6212C69.2649 77.4976 69.0485 77.2089 69.137 76.8526L69.4907 75.434C69.5796 75.0778 69.9402 74.7891 70.2965 74.7891H71.7151C72.0714 74.7891 72.2878 75.0778 72.1993 75.434L71.8456 76.8526C71.7567 77.2089 71.3961 77.4976 71.0398 77.4976Z" fill="#EDF4FF"/>
<path d="M60.9499 81.7535H59.5313C59.1751 81.7535 58.9586 81.4648 59.0472 81.1085L59.4009 79.6899C59.4898 79.3336 59.8504 79.0449 60.2067 79.0449H61.6253C61.9815 79.0449 62.198 79.3336 62.1095 79.6899L61.7557 81.1085C61.6668 81.4648 61.3058 81.7535 60.9499 81.7535Z" fill="#EDF4FF"/>
<path d="M59.8171 86.2994H58.3985C58.0423 86.2994 57.8258 86.0107 57.9143 85.6544L58.2681 84.2358C58.357 83.8795 58.7176 83.5908 59.0739 83.5908H60.4925C60.8487 83.5908 61.0652 83.8795 60.9766 84.2358L60.6229 85.6544C60.534 86.0107 60.173 86.2994 59.8171 86.2994Z" fill="#EDF4FF"/>
<path d="M65.4657 81.7535H64.0471C63.6908 81.7535 63.474 81.4648 63.5629 81.1085L63.9166 79.6899C64.0055 79.3336 64.3661 79.0449 64.7224 79.0449H66.141C66.4973 79.0449 66.7137 79.3336 66.6252 79.6899L66.2715 81.1085C66.1826 81.4648 65.822 81.7535 65.4657 81.7535Z" fill="#EDF4FF"/>
<path d="M63.489 89.6851H62.0704C61.7141 89.6851 61.4977 89.3964 61.5862 89.0401L61.94 87.6215C62.0288 87.2653 62.3895 86.9766 62.7457 86.9766H64.1643C64.5206 86.9766 64.737 87.2653 64.6485 87.6215L64.2948 89.0401C64.2059 89.3964 63.8453 89.6851 63.489 89.6851Z" fill="#BFD9FF"/>
<path d="M85.7939 65.0789V65.0782C85.7866 65.0779 85.7798 65.0775 85.7725 65.0771C85.7509 65.0757 85.7299 65.0728 85.7079 65.0717L85.7075 65.0735C85.5615 65.0645 85.4141 65.0576 85.2634 65.0576C81.0571 65.0576 76.7996 68.4299 75.6791 72.6182L75.6292 72.8183H75.627C75.622 72.8393 75.6184 72.8599 75.6133 72.8808L75.5815 73.0091H75.5858C74.6626 77.2541 77.3864 80.6329 81.7473 80.4566C85.7238 80.2954 89.7338 77.1218 90.9273 73.1883C92.222 68.9221 89.8661 65.3637 85.7939 65.0789ZM88.695 73.0438C87.8556 75.8402 84.9892 78.0978 82.1682 78.1874C79.1352 78.2835 77.2429 75.9298 77.8684 72.9697L77.9558 72.6182H77.9526C78.7594 69.6852 81.7458 67.3308 84.6969 67.3308C84.8497 67.3308 84.9986 67.3387 85.1453 67.3514C87.964 67.5895 89.5871 70.0708 88.695 73.0438Z" fill="#EBEDFC"/>
<path d="M85.3802 66.3894C85.2498 66.9123 85.4941 67.3661 85.9699 67.4922C88.2698 68.1007 89.4969 70.3742 88.6955 73.0441C87.8561 75.8404 84.9896 78.0977 82.1687 78.1873C79.4023 78.2751 77.5834 76.3254 77.7594 73.736C77.7958 73.2016 77.4164 72.8186 76.8734 72.8186C76.1691 72.8186 75.4678 73.4538 75.4208 74.1465C75.1708 77.8411 77.7843 80.6173 81.7481 80.4568C85.7246 80.2957 89.7347 77.1221 90.9281 73.1886C92.0801 69.3914 90.341 66.1535 87.0731 65.2866C86.3981 65.107 85.5652 65.6476 85.3802 66.3894Z" fill="#A5C5FF"/>
<path d="M104.954 64.3026L104.954 64.3018C104.947 64.3015 104.94 64.3011 104.934 64.3008C104.907 64.299 104.88 64.2979 104.853 64.2961C104.712 64.2874 104.57 64.2812 104.424 64.2812C100.17 64.2812 95.8606 67.7298 94.8001 71.9842C93.7396 76.2381 96.3282 79.6871 100.583 79.6871C100.728 79.6871 100.873 79.6809 101.018 79.6722C101.046 79.6708 101.073 79.6694 101.1 79.6679C101.108 79.6675 101.116 79.6672 101.123 79.6665V79.6657C105.173 79.3922 109.144 76.0943 110.187 72.0514C110.193 72.029 110.2 72.0069 110.206 71.9845C111.222 67.9101 108.889 64.5775 104.954 64.3026ZM101.532 77.3987C101.525 77.3991 101.518 77.3998 101.51 77.4002C101.421 77.406 101.331 77.4096 101.242 77.4114C101.211 77.4117 101.18 77.4135 101.149 77.4135C98.1504 77.4135 96.3257 74.9825 97.0733 71.9838C97.8209 68.9851 100.858 66.554 103.857 66.554C103.887 66.554 103.917 66.5558 103.948 66.5562C104.037 66.5577 104.125 66.5616 104.212 66.5674C104.22 66.5678 104.227 66.5685 104.235 66.5692C107.006 66.7654 108.648 69.1137 107.932 71.9838C107.926 72.0062 107.919 72.0282 107.914 72.0506C107.171 74.8918 104.379 77.2058 101.532 77.3987Z" fill="white"/>
<path d="M107.583 72.9993C106.628 75.1767 104.489 76.8937 102.209 77.3136C101.64 77.4184 101.124 77.8802 100.986 78.433C100.808 79.1488 101.328 79.6825 102.065 79.5488C105.313 78.9588 108.367 76.5093 109.72 73.4036C110.026 72.7015 109.654 72.0508 108.94 72.0508C108.385 72.0508 107.823 72.4537 107.583 72.9993Z" fill="#BFD9FF"/>
<path d="M84.5296 91.4114H70.1731C70.1009 91.4114 70.0478 91.3432 70.0662 91.2731L70.7086 88.8044C70.7213 88.7556 70.7654 88.7217 70.8156 88.7217H85.1721C85.2443 88.7217 85.2971 88.79 85.279 88.8601L84.6366 91.3287C84.6239 91.3775 84.5799 91.4114 84.5296 91.4114Z" fill="#EDF4FF"/>
<path d="M151.122 102.868C154.11 100.23 154.864 96.2015 152.807 93.8712C150.749 91.5409 146.659 91.7909 143.67 94.4294C140.682 97.068 139.928 101.096 141.985 103.426C144.043 105.757 148.134 105.507 151.122 102.868Z" fill="#73A5FF"/>
<path d="M156.812 105.49C156.572 106.453 155.597 107.234 154.633 107.234C153.67 107.234 153.083 106.453 153.323 105.49C153.564 104.526 154.539 103.745 155.503 103.745C156.466 103.745 157.053 104.526 156.812 105.49Z" fill="#73A5FF"/>
<path d="M145.75 101.881C145.549 101.881 145.368 101.804 145.253 101.651L143.606 99.4568C143.376 99.1507 143.5 98.6546 143.882 98.3486C144.265 98.0425 144.761 98.0425 144.99 98.3486L146.222 99.9887L150.621 96.4678C151.003 96.1618 151.499 96.1618 151.729 96.4678C151.959 96.7739 151.835 97.27 151.453 97.576L146.361 101.651C146.17 101.804 145.95 101.881 145.75 101.881Z" fill="white"/>
<path d="M187.852 209.795C202.864 209.795 215.034 208.773 215.034 207.512C215.034 206.251 202.864 205.229 187.852 205.229C172.84 205.229 160.67 206.251 160.67 207.512C160.67 208.773 172.84 209.795 187.852 209.795Z" fill="#BFD9FF"/>
<path d="M188.889 85.9854C188.889 85.9854 188.198 87.3685 187.783 90.412C187.368 93.4552 188.474 111.024 188.474 111.024L200.371 109.779L194.976 86.8157L188.889 85.9854Z" fill="#024470"/>
<path d="M181.837 160.2L177.688 180.742L185.78 180.95C185.78 180.95 187.855 162.69 187.025 162.69C186.195 162.69 181.837 160.2 181.837 160.2Z" fill="#45242C"/>
<path d="M200.652 204.536C200.652 204.536 197.608 207.717 196.363 208.409C196.64 208.962 201.066 208.962 202.727 208.132C204.387 207.302 205.632 205.365 205.632 205.365L205.493 207.44H206.323C206.323 207.44 207.153 204.535 207.153 203.844C207.153 203.152 206.323 202.184 206.323 202.184L200.652 204.536Z" fill="#713336"/>
<path d="M199.408 163.589L202.451 200.939L206.048 200.662C206.048 200.662 210.198 173.272 208.538 163.866C206.878 154.459 199.408 163.589 199.408 163.589Z" fill="#FF8D68"/>
<path d="M202.448 200.94C202.448 200.94 201.341 203.845 199.82 205.228C198.298 206.611 202.171 206.611 203.831 205.228C205.491 203.845 205.63 203.015 206.183 202.738C206.736 202.461 206.045 200.663 206.045 200.663L202.448 200.94Z" fill="#FF8D68"/>
<path d="M175.671 203.909C175.671 203.909 172.135 206.532 170.791 207.005C170.971 207.597 175.334 208.343 177.11 207.805C178.886 207.266 180.439 205.567 180.439 205.567L179.953 207.589L180.771 207.729C180.771 207.729 182.079 205.006 182.196 204.324C182.312 203.642 181.657 202.548 181.657 202.548L175.671 203.909Z" fill="#713336"/>
<path d="M181.345 163.338L178.049 200.666L181.64 201C181.64 201 190.348 174.701 190.297 165.149C190.246 155.598 181.345 163.338 181.345 163.338Z" fill="#FF8D68"/>
<path d="M178.05 200.667C178.05 200.667 176.47 203.344 174.737 204.451C173.004 205.558 176.822 206.211 178.691 205.127C180.561 204.043 180.837 203.248 181.429 203.069C182.021 202.89 181.642 201.001 181.642 201.001L178.05 200.667Z" fill="#FF8D68"/>
<path d="M168.603 103.994L161.452 102.586C161.452 102.586 161.344 103.561 161.994 103.778C162.644 103.995 162.644 103.995 162.644 103.995C162.644 103.995 164.269 107.895 165.027 108.329C165.786 108.762 170.338 110.641 170.338 110.641L171.529 106.054L168.603 103.994Z" fill="#FF7759"/>
<path d="M173.747 109.779C173.747 109.779 173.678 109.294 172.721 107.354C171.66 105.203 171.421 104.32 171.421 104.32C171.421 104.32 168.062 103.02 167.52 102.37C166.979 101.72 166.654 101.611 166.654 101.611C166.654 101.611 166.004 102.803 166.979 103.67C167.954 104.537 168.821 105.187 168.821 105.187C168.821 105.187 168.713 107.679 169.038 108.871C169.363 110.063 170.34 110.641 170.34 110.641L173.747 109.779Z" fill="#FF8D68"/>
<path d="M184.882 113.79C184.882 113.79 180.04 121.537 179.902 120.845C179.763 120.154 173.677 109.502 173.677 109.502L170.338 110.641C170.338 110.641 175.337 126.24 178.518 128.73C178.518 128.73 178.795 129.145 179.764 129.007C180.732 128.868 188.202 121.122 188.202 121.122L184.882 113.79Z" fill="#FF8D68"/>
<path d="M189.411 104.592C189.411 104.592 186.817 105.629 185.572 107.428C184.327 109.226 180.73 117.387 180.73 117.387C180.73 117.387 182.667 120.846 187.094 122.09L193.181 110.886L189.411 104.592Z" fill="#E86D5E"/>
<path d="M186.194 131.151C186.194 131.151 186.402 134.471 186.402 135.716C186.402 135.716 181.422 159.785 181.215 165.388C181.007 170.99 185.157 182.403 185.157 182.403C185.157 182.403 203.002 181.988 208.812 180.743L209.434 168.708C209.434 168.708 210.264 147.75 209.434 141.733C208.604 135.716 205.077 132.603 205.077 132.603L204.04 129.698L186.194 131.151Z" fill="#713336"/>
<path d="M201.445 103.139C201.445 103.139 206.114 105.318 207.566 107.6C209.019 109.882 213.376 122.228 213.376 122.228C213.376 122.228 208.5 123.992 204.246 123.992C204.246 123.992 204.661 127.934 205.076 129.179C205.491 130.424 204.039 130.943 204.039 130.943C204.039 130.943 193.872 133.744 186.298 132.084C186.298 132.084 185.364 131.877 185.364 131.461C185.364 131.046 185.468 130.009 185.468 130.009C185.468 130.009 184.742 122.954 184.534 121.709C184.327 120.464 182.044 117.075 182.252 115.726C182.459 114.377 185.987 108.118 185.987 108.118C185.987 108.118 188.373 105.317 189.41 104.591C190.448 103.864 193.041 103.864 193.041 103.864L201.445 103.139Z" fill="#E86D5E"/>
<path d="M192.6 99.4058C192.604 99.5684 193.196 103.09 191.246 105.582C189.295 108.128 196.989 108.02 198.777 105.419C200.402 103.09 200.239 102.71 200.239 102.71C200.239 102.71 198.939 98.4844 199.318 95.7213C199.21 93.2295 192.492 94.7464 192.6 99.4058Z" fill="#FF8D68"/>
<path d="M192.548 84.7074C192.548 84.7074 190.305 85.2816 189.035 88.7254C187.764 92.1693 188.611 99.4878 189.458 100.349C190.305 101.21 192.878 100.881 196.446 99.7031C200.216 98.4587 201.49 94.5393 202.164 91.9543C203.454 87.0033 199.149 81.9092 192.548 84.7074Z" fill="#FF8D68"/>
<path d="M188.201 88.6142C188.201 88.6142 190.275 93.594 198.161 93.8708L199.994 102.672C199.994 102.672 203.35 104.285 204.662 105.006C204.662 105.006 206.184 89.029 202.588 85.1558C198.991 81.2827 192.628 82.2507 190.138 84.4642C187.648 86.6778 188.201 88.6142 188.201 88.6142Z" fill="#024470"/>
<path d="M201.446 103.139L199.682 101.479C199.682 101.479 198.126 105.941 192.627 106.252C192.627 106.252 191.901 105.111 192.316 103.451L191.382 104.177C191.382 104.177 189.411 106.978 189.619 107.808C189.826 108.638 192.455 107.186 192.455 107.186C192.455 107.186 195.567 109.053 196.812 109.157C198.057 109.261 201.239 103.451 201.446 103.139Z" fill="white"/>
<path d="M198.284 93.742C198.284 93.742 199.116 92.37 199.948 92.8755C200.779 93.381 199.418 96.4856 198.284 96.5579C197.149 96.6301 197.755 94.5362 198.284 93.742Z" fill="#FF7759"/>
<path d="M200.234 112.13L203.416 123.473" stroke="#BB524F" stroke-width="1.55622" stroke-miterlimit="10"/>
<path d="M198.262 112.788C198.262 112.788 198.988 114.967 201.374 116.419" stroke="#BB524F" stroke-width="1.55622" stroke-miterlimit="10"/>
<path d="M201.893 110.09C201.893 110.09 202.307 107.185 205.628 106.978" stroke="#BB524F" stroke-width="1.55622" stroke-miterlimit="10"/>
<path d="M185.607 108.845C185.607 108.845 182.218 114.413 182.252 115.727C182.287 117.041 184.465 120.776 184.465 120.776L187.163 127.831" stroke="#BB524F" stroke-width="1.55622" stroke-miterlimit="10"/>
<path d="M197.328 131.981L200.959 127.831" stroke="#BB524F" stroke-width="1.55622" stroke-miterlimit="10"/>
<path d="M166.896 105.215L162.641 103.997C162.641 103.997 163.023 104.939 163.299 105.215C163.576 105.492 166.55 106.53 166.55 106.53" stroke="#E66657" stroke-width="1.39023" stroke-miterlimit="10"/>
<path d="M163.299 105.216C163.299 105.216 163.714 106.461 163.921 106.668C164.129 106.876 166.757 107.637 166.757 107.637" stroke="#E66657" stroke-width="1.39023" stroke-miterlimit="10"/>
<path d="M167.518 104.178L168.816 105.189L169.8 104.938" stroke="#E66657" stroke-width="1.39023" stroke-miterlimit="10"/>
<path d="M193.039 100.58C193.039 100.58 195.667 100.027 197.051 97.5371" stroke="#E66657" stroke-width="1.39023" stroke-miterlimit="10"/>
<path d="M190.756 94.4941L190.271 97.1225L191.17 97.3299" stroke="#E66657" stroke-width="1.39023" stroke-miterlimit="10"/>
<path d="M190.617 98.5047C190.617 98.5047 191.931 98.7815 193.315 98.0205" stroke="#E66657" stroke-width="1.39023" stroke-miterlimit="10"/>
<path d="M195.528 95.842C195.528 96.5487 194.955 97.1215 194.248 97.1215C193.541 97.1215 192.969 96.5487 192.969 95.842C192.969 95.1352 193.542 94.5625 194.248 94.5625C194.955 94.5625 195.528 95.1352 195.528 95.842Z" fill="#FA6157"/>
<path d="M193.04 94.1129C193.04 94.2849 192.901 94.424 192.729 94.424C192.557 94.424 192.418 94.2845 192.418 94.1129C192.418 93.9409 192.557 93.8018 192.729 93.8018C192.901 93.8018 193.04 93.9412 193.04 94.1129Z" fill="#024470"/>
<path d="M189.683 94.1129C189.683 94.2849 189.543 94.424 189.372 94.424C189.2 94.424 189.061 94.2845 189.061 94.1129C189.061 93.9409 189.2 93.8018 189.372 93.8018C189.543 93.8018 189.683 93.9412 189.683 94.1129Z" fill="#024470"/>
<path d="M187.473 134.99C187.473 134.99 193.179 136.753 198.574 134.471" stroke="#562525" stroke-width="1.55622" stroke-miterlimit="10"/>
<path d="M189.164 137.03C189.164 137.03 192.069 137.999 196.772 136.2" stroke="#562525" stroke-width="1.55622" stroke-miterlimit="10"/>
<path d="M187.915 135.543L176.953 141.872L185.357 156.427L196.318 150.099L187.915 135.543Z" fill="white"/>
<path d="M198.298 141.182C198.298 141.182 196.569 143.084 196.05 143.499C195.531 143.914 192.004 144.226 192.004 144.226C192.004 144.226 190.448 146.819 190.033 146.715C189.618 146.612 189.722 146.301 189.722 146.301C189.722 146.301 189.618 141.632 189.929 141.113C190.24 140.594 195.324 139.142 195.324 139.142L195.947 138.416L198.298 141.182Z" fill="#FF8D68"/>
<path d="M211.853 122.715C211.992 123.13 213.098 126.381 213.652 128.041C214.205 129.701 201.755 138.415 199.818 139.937L198.297 141.182L195.945 138.415L206.873 127.487L205.283 123.89L211.853 122.715Z" fill="#FF8D68"/>
<path d="M190.035 146.715L190.692 143.81" stroke="#E66657" stroke-width="1.39023" stroke-miterlimit="10"/>
<path d="M189.652 144.088L190.413 142.428" stroke="#E66657" stroke-width="1.39023" stroke-miterlimit="10"/>
<path d="M189.929 141.113L189.652 146.716H190.551L192.004 144.226" stroke="#E66657" stroke-width="1.39023" stroke-miterlimit="10"/>
<path d="M48.9691 209.793C63.9813 209.793 76.1512 208.771 76.1512 207.51C76.1512 206.249 63.9813 205.228 48.9691 205.228C33.9569 205.228 21.7871 206.249 21.7871 207.51C21.7871 208.771 33.9569 209.793 48.9691 209.793Z" fill="#BFD9FF"/>
<path d="M38.0255 200.169C38.0255 200.169 38.6022 198.933 40.7442 199.263C42.8862 199.592 43.1333 200.004 43.3805 201.075C43.6277 202.146 44.3691 203.3 44.8634 203.547C45.3577 203.794 47.1702 205.03 48.6531 205.277C50.136 205.524 50.3008 206.43 49.9712 206.842C49.6417 207.254 44.0399 207.584 42.8042 207.419C42.8042 207.419 38.6026 207.337 37.6143 207.007C36.6254 206.677 37.9432 200.581 38.0255 200.169Z" fill="#2D2737"/>
<path d="M35.6464 171.21C35.6464 171.21 35.0198 167.799 38.6227 166.653C42.2256 165.508 42.9074 167.173 43.9983 170.285C45.0891 173.397 43.061 199.979 43.061 199.979C43.061 199.979 38.9121 200.687 37.848 200.059C37.848 200.059 34.6874 182.755 34.9075 178.006C35.1275 173.257 35.6464 171.21 35.6464 171.21Z" fill="#3D4776"/>
<path d="M37.4082 199.015C37.4082 199.015 42.1041 198.603 43.587 198.355L43.5046 200.497C43.5046 200.497 39.7973 201.157 37.4906 200.827L37.4082 199.015Z" fill="#51598D"/>
<path d="M36.2529 104.605C36.2529 104.605 33.287 104.77 31.4746 111.525C29.6621 118.28 28.5088 126.519 29.1678 128.661C29.8269 130.803 36.9116 136.569 39.5479 136.569C42.1841 136.569 42.3489 134.592 41.8546 132.944C41.3603 131.297 36.2529 126.848 36.2529 126.848C36.2529 126.848 40.3721 113.667 40.2073 110.207C40.0422 106.747 38.0649 104.605 36.2529 104.605Z" fill="#7E78C7"/>
<path d="M73.3883 102.591L72.8965 102.641L73.9989 100.459C73.9989 100.459 76.8011 100.282 77.2506 101.465L75.9653 104.316L73.3883 102.591Z" fill="#FF8D68"/>
<path d="M74.9621 96.3889C74.9621 96.3889 74.8527 94.1584 75.6465 93.8415C76.44 93.5246 77.3289 94.1417 77.3289 94.1417C77.3289 94.1417 78.6134 94.0109 79.0232 94.5591C79.4329 95.1072 79.3997 95.9365 79.3997 95.9365C79.3997 95.9365 80.1242 96.0987 80.3124 96.7874C80.5007 97.4761 80.1643 98.808 80.1643 98.808C80.1643 98.808 79.3252 99.8374 78.3554 99.5823C77.3856 99.3272 74.9621 96.3889 74.9621 96.3889Z" fill="#FF7759"/>
<path d="M73.4945 98.1909C73.4945 98.1909 73.1971 95.2717 73.5114 94.8858C73.8262 94.4999 77.0424 90.0508 77.0424 90.0508C77.0424 90.0508 77.7094 90.8085 77.3257 91.6735C76.9419 92.5386 75.4272 95.1626 75.4272 95.1626L75.4196 97.405C75.4196 97.405 74.4289 98.0959 73.4945 98.1909Z" fill="#FF7759"/>
<path d="M73.734 100.526C73.734 100.526 72.9654 95.8373 73.4897 95.1942C74.014 94.5506 76.5845 94.9261 77.0756 95.1118C77.5663 95.2979 78.9245 97.0471 79.1128 97.7358C79.301 98.4245 78.0208 100.914 77.2512 101.465C76.4815 102.015 74.1795 101.424 73.734 100.526Z" fill="#FF8D68"/>
<path d="M71.9258 103.617L72.9144 101.805C72.9144 101.805 75.2211 101.393 76.3745 103.205C76.7041 103.864 76.5393 103.864 76.5393 103.864L75.7978 105.347L71.9258 103.617Z" fill="#DEE0E8"/>
<path d="M48.4535 83.7834C48.4535 83.7834 50.8911 84.407 52.2717 88.1497C53.6524 91.8924 52.7321 99.8454 51.8114 100.781C50.8907 101.716 48.0947 101.359 44.2172 100.079C40.1204 98.727 38.7362 94.4676 38.0041 91.6583C36.6021 86.2784 41.2803 80.7424 48.4535 83.7834Z" fill="#FF8D68"/>
<path d="M39.7109 104.442L41.6882 97.3576C41.6882 97.3576 45.6426 96.2042 48.1137 98.8405L48.9376 99.9939V104.607C48.9376 104.607 44.8187 105.431 39.7109 104.442Z" fill="#FF8D68"/>
<path d="M34.1942 142.584C34.1942 142.584 32.7113 151.234 34.1942 161.12C35.6771 171.005 38.643 171.994 41.3613 171.994C44.0799 171.994 44.8214 164.085 45.3157 160.625C45.81 157.165 47.7872 145.302 44.08 142.584C40.3727 139.865 36.1714 139.618 34.1942 142.584Z" fill="#3D4776"/>
<path d="M44.5721 154.2C44.5721 154.2 41.6063 146.291 46.7965 142.831C51.9867 139.371 55.9408 139.865 57.1765 145.55C58.4123 151.234 58.6594 170.758 56.9294 174.713C55.1993 178.667 49.0205 172.488 44.5721 154.2Z" fill="#3D4776"/>
<path d="M53.2113 84.122C53.2113 84.122 54.3809 85.6425 53.6792 87.3968C52.9775 89.151 50.4044 89.8527 50.4044 89.8527C50.4044 89.8527 51.2232 91.0224 50.4044 92.6596L49.8198 93.5951C49.8198 93.5951 50.6386 95.4664 50.4044 95.9344C50.1707 96.4023 49.3519 96.2852 49.3519 96.2852C49.3519 96.2852 48.4164 93.7121 48.0652 93.9459C47.7143 94.1797 46.7788 95.3493 46.7788 96.4019C46.7788 97.4545 47.1297 98.2733 46.8959 98.975C46.6621 99.6767 43.0365 99.6767 41.516 99.4429C39.9955 99.2091 37.6566 94.5309 37.0716 92.4254C37.0716 92.4254 36.2528 89.5015 37.4224 87.0456C37.4224 87.0456 37.1887 84.9404 39.1767 82.8353C41.1651 80.7302 47.4805 81.4319 48.5331 82.2507C48.5331 82.2507 48.416 81.081 49.5857 81.3152C50.7553 81.5489 52.5096 82.6015 53.2113 84.122Z" fill="#C53A45"/>
<path d="M49.7025 94.7645C49.7025 94.7645 49.3516 93.244 48.0649 93.9458C46.7786 94.6475 48.2987 98.2731 49.3516 98.0393C50.4042 97.8052 49.9363 95.3492 49.7025 94.7645Z" fill="#FF7759"/>
<path d="M38.666 104.404C38.666 104.404 39.2178 102.464 39.7121 102.299C40.2064 102.135 46.3024 101.476 49.5978 103.453C51.0807 104.606 50.9159 105.43 50.9159 105.43C50.9159 105.43 41.0797 103.542 38.666 104.404Z" fill="#DEE0E8"/>
<path d="M37.4055 103.947C37.4055 103.947 47.6207 103.288 54.8705 106.418C58.1659 108.066 65.7037 115.521 65.7037 115.521L71.635 103.164C71.635 103.164 74.9715 101.97 76.2897 105.1C76.2897 105.1 72.5412 119.682 69.411 124.295C67.4337 125.943 58.0011 120.588 58.0011 120.588C58.0011 120.588 59.484 139.7 58.9897 148.268C58.3307 149.916 45.4791 150.74 43.1724 150.575C40.8656 150.41 32.7923 147.774 32.6276 147.279C32.4628 146.785 33.781 127.014 33.4514 124.707C33.1219 122.4 32.1333 111.032 32.4628 109.384C32.7923 107.737 34.2753 104.606 37.4055 103.947Z" fill="#7E78C7"/>
<path d="M48.2798 200.662C48.2798 200.662 48.8565 199.427 50.9985 199.756C53.1405 200.086 53.3876 200.498 53.6348 201.569C53.8819 202.64 54.6234 203.793 55.1177 204.04C55.612 204.287 57.4244 205.523 58.9073 205.77C60.3903 206.017 60.555 206.923 60.2255 207.335C59.896 207.747 54.2942 208.077 53.0584 207.912C53.0584 207.912 48.8569 207.83 47.8682 207.5C46.8793 207.17 48.1971 201.074 48.2798 200.662Z" fill="#3E3343"/>
<path d="M49.2683 171.747C49.2683 171.747 49.0211 168.287 52.7284 167.545C56.4357 166.804 56.93 168.534 57.6715 171.747C58.4129 174.96 53.4699 201.157 53.4699 201.157C53.4699 201.157 49.2683 201.404 48.28 200.663C48.28 200.663 47.0443 183.115 47.7857 178.42C48.5268 173.724 49.2683 171.747 49.2683 171.747Z" fill="#3D4776"/>
<path d="M47.9515 201.074C47.9515 201.074 51.1645 201.98 53.8828 201.485L54.13 199.591L47.8691 199.179L47.9515 201.074Z" fill="#51598D"/>
<path d="M43.584 152.347C43.584 152.347 47.0441 163.468 49.6388 168.905" stroke="#2A2E59" stroke-width="1.39023" stroke-miterlimit="10"/>
<path d="M50.6289 171.129C50.6289 171.129 52.7297 169.894 54.8305 171.129" stroke="#2A2E59" stroke-width="1.39023" stroke-miterlimit="10"/>
<path d="M50.2578 172.49C50.2578 172.49 51.9879 171.502 54.9537 173.602" stroke="#2A2E59" stroke-width="1.39023" stroke-miterlimit="10"/>
<path d="M37.2812 169.647C37.2812 169.647 38.6406 168.411 41.73 169.771" stroke="#2A2E59" stroke-width="1.39023" stroke-miterlimit="10"/>
<path d="M38.2695 170.881C38.2695 170.881 40.2467 169.893 42.1004 171.376" stroke="#2A2E59" stroke-width="1.39023" stroke-miterlimit="10"/>
<path d="M42.843 172.859L42.1016 198.068" stroke="#2A2E59" stroke-width="1.39023" stroke-miterlimit="10"/>
<path d="M53.0586 151.728C53.0586 151.728 55.8596 153.376 57.013 150.739" stroke="#2A2E59" stroke-width="1.39023" stroke-miterlimit="10"/>
<path d="M55.8613 152.058C55.8613 152.058 57.1795 162.273 56.8499 169.028" stroke="#2A2E59" stroke-width="1.39023" stroke-miterlimit="10"/>
<path d="M32.4629 113.67L33.781 127.839" stroke="#524B81" stroke-width="1.39023" stroke-miterlimit="10"/>
<path d="M55.0762 118.61C55.0762 118.61 64.8383 125.654 69.4106 124.295" stroke="#524B81" stroke-width="1.39023" stroke-miterlimit="10"/>
<path d="M66.6914 116.88C66.6914 116.88 68.6686 117.992 68.545 120.587" stroke="#524B81" stroke-width="1.39023" stroke-miterlimit="10"/>
<path d="M66.1992 115.891C66.1992 115.891 68.3 115.274 69.5358 117.374" stroke="#524B81" stroke-width="1.39023" stroke-miterlimit="10"/>
<path d="M54.7064 107.366C54.7064 107.366 49.5166 110.085 52.9764 116.387" stroke="#524B81" stroke-width="1.39023" stroke-miterlimit="10"/>
<path d="M47.3535 99.1484C47.3535 99.1484 48.2185 101.373 51.1226 101.002" stroke="#E66657" stroke-width="1.39023" stroke-miterlimit="10"/>
<path d="M75.3223 94.577L76.2903 93.7119C76.2903 93.7119 76.9696 93.7083 77.3302 94.1426" stroke="#E66657" stroke-width="1.39023" stroke-miterlimit="10"/>
<path d="M76.4746 94.7202C76.4746 94.6584 77.8545 93.917 77.8545 93.917C77.8545 93.917 79.1109 94.2259 79.2963 94.885C79.4816 95.5441 79.3374 95.8942 79.3374 95.8942" stroke="#E66657" stroke-width="1.39023" stroke-miterlimit="10"/>
<path d="M78.1016 95.9148C78.1634 95.8942 79.8522 95.9972 79.8522 95.9972C79.8522 95.9972 80.4701 96.4091 80.4495 97.2124C80.4289 98.0156 80.1644 98.808 80.1644 98.808C80.1644 98.808 79.5639 99.6629 78.5341 99.6424" stroke="#E66657" stroke-width="1.39023" stroke-miterlimit="10"/>
<path d="M79.07 97.6445C79.07 97.6445 79.276 97.9741 79.0083 98.5714C78.7405 99.1686 78.4164 100.733 77.25 101.465" stroke="#E66657" stroke-width="1.39023" stroke-miterlimit="10"/>
<path d="M44.0187 86.9145C41.6089 85.7405 38.5195 87.1616 38.5195 87.1616C38.5195 87.1616 38.8903 85.5551 40.6203 84.999" stroke="#A03A45" stroke-width="1.85364" stroke-miterlimit="10"/>
<path d="M38.6426 88.1509C38.6426 88.1509 39.2605 88.0891 40.0637 89.3249" stroke="#A03A45" stroke-width="1.85364" stroke-miterlimit="10"/>
<path d="M49.2695 82.6094C49.2695 82.6094 52.3177 83.1037 52.4001 86.1519" stroke="#A03A45" stroke-width="1.85364" stroke-miterlimit="10"/>
</svg>
