<svg width="16" height="17" viewBox="0 0 16 17" fill="none" xmlns="http://www.w3.org/2000/svg">
<path d="M4.6276 4.29689C4.62743 4.65051 4.48678 4.98958 4.23661 5.2395C3.98643 5.48943 3.64723 5.62973 3.2936 5.62956C2.93998 5.62938 2.60091 5.48874 2.35099 5.23856C2.10107 4.98839 1.96076 4.64918 1.96094 4.29556C1.96111 3.94194 2.10176 3.60287 2.35193 3.35294C2.60211 3.10302 2.94132 2.96271 3.29494 2.96289C3.64856 2.96307 3.98763 3.10371 4.23755 3.35389C4.48747 3.60406 4.62778 3.94327 4.6276 4.29689ZM4.6676 6.61689H2.00094V14.9636H4.6676V6.61689ZM8.88094 6.61689H6.2276V14.9636H8.85427V10.5836C8.85427 8.14356 12.0343 7.91689 12.0343 10.5836V14.9636H14.6676V9.67689C14.6676 5.56356 9.96094 5.71689 8.85427 7.73689L8.88094 6.61689Z" fill="white"/>
</svg>
