<svg width="668" height="229" viewBox="0 0 668 229" fill="none" xmlns="http://www.w3.org/2000/svg">
<path d="M401.948 277C386.091 247.003 223.553 183.039 144.266 154.807C137.364 148.631 127.702 144.131 144.266 175.539C160.829 206.948 151.167 249.797 144.266 267.295H-11.6652C-13.4271 260.09 -15.8938 245.326 -11.6652 243.915C-7.43652 242.503 0.0810595 231.269 3.31127 225.828C-1.68087 223.77 -11.6652 176.951 -11.6652 6.14508C161.004 -15.9115 264.958 27.7605 297.554 37.4654C330.15 47.1703 531.01 158.777 580.344 189.215C619.811 213.565 655.226 257.884 668 277H401.948Z" fill="#8ADD8F"/>
</svg>
