<svg width="64" height="64" viewBox="0 0 64 64" fill="none" xmlns="http://www.w3.org/2000/svg">
<path d="M29.3333 8H34.6667C36.1395 8 37.3333 9.19392 37.3333 10.6667V12.1834C37.3333 13.3242 38.0989 14.3153 39.1525 14.7527C40.2067 15.1903 41.4339 15.0236 42.2408 14.2166L43.3136 13.1438C44.3549 12.1023 46.0435 12.1023 47.0848 13.1438L50.856 16.915C51.8976 17.9564 51.8973 19.6448 50.856 20.6862L49.7835 21.7589C48.9763 22.5659 48.8096 23.7933 49.2472 24.8473C49.6845 25.901 50.6757 26.6667 51.8168 26.6667H53.3333C54.8061 26.6667 56 27.8605 56 29.3333V34.6667C56 36.1395 54.8061 37.3333 53.3333 37.3333H51.8165C50.6757 37.3333 49.6848 38.0989 49.2472 39.1525C48.8096 40.2067 48.9763 41.4339 49.7835 42.2408L50.856 43.3136C51.8976 44.3549 51.8976 46.0435 50.856 47.0848L47.0848 50.856C46.0435 51.8976 44.3549 51.8976 43.3136 50.856L42.2408 49.7835C41.4339 48.9763 40.2067 48.8096 39.1525 49.2472C38.0989 49.6848 37.3333 50.6757 37.3333 51.8165V53.3333C37.3333 54.8061 36.1395 56 34.6667 56H29.3333C27.8605 56 26.6667 54.8061 26.6667 53.3333V51.8168C26.6667 50.6757 25.901 49.6845 24.8473 49.2472C23.7933 48.8096 22.5659 48.9763 21.7589 49.7835L20.6862 50.856C19.6448 51.8976 17.9563 51.8976 16.915 50.856L13.1437 47.0848C12.1023 46.0435 12.1023 44.3549 13.1437 43.3136L14.2166 42.2408C15.0236 41.4339 15.1903 40.2067 14.7527 39.1525C14.3153 38.0989 13.3242 37.3333 12.1834 37.3333H10.6667C9.19392 37.3333 8 36.1395 8 34.6667V29.3333C8 27.8605 9.19392 26.6667 10.6667 26.6667H12.1834C13.3242 26.6667 14.3153 25.901 14.7528 24.8474C15.1904 23.7933 15.0236 22.5661 14.2166 21.7591L13.1438 20.6862C12.1023 19.6448 12.1023 17.9564 13.1438 16.915L16.915 13.1438C17.9564 12.1024 19.6448 12.1024 20.6862 13.1438L21.7591 14.2166C22.5661 15.0236 23.7933 15.1904 24.8474 14.7528C25.901 14.3153 26.6667 13.3242 26.6667 12.1834V10.6667C26.6667 9.19392 27.8605 8 29.3333 8Z" stroke="#252C3A" stroke-width="3"/>
<path d="M37.3327 32.0003C37.3327 34.9459 34.9449 37.3337 31.9993 37.3337C29.0537 37.3337 26.666 34.9459 26.666 32.0003C26.666 29.0547 29.0537 26.667 31.9993 26.667C34.9449 26.667 37.3327 29.0547 37.3327 32.0003Z" stroke="#252C3A" stroke-width="3"/>
<rect width="42.8573" height="56.5936" rx="21.4286" transform="matrix(0.190767 0.981635 0.981635 -0.190767 -1.38672 22.6328)" fill="#4130BA" fill-opacity="0.3"/>
</svg>
