<svg width="287" height="6" viewBox="0 0 287 6" fill="none" xmlns="http://www.w3.org/2000/svg">
<path d="M286.861 2.11597C286.775 2.00885 286.668 1.91961 286.547 1.85338C286.507 1.83054 286.465 1.81102 286.422 1.79502C286.365 1.77467 286.308 1.75714 286.249 1.7425C286.107 1.70749 286 1.68997 285.899 1.67246C285.133 1.57909 284.467 1.55575 283.772 1.5149L281.716 1.43904L277.617 1.33984L269.435 1.23479L253.079 1.13559L220.36 1.07723H187.646H134.335C116.564 1.07723 98.7933 1.07723 81.0286 1.12975H74.6297C74.9158 0.996617 75.2235 0.913679 75.5387 0.884663C81.9376 0.120195 76.8874 -0.107397 57.774 0.0443299C53.6151 0.0793437 49.2066 0.0443299 44.9585 0.0443299C35.1136 0.0151517 18.555 0.0443299 8.61512 0.0443299C7.11196 0.0443299 5.59096 0.0793345 4.05214 0.12602C3.27977 0.12602 2.50739 0.172712 1.6756 0.225233H1.36665L1.01016 0.27191C0.926083 0.28239 0.842745 0.297992 0.760628 0.318606H0.707158L0.606156 0.353618C0.538701 0.386873 0.473238 0.423894 0.41009 0.464496C0.328602 0.521463 0.256471 0.590346 0.1962 0.668747C0.071498 0.82784 0.00269917 1.02236 0.000133481 1.22312C-0.00372395 1.45828 0.0761311 1.68739 0.225909 1.87089C0.285465 1.93522 0.351108 1.99383 0.421966 2.04595L0.534853 2.11597L0.612094 2.15099L0.772514 2.2035C0.915534 2.23533 1.06036 2.25873 1.20623 2.27355C1.63995 2.32023 2.02614 2.33773 2.39451 2.35524C5.52561 2.48946 8.63889 2.51863 11.7284 2.5478L18.9947 2.61201L17.0697 2.65286L15.519 2.71122H13.6594V2.92129H13.5108L13.3326 2.97965C13.2512 3.01118 13.1751 3.05446 13.1068 3.10804C12.969 3.21135 12.8639 3.351 12.8038 3.5107C12.756 3.64541 12.7402 3.78908 12.7577 3.93071C12.7752 4.07233 12.8255 4.20813 12.9048 4.32768L13.2434 4.70116H13.9624V4.80037C13.9624 4.86456 13.9624 4.80037 13.9624 4.83538H13.9921H14.1762L14.61 4.80037L15.4952 4.75369H15.6854C60.3348 5.16802 104.978 4.87039 149.669 4.68365H160.013C158.991 4.80036 158.409 4.92875 158.332 5.07465C157.975 5.73407 175.687 5.73407 186.102 5.76325L211.103 5.82745H223.58C225.663 5.82745 227.751 5.82745 229.842 5.82745C230.888 5.82745 231.933 5.82745 232.991 5.77493C233.52 5.77493 234.043 5.73991 234.601 5.69906L235.053 5.65821L235.213 5.62904H235.344C235.451 5.48315 235.403 5.87412 236.045 5.01629C236.04 4.72253 235.998 4.43051 235.92 4.14678L253.786 4.11759L270.119 4.05341L278.294 3.97754L282.394 3.89585L284.455 3.81999C284.8 3.81999 285.144 3.78498 285.507 3.74996C285.725 3.73692 285.941 3.70764 286.154 3.66241H286.244L286.374 3.60989C286.516 3.55196 286.641 3.4596 286.737 3.34146C287.153 3.33563 286.98 1.83003 286.861 2.11597Z" fill="#E68832"/>
</svg>
