<svg width="16" height="17" viewBox="0 0 16 17" fill="none" xmlns="http://www.w3.org/2000/svg">
<path d="M14.974 4.96419C14.4607 5.19753 13.9073 5.35086 13.334 5.42419C13.9207 5.07086 14.374 4.51086 14.5873 3.83753C14.034 4.17086 13.4207 4.40419 12.774 4.53753C12.2473 3.96419 11.5073 3.63086 10.6673 3.63086C9.10068 3.63086 7.82068 4.91086 7.82068 6.49086C7.82068 6.71753 7.84734 6.93753 7.89401 7.14419C5.52068 7.02419 3.40734 5.88419 2.00068 4.15753C1.75401 4.57753 1.61401 5.07086 1.61401 5.59086C1.61401 6.58419 2.11401 7.46419 2.88734 7.96419C2.41401 7.96419 1.97401 7.83086 1.58734 7.63086V7.65086C1.58734 9.03753 2.57401 10.1975 3.88068 10.4575C3.46116 10.5723 3.02074 10.5883 2.59401 10.5042C2.77508 11.0725 3.1297 11.5698 3.60802 11.9261C4.08634 12.2825 4.66431 12.48 5.26068 12.4909C4.24976 13.2912 2.99667 13.7237 1.70734 13.7175C1.48068 13.7175 1.25401 13.7042 1.02734 13.6775C2.29401 14.4909 3.80068 14.9642 5.41401 14.9642C10.6673 14.9642 13.554 10.6042 13.554 6.82419C13.554 6.69753 13.554 6.57753 13.5473 6.45086C14.1073 6.05086 14.5873 5.54419 14.974 4.96419Z" fill="white"/>
</svg>
