<svg width="310" height="205" viewBox="0 0 310 205" fill="none" xmlns="http://www.w3.org/2000/svg">
<path d="M115.389 20.4255C135.404 -5.5594 174.596 -5.55938 194.611 20.4256L209.088 39.2196C217.141 49.6745 229.001 56.5217 242.081 58.2684L265.596 61.4083C298.107 65.7496 317.703 99.691 305.207 130.017L296.169 151.951C291.141 164.153 291.141 177.847 296.169 190.049L305.207 211.983C317.703 242.309 298.107 276.25 265.596 280.592L242.081 283.732C229.001 285.478 217.141 292.326 209.088 302.78L194.611 321.574C174.596 347.559 135.404 347.559 115.389 321.574L100.912 302.78C92.8592 292.326 80.9994 285.478 67.9187 283.732L44.4044 280.592C11.8931 276.25 -7.70293 242.309 4.79303 211.983L13.8309 190.049C18.8586 177.847 18.8586 164.153 13.8309 151.951L4.79301 130.017C-7.70294 99.691 11.8931 65.7496 44.4044 61.4083L67.9187 58.2684C80.9994 56.5217 92.8592 49.6745 100.912 39.2196L115.389 20.4255Z" fill="#F0B884"/>
</svg>
