<svg width="514" height="260" viewBox="0 0 514 260" fill="none" xmlns="http://www.w3.org/2000/svg">
<path d="M0.130065 270.5C0.530065 275.3 3.63006 293.5 5.13006 302L514.129 302.5V0C477.129 7 443.129 27.5 436.129 32.5C429.129 37.5 393.629 77 381.129 90.5C368.629 104 350.129 93 346.129 90.5C342.129 88 262.129 23.4996 249.129 12.9996C238.729 4.59958 231.796 3.16624 229.629 3.49958C207.796 4.49958 159.829 6.59958 142.629 6.99958C121.129 7.49958 123.129 11.4996 121.129 12.9996C119.129 14.4996 16.6289 116 9.62891 123C2.62891 130 3.62891 139.5 4.12891 142C4.62891 144.5 3.63006 196 2.13006 209C0.630065 222 -0.369935 264.5 0.130065 270.5Z" fill="#F0B884"/>
</svg>
