<svg width="124" height="130" viewBox="0 0 124 130" fill="none" xmlns="http://www.w3.org/2000/svg">
<path fill-rule="evenodd" clip-rule="evenodd" d="M52.8888 98.2685C51.8376 93.8103 51.9734 89.391 52.1296 84.9769C51.1998 85.8715 50.2394 86.7298 49.2328 87.5328C46.6074 89.6365 43.5725 91.2002 40.5412 92.7619L40.5411 92.762C38.6791 93.7213 36.8185 94.68 35.055 95.7626C34.5078 96.0982 34.1349 96.753 33.755 97.4201C33.3728 98.0913 32.9834 98.775 32.4023 99.1586C32.2817 99.2381 32.1521 99.325 32.0154 99.4168C31.0467 100.067 29.7171 100.96 28.6216 101.147C28.5799 101.154 28.5379 101.161 28.4957 101.168C27.9825 101.251 27.4468 101.337 27.2496 101.79C26.2434 104.145 10.8155 113.538 5.96761 106.654C1.76308 100.786 11.3531 92.7654 17.2997 87.7922C18.0803 87.1395 18.7981 86.5392 19.4137 86.0031L19.4139 86.0029L19.4143 86.0026C24.4511 81.6992 29.4878 77.3958 34.4912 73.059C33.2084 72.7016 31.9321 72.2878 30.6586 71.875C28.8797 71.2983 27.1063 70.7234 25.3286 70.3064C24.7886 70.1861 24.1527 70.3988 23.5008 70.617C22.8274 70.8422 22.137 71.0733 21.5173 70.9489C21.4297 70.9329 21.3369 70.9165 21.24 70.8993L21.2361 70.8986L21.2325 70.898C20.2173 70.7179 18.7497 70.4577 17.889 69.817L17.8193 69.7629C17.4427 69.4701 17.0391 69.1564 16.6085 69.358C14.5351 70.3371 -1.0147 66.8493 0.0524417 58.4971C0.990075 51.1088 12.6533 51.8547 19.4753 52.291C20.1957 52.3371 20.8622 52.3797 21.4563 52.4089C25.8363 52.651 30.1936 52.8817 34.5353 53.0874C34.1002 52.2867 33.6817 51.4726 33.2635 50.6592C32.3066 48.798 31.3514 46.94 30.2033 45.2521C29.8919 44.7835 29.2707 44.5143 28.6397 44.2408C28.0348 43.9787 27.421 43.7127 27.0628 43.2635C26.9878 43.1694 26.906 43.069 26.8195 42.9629C26.2031 42.2062 25.3559 41.1663 25.1419 40.1735C25.135 40.1366 25.1283 40.0993 25.1216 40.062C25.0388 39.6036 24.9527 39.1263 24.5016 39.0415C23.465 38.7049 20.538 35.7373 18.5561 32.0048C16.4523 28.4559 15.1412 24.0198 17.7329 20.7156C20.294 17.5032 24.4712 18.3598 28.7093 20.685C30.7216 21.9088 32.7644 23.4691 34.5938 24.9988C35.7184 25.9934 36.7358 26.9879 37.6385 27.8704C38.1797 28.3995 38.6796 28.8882 39.1368 29.3125C43.1066 33.1419 46.8398 37.1296 50.4385 41.1617C50.6063 38.6364 51.1588 36.1045 51.7111 33.5741C52.1464 31.5791 52.5816 29.5851 52.8278 27.5961C52.9042 27.0134 52.6207 26.3769 52.3303 25.7251C52.0413 25.0765 51.7456 24.4127 51.7912 23.7718C51.8057 23.6072 51.8186 23.4242 51.8324 23.2287C51.906 22.1884 52.0048 20.7926 52.4924 19.9169C52.5243 19.8571 52.5576 19.7972 52.591 19.7374C52.8135 19.3383 53.036 18.9393 52.7973 18.5402C51.6387 16.521 53.0718 0.0919687 61.426 0.000186368C69.108 -0.0571246 69.7018 13.1175 70.0218 20.2174C70.0435 20.6978 70.0639 21.1503 70.0851 21.569C70.4055 27.2869 70.6572 33.0047 70.8531 38.7226C72.0809 37.6888 73.3507 36.5804 74.326 35.6146C79.7836 30.3524 85.3023 25.1514 92.2845 21.4801C92.4403 21.404 92.8278 21.1428 93.3927 20.7621C96.9167 18.3866 107.345 11.3567 111.524 15.5755C116.615 20.7153 106.523 33.7484 104.785 35.0027C103.7 35.8032 102.568 36.5533 101.435 37.3031L101.435 37.3033C98.2396 39.4192 95.0489 41.532 92.9553 44.7622C91.2851 47.3003 89.3123 49.5058 87.2085 51.5681C93.4644 50.9801 99.7329 50.4172 106.31 51.7664C106.465 51.8066 106.913 51.8396 107.567 51.8878C111.398 52.1703 122.316 52.9755 123.201 58.8031C124.299 65.9621 110.182 70.1841 108.231 70.0923C106.974 70.0591 105.713 69.9517 104.454 69.8445L104.454 69.8444C101.07 69.5562 97.7018 69.2693 94.4796 70.4288C89.8402 72.1555 85.0606 72.3207 80.2744 72.4862C80.0623 72.4935 79.8502 72.5009 79.6381 72.5083C79.857 72.7661 80.1274 73.0939 80.4346 73.4662C81.6354 74.9217 83.398 77.0582 84.8411 78.3549C85.6241 79.1044 86.4063 79.8391 87.1831 80.5688C91.0043 84.158 94.6977 87.6272 97.7384 92.1529C97.831 92.3181 98.1981 92.696 98.7318 93.2454C99.7791 94.3235 101.468 96.0619 102.983 98.1493C105.391 100.995 107.587 104.666 106.154 107.817C104.66 111.091 100.3 111.488 95.8785 110.754C91.6709 109.775 87.5547 107.756 86.884 106.991C85.9151 106.036 85.0012 105.025 84.092 104.02C83.3417 103.19 82.5946 102.364 81.8226 101.576C80.2372 99.7402 78.4992 98.0881 76.2735 96.9867C74.8823 96.2351 73.5968 95.373 72.3879 94.4335C72.3097 100.742 71.8545 107.021 69.6583 113.229C69.6171 113.353 69.5464 113.66 69.4434 114.106L69.4433 114.107C68.6297 117.635 65.8044 129.889 59.6881 129.536C52.5229 129.138 50.9984 114.116 51.3338 112.219C51.5448 111.028 51.8217 109.838 52.0986 108.649L52.0986 108.649L52.0987 108.649C52.9024 105.198 53.7052 101.75 52.8888 98.2685Z" fill="#306CC7"/>
</svg>
