<svg width="272" height="271" viewBox="0 0 272 271" fill="none" xmlns="http://www.w3.org/2000/svg">
<g clip-path="url(#clip0_2158_8812)">
<path d="M244.179 215.984H226.227V216.12H244.179V215.984Z" fill="#EBEBEB"/>
<path d="M179.856 217.455H175.145V217.591H179.856V217.455Z" fill="#EBEBEB"/>
<path d="M225.685 210.951H215.283V211.087H225.685V210.951Z" fill="#EBEBEB"/>
<path d="M52.1782 211.861H28.7676V211.997H52.1782V211.861Z" fill="#EBEBEB"/>
<path d="M60.4364 211.861H57.0039V211.997H60.4364V211.861Z" fill="#EBEBEB"/>
<path d="M122.362 214.15H71.5898V214.286H122.362V214.15Z" fill="#EBEBEB"/>
<path d="M129.548 183.089H24.8887C23.183 183.089 21.7949 181.701 21.7949 179.995V32.8789C21.7949 31.1732 23.183 29.7852 24.8887 29.7852H129.548C131.253 29.7852 132.642 31.1732 132.642 32.8789V179.995C132.642 181.701 131.253 183.089 129.548 183.089ZM24.8887 29.9212C23.2572 29.9212 21.9304 31.248 21.9304 32.8794V179.996C21.9304 181.627 23.2572 182.954 24.8887 182.954H129.548C131.179 182.954 132.506 181.627 132.506 179.996V32.8789C132.506 31.248 131.179 29.9207 129.548 29.9207L24.8887 29.9212Z" fill="#EBEBEB"/>
<path d="M246.782 183.089H142.122C140.417 183.089 139.029 181.701 139.029 179.995V32.8789C139.029 31.1732 140.417 29.7852 142.122 29.7852H246.782C248.488 29.7852 249.876 31.1732 249.876 32.8789V179.995C249.876 181.701 248.488 183.089 246.782 183.089ZM142.122 29.9212C140.492 29.9212 139.165 31.248 139.165 32.8794V179.996C139.165 181.627 140.492 182.954 142.122 182.954H246.782C248.414 182.954 249.74 181.627 249.74 179.996V32.8789C249.74 31.248 248.414 29.9207 246.782 29.9207L142.122 29.9212Z" fill="#EBEBEB"/>
<path d="M271.334 207.261H0.333984V207.396H271.334V207.261Z" fill="#EBEBEB"/>
<path d="M217.136 139.366C213.741 138.317 211.506 137.626 208.852 136.806C208.247 136.619 208.407 135.72 209.041 135.754C212.136 135.917 214.67 136.052 218.587 136.26C216.332 132.338 215.001 129.891 213.482 126.821C213.204 126.259 213.949 125.755 214.367 126.225C216.405 128.517 218.11 130.38 220.843 133.312C221.495 129.516 222.25 126.023 223.196 122.511C223.366 121.878 224.31 122.043 224.252 122.695C224 125.544 223.908 128.419 223.976 131.196C224.104 131.241 224.109 131.243 224.237 131.288C226.531 128.673 228.939 126.16 231.448 123.75C231.931 123.286 232.653 123.952 232.238 124.478C229.803 127.566 227.549 130.795 225.498 134.152C228.774 132.917 232.07 131.718 235.376 130.557C235.994 130.34 236.39 131.211 235.82 131.534C232.389 133.478 228.997 135.467 225.609 137.527C229.183 138.666 231.514 139.408 234.338 140.307C234.942 140.5 234.776 141.396 234.143 141.357C231.249 141.182 228.845 141.037 225.173 140.816C226.946 142.893 228.178 144.317 229.612 145.928C230.031 146.399 229.437 147.082 228.912 146.734C227.109 145.537 225.522 144.475 223.213 142.925C223.447 144.77 223.651 146.197 223.895 147.598C224.007 148.239 223.101 148.491 222.864 147.885C222.264 146.351 221.716 144.824 221.019 142.801C218.412 155.275 219.088 167.367 221.609 179.768C220.359 179.542 219.735 179.429 218.485 179.203C216.659 166.49 217.132 155.106 219.95 142.608C218.384 144.223 217.233 145.443 216.136 146.67C215.702 147.156 214.938 146.592 215.274 146.034C216.011 144.813 216.812 143.569 217.881 141.962C215.092 142.574 213.181 142.996 211.076 143.471C210.455 143.61 210.148 142.747 210.717 142.464C212.681 141.488 214.483 140.621 217.136 139.366Z" fill="#EBEBEB"/>
<path d="M212.73 143.675C215.303 142.311 217.155 141.328 219.091 140.302C219.841 139.904 219.405 138.763 218.58 138.965C216.164 139.558 213.916 140.11 210.724 140.894C212.005 137.205 212.814 134.725 213.602 131.994C213.836 131.184 212.727 130.701 212.292 131.422C211 133.562 209.771 135.544 207.958 138.418C206.859 135.482 205.732 132.756 204.496 130.078C204.129 129.283 202.932 129.715 203.148 130.563C203.69 132.686 204.139 134.824 204.484 136.925C204.368 136.993 204.363 136.996 204.246 137.064C202.19 135.459 200.081 133.921 197.926 132.452C197.184 131.946 196.368 132.97 197.03 133.575C199.301 135.652 201.475 137.833 203.541 140.113C200.758 139.627 197.966 139.166 195.171 138.732C194.304 138.597 194.001 139.839 194.83 140.125C197.915 141.192 200.985 142.298 204.061 143.45C201.32 144.934 199.371 145.989 197.294 147.113C196.547 147.517 196.991 148.655 197.813 148.446C200.045 147.881 202.152 147.347 205.104 146.601C204.048 148.45 203.24 149.848 202.41 151.252C201.981 151.977 202.934 152.722 203.535 152.133C204.709 150.982 205.877 149.831 207.422 148.306C207.49 149.404 207.54 150.356 207.575 151.245C207.609 152.111 208.863 152.189 209.006 151.334C209.185 150.265 209.359 149.125 209.554 147.775C214.444 159.544 216.037 171.55 215.875 184.202C217.06 183.748 217.653 183.52 218.838 183.065C218.259 170.234 215.67 159.139 210.569 147.386C211.692 148.176 212.636 148.851 213.498 149.484C214.205 150.004 215.053 149.05 214.452 148.412C213.866 147.79 213.223 147.124 212.481 146.366C214.655 146.427 216.307 146.475 217.924 146.527C218.777 146.555 218.962 145.338 218.138 145.112C216.543 144.674 214.902 144.239 212.73 143.675Z" fill="#F0F0F0"/>
<path d="M223.964 150.511C222.041 149.492 220.669 148.765 219.219 147.995C218.688 147.714 218.996 146.906 219.579 147.049C221.386 147.492 223.047 147.899 225.425 148.484C224.475 145.746 223.881 143.921 223.296 141.886C223.131 141.313 223.915 140.97 224.223 141.481C225.187 143.08 226.093 144.541 227.442 146.68C228.262 144.486 229.106 142.453 230.034 140.453C230.294 139.892 231.142 140.198 230.988 140.797C230.572 142.408 230.23 144.032 229.969 145.625C230.043 145.668 230.046 145.67 230.121 145.714C231.682 144.494 233.286 143.327 234.926 142.215C235.451 141.858 236.024 142.589 235.554 143.017C233.846 144.57 232.212 146.205 230.662 147.916C232.746 147.552 234.836 147.208 236.928 146.884C237.541 146.789 237.758 147.667 237.172 147.869C234.869 148.665 232.578 149.488 230.282 150.349C232.328 151.456 233.768 152.235 235.323 153.076C235.851 153.363 235.537 154.167 234.955 154.02C233.284 153.597 231.726 153.202 229.522 152.645C230.317 154.036 230.919 155.077 231.544 156.134C231.848 156.648 231.175 157.177 230.748 156.759C229.864 155.893 228.995 155.036 227.832 153.888C227.779 154.75 227.741 155.488 227.715 156.178C227.693 156.791 226.805 156.849 226.703 156.244C226.564 155.422 226.43 154.548 226.279 153.501C222.714 162.08 221.553 170.832 221.671 180.056C220.807 179.724 220.375 179.558 219.511 179.226C219.933 169.872 221.82 161.784 225.539 153.217C224.661 153.834 223.934 154.355 223.269 154.845C222.77 155.213 222.17 154.539 222.594 154.086C223.052 153.598 223.556 153.075 224.145 152.473C222.504 152.519 221.269 152.556 220.049 152.595C219.445 152.615 219.315 151.754 219.898 151.593C221.099 151.261 222.324 150.937 223.964 150.511Z" fill="#F5F5F5"/>
<path d="M210.582 207.17H226.746C227.876 207.17 228.811 206.291 228.88 205.163L230.593 177.285C230.669 176.055 206.659 176.055 206.735 177.285L208.448 205.163C208.517 206.291 209.452 207.17 210.582 207.17Z" fill="#E0E0E0"/>
<path d="M209.6 142.754C209.173 142.401 208.954 141.855 209.018 141.304L209.382 138.215L208.553 139.652C208.062 140.502 206.938 140.731 206.154 140.139L204.533 138.916L206.015 141.308C206.439 141.993 206.301 142.884 205.689 143.408L203.773 145.05L205.651 144.622C206.474 144.434 207.305 144.904 207.567 145.706L208.214 147.679L208.627 145.58C208.813 144.637 209.768 144.058 210.691 144.329L211.953 144.7L209.6 142.754Z" fill="#E6E6E6"/>
<path d="M220.384 137.431C220.696 137.173 220.856 136.774 220.809 136.372L220.543 134.115L221.148 135.165C221.507 135.786 222.328 135.953 222.901 135.521L224.085 134.627L223.003 136.374C222.693 136.874 222.794 137.525 223.24 137.908L224.64 139.108L223.268 138.795C222.667 138.658 222.061 139.001 221.869 139.587L221.397 141.028L221.095 139.495C220.959 138.806 220.261 138.382 219.587 138.58L218.666 138.851L220.384 137.431Z" fill="#F5F5F5"/>
<path d="M226.771 150.365C226.995 150.179 227.109 149.894 227.075 149.605L226.885 147.985L227.319 148.739C227.577 149.184 228.166 149.304 228.577 148.994L229.426 148.353L228.65 149.606C228.428 149.965 228.5 150.433 228.821 150.707L229.824 151.568L228.84 151.344C228.409 151.245 227.973 151.492 227.836 151.912L227.497 152.946L227.28 151.845C227.183 151.351 226.682 151.047 226.198 151.19L225.537 151.384L226.771 150.365Z" fill="#E6E6E6"/>
<path d="M208.808 77.716H194.625C194.23 77.716 193.91 77.3962 193.91 77.0011V74.2413C193.91 73.8467 194.23 73.5264 194.625 73.5264H208.808C209.203 73.5264 209.523 73.8467 209.523 74.2413V77.0011C209.523 77.3962 209.203 77.716 208.808 77.716Z" fill="#F5F5F5"/>
<path d="M204.039 82.9084H189.856C189.461 82.9084 189.141 82.5886 189.141 82.1935V79.4336C189.141 79.0385 189.461 78.7188 189.856 78.7188H204.039C204.434 78.7188 204.754 79.0385 204.754 79.4336V82.1935C204.754 82.5881 204.434 82.9084 204.039 82.9084Z" fill="#F5F5F5"/>
<path d="M220.38 82.9084H206.197C205.803 82.9084 205.482 82.5886 205.482 82.1935V79.4336C205.482 79.0385 205.803 78.7188 206.197 78.7188H220.38C220.775 78.7188 221.095 79.0385 221.095 79.4336V82.1935C221.095 82.5881 220.775 82.9084 220.38 82.9084Z" fill="#F0F0F0"/>
<path d="M66.1151 106.885H50.9825C50.5874 106.885 50.2676 106.565 50.2676 106.17V103.155C50.2676 102.761 50.5874 102.44 50.9825 102.44H66.1151C66.5102 102.44 66.83 102.761 66.83 103.155V106.17C66.83 106.565 66.5097 106.885 66.1151 106.885Z" fill="#F5F5F5"/>
<path d="M66.1151 117.911H50.9825C50.5874 117.911 50.2676 117.591 50.2676 117.196V114.182C50.2676 113.787 50.5874 113.467 50.9825 113.467H66.1151C66.5102 113.467 66.83 113.787 66.83 114.182V117.196C66.83 117.591 66.5097 117.911 66.1151 117.911Z" fill="#F5F5F5"/>
<path d="M61.0585 112.393H45.9258C45.5313 112.393 45.2109 112.072 45.2109 111.678V108.663C45.2109 108.268 45.5313 107.948 45.9258 107.948H61.0585C61.4536 107.948 61.7734 108.268 61.7734 108.663V111.678C61.7734 112.072 61.4531 112.393 61.0585 112.393Z" fill="#F5F5F5"/>
<path d="M78.3925 112.393H63.2598C62.8647 112.393 62.5449 112.072 62.5449 111.678V108.663C62.5449 108.268 62.8647 107.948 63.2598 107.948H78.3925C78.7876 107.948 79.1074 108.268 79.1074 108.663V111.678C79.1074 112.072 78.7876 112.393 78.3925 112.393Z" fill="#F0F0F0"/>
<path d="M206.531 108.911H222.204C222.599 108.911 222.919 109.231 222.919 109.626V112.786C222.919 113.181 222.599 113.501 222.204 113.501H206.531C206.137 113.501 205.816 113.181 205.816 112.786V109.626C205.816 109.231 206.136 108.911 206.531 108.911Z" fill="#F5F5F5"/>
<path d="M211.752 103.224H227.425C227.82 103.224 228.14 103.543 228.14 103.939V107.098C228.14 107.493 227.82 107.813 227.425 107.813H211.752C211.357 107.813 211.037 107.493 211.037 107.098V103.939C211.037 103.543 211.357 103.224 211.752 103.224Z" fill="#F5F5F5"/>
<path d="M193.852 103.224H209.525C209.919 103.224 210.24 103.543 210.24 103.939V107.098C210.24 107.493 209.919 107.813 209.525 107.813H193.852C193.457 107.813 193.137 107.493 193.137 107.098V103.939C193.137 103.543 193.457 103.224 193.852 103.224Z" fill="#F0F0F0"/>
<path d="M45.1934 85.9824H61.758C62.1531 85.9824 62.4729 86.3022 62.4729 86.6973V90.0962C62.4729 90.4913 62.1531 90.8111 61.758 90.8111H45.1934C44.7983 90.8111 44.4785 90.4913 44.4785 90.0962V86.6973C44.4785 86.3027 44.7988 85.9824 45.1934 85.9824Z" fill="#F5F5F5"/>
<path d="M53.6016 79.999H70.1662C70.5608 79.999 70.8811 80.3188 70.8811 80.7139V84.1128C70.8811 84.5074 70.5608 84.8277 70.1662 84.8277H53.6016C53.2065 84.8277 52.8867 84.5074 52.8867 84.1128V80.7139C52.8867 80.3193 53.2065 79.999 53.6016 79.999Z" fill="#F5F5F5"/>
<path d="M34.7657 79.999H51.3303C51.7254 79.999 52.0452 80.3188 52.0452 80.7139V84.1128C52.0452 84.5074 51.7254 84.8277 51.3303 84.8277H34.7657C34.3706 84.8277 34.0508 84.5074 34.0508 84.1128V80.7139C34.0508 80.3193 34.3711 79.999 34.7657 79.999Z" fill="#F0F0F0"/>
<path d="M79.4661 33.4502H78.7344V55.14H79.4661V33.4502Z" fill="#E6E6E6"/>
<path d="M55.9238 67.1925L79.0997 53.1855L102.276 67.1925H55.9238Z" fill="#F0F0F0"/>
<path d="M80.6996 67.1925L79.0996 53.1855L89.5179 67.1925H80.6996Z" fill="#F5F5F5"/>
<path d="M192.933 33.4502H192.201V55.14H192.933V33.4502Z" fill="#E6E6E6"/>
<path d="M169.391 67.1925L192.567 53.1855L215.743 67.1925H169.391Z" fill="#F0F0F0"/>
<path d="M194.166 67.1925L192.566 53.1855L202.984 67.1925H194.166Z" fill="#F5F5F5"/>
<path d="M133.221 229.652C191.259 229.652 238.308 226.904 238.308 223.515C238.308 220.126 191.259 217.378 133.221 217.378C75.1822 217.378 28.1328 220.126 28.1328 223.515C28.1328 226.904 75.1822 229.652 133.221 229.652Z" fill="#F5F5F5"/>
<path d="M103.247 78.4537H100.537V75.7437C100.537 74.9952 101.144 74.3887 101.892 74.3887C102.641 74.3887 103.247 74.9952 103.247 75.7437V78.4537Z" fill="#263238"/>
<path d="M171.132 78.4537H168.422V75.7437C168.422 74.9952 169.028 74.3887 169.777 74.3887C170.525 74.3887 171.132 74.9952 171.132 75.7437V78.4537Z" fill="#263238"/>
<g opacity="0.5">
<path d="M103.247 78.4537H100.537V75.7437C100.537 74.9952 101.144 74.3887 101.892 74.3887C102.641 74.3887 103.247 74.9952 103.247 75.7437V78.4537Z" fill="white"/>
<path d="M171.132 78.4537H168.422V75.7437C168.422 74.9952 169.028 74.3887 169.777 74.3887C170.525 74.3887 171.132 74.9952 171.132 75.7437V78.4537Z" fill="white"/>
</g>
<path d="M179.513 129.552H92.1581C90.4687 129.552 89.0996 128.182 89.0996 126.493V81.2118C89.0996 79.5224 90.4692 78.1533 92.1581 78.1533H179.513C181.202 78.1533 182.571 79.523 182.571 81.2118V126.493C182.571 128.182 181.202 129.552 179.513 129.552Z" fill="#407BFF"/>
<path opacity="0.8" d="M179.513 129.552H92.1581C90.4687 129.552 89.0996 128.182 89.0996 126.493V81.2118C89.0996 79.5224 90.4692 78.1533 92.1581 78.1533H179.513C181.202 78.1533 182.571 79.523 182.571 81.2118V126.493C182.571 128.182 181.202 129.552 179.513 129.552Z" fill="white"/>
<path d="M179.512 130.907H92.1576C89.7241 130.907 87.7441 128.927 87.7441 126.493V81.2114C87.7441 78.7778 89.7241 76.7979 92.1576 76.7979H179.512C181.946 76.7979 183.926 78.7778 183.926 81.2114V126.493C183.925 128.927 181.946 130.907 179.512 130.907ZM92.1576 79.5084C91.2184 79.5084 90.4541 80.2726 90.4541 81.2119V126.494C90.4541 127.433 91.2184 128.197 92.1576 128.197H179.512C180.452 128.197 181.216 127.433 181.216 126.494V81.2119C181.216 80.2726 180.452 79.5084 179.512 79.5084H92.1576Z" fill="#407BFF"/>
<g opacity="0.4">
<path d="M179.512 130.907H92.1576C89.7241 130.907 87.7441 128.927 87.7441 126.493V81.2114C87.7441 78.7778 89.7241 76.7979 92.1576 76.7979H179.512C181.946 76.7979 183.926 78.7778 183.926 81.2114V126.493C183.925 128.927 181.946 130.907 179.512 130.907ZM92.1576 79.5084C91.2184 79.5084 90.4541 80.2726 90.4541 81.2119V126.494C90.4541 127.433 91.2184 128.197 92.1576 128.197H179.512C180.452 128.197 181.216 127.433 181.216 126.494V81.2119C181.216 80.2726 180.452 79.5084 179.512 79.5084H92.1576Z" fill="white"/>
</g>
<path d="M118.155 88.4126C121.649 88.5725 125.935 90.7183 126.813 94.4462C127.869 98.9339 121.93 100.76 118.588 100.866C115.407 100.966 109.994 99.832 109.437 95.9659C108.806 91.5855 115.095 90.6527 118.155 90.5806C118.416 90.5747 118.418 90.1682 118.155 90.1741C114.968 90.2489 108.965 91.1503 108.953 95.4586C108.941 99.9296 115.173 101.375 118.588 101.272C121.968 101.171 127.552 99.4998 127.339 95.1952C127.122 90.8272 121.95 88.1796 118.155 88.0061C117.893 87.9942 117.894 88.4007 118.155 88.4126Z" fill="#263238"/>
<path d="M107.451 111.777C107.49 112.93 107.61 114.104 107.571 115.256C107.56 115.596 107.95 115.393 107.367 115.38C106.817 115.368 106.258 115.418 105.709 115.437C104.295 115.486 102.88 115.535 101.466 115.584C100.927 115.602 100.343 115.561 99.8079 115.641C99.2226 115.728 99.616 115.782 99.5841 115.611C99.3543 114.393 99.4936 112.99 99.4507 111.749C99.4442 111.565 99.3738 111.273 99.428 111.097C99.5093 110.833 99.1077 111.269 99.2919 111.184C99.5727 111.055 100.154 111.154 100.47 111.143C102.852 111.061 105.234 110.979 107.617 110.897C107.878 110.888 107.879 110.481 107.617 110.49C104.819 110.587 102.02 110.684 99.2209 110.78C99.1142 110.784 99.0139 110.87 99.0177 110.984C99.0741 112.609 99.1299 114.233 99.1862 115.859C99.19 115.966 99.2762 116.066 99.3895 116.062C102.188 115.966 104.987 115.869 107.786 115.772C107.892 115.768 107.993 115.682 107.989 115.569C107.945 114.305 107.902 113.041 107.858 111.777C107.848 111.516 107.441 111.515 107.451 111.777Z" fill="#263238"/>
<path d="M127.967 112.113C128.021 113.703 128.354 115.499 128.138 117.069C128.053 117.685 128.573 117.176 127.76 117.331C127.014 117.474 126.154 117.386 125.398 117.412C123.384 117.482 121.369 117.552 119.354 117.621C118.583 117.648 117.765 117.753 116.992 117.702C116.134 117.646 116.755 117.971 116.587 117.574C116.007 116.205 116.449 113.573 116.397 112.072C116.378 111.514 116.476 111.047 116.257 111.182C116.58 110.984 117.54 111.137 117.935 111.124C121.329 111.007 124.722 110.889 128.116 110.772C128.377 110.763 128.379 110.356 128.116 110.365C124.13 110.503 120.143 110.641 116.156 110.778C116.05 110.782 115.949 110.868 115.953 110.982C116.033 113.297 116.113 115.611 116.193 117.926C116.197 118.033 116.283 118.133 116.396 118.13C120.382 117.992 124.369 117.854 128.356 117.717C128.463 117.713 128.563 117.627 128.559 117.513C128.497 115.713 128.434 113.912 128.373 112.112C128.364 111.852 127.957 111.851 127.967 112.113Z" fill="#263238"/>
<path d="M173.117 89.1267C173.152 90.1651 173.304 91.2632 173.226 92.2974C173.151 93.2941 173.666 92.5532 172.945 92.8199C171.39 93.3955 168.762 92.9646 167.095 93.022C164.543 93.1104 161.992 93.1982 159.44 93.2865C158.569 93.3163 157.692 93.3819 156.82 93.377C156.671 93.3765 156.291 93.4735 156.164 93.3998C155.766 93.17 156.445 93.8735 156.169 93.3331C155.794 92.5976 156.086 90.9158 156.057 90.0763C156.05 89.8681 155.871 88.8692 156.009 88.6953C155.903 88.8286 155.812 88.9619 156.134 88.8145C157.457 88.2069 160.227 88.673 161.649 88.6237C165.526 88.4898 169.404 88.356 173.281 88.2221C173.542 88.2129 173.543 87.8064 173.281 87.8156C167.455 88.0167 161.629 88.2183 155.803 88.4194C155.696 88.4232 155.596 88.5093 155.6 88.6226C155.657 90.2849 155.715 91.9473 155.772 93.6096C155.776 93.7163 155.862 93.8166 155.975 93.8128C161.801 93.6117 167.628 93.4106 173.454 93.209C173.561 93.2052 173.661 93.119 173.657 93.0058C173.613 91.7131 173.568 90.4199 173.523 89.1267C173.514 88.866 173.108 88.8649 173.117 89.1267Z" fill="#263238"/>
<path d="M176.355 95.7324C168.603 95.7335 160.851 95.734 153.099 95.7351C152.837 95.7351 152.837 96.1416 153.099 96.1416C160.851 96.1405 168.603 96.1395 176.355 96.1389C176.617 96.1389 176.617 95.7324 176.355 95.7324Z" fill="#263238"/>
<path d="M174.307 100.233C170.431 100.234 166.555 100.235 162.679 100.236C162.417 100.236 162.417 100.643 162.679 100.643C166.555 100.642 170.431 100.641 174.307 100.64C174.569 100.64 174.569 100.233 174.307 100.233Z" fill="#263238"/>
<path d="M171.135 102.028C168.316 102.029 165.498 102.03 162.679 102.031C162.417 102.031 162.417 102.438 162.679 102.438C165.497 102.436 168.316 102.436 171.135 102.435C171.396 102.435 171.396 102.028 171.135 102.028Z" fill="#263238"/>
<path d="M125.379 94.7188C121.503 94.7198 117.627 94.7204 113.751 94.7215C113.49 94.7215 113.489 95.128 113.751 95.128C117.627 95.1269 121.503 95.1263 125.379 95.1252C125.641 95.1252 125.641 94.7188 125.379 94.7188Z" fill="#263238"/>
<path d="M122.207 96.5146C119.388 96.5157 116.57 96.5163 113.751 96.5174C113.49 96.5174 113.489 96.9239 113.751 96.9239C116.569 96.9228 119.388 96.9222 122.207 96.9211C122.468 96.9211 122.468 96.5146 122.207 96.5146Z" fill="#263238"/>
<path d="M174.239 106.84C170.363 106.841 166.487 106.842 162.61 106.843C162.349 106.843 162.349 107.249 162.61 107.249C166.486 107.248 170.363 107.247 174.239 107.246C174.501 107.246 174.501 106.84 174.239 106.84Z" fill="#263238"/>
<path d="M168.424 115.654C166.486 115.655 164.549 115.656 162.61 115.657C162.349 115.657 162.349 116.064 162.61 116.064C164.549 116.062 166.486 116.062 168.424 116.061C168.686 116.061 168.686 115.654 168.424 115.654Z" fill="#263238"/>
<path d="M106.157 113.447C104.219 113.448 102.28 113.449 100.343 113.45C100.081 113.45 100.081 113.856 100.343 113.856C102.281 113.855 104.219 113.855 106.157 113.854C106.418 113.854 106.419 113.447 106.157 113.447Z" fill="#263238"/>
<path d="M125.515 113.548C123.216 113.729 120.916 113.911 118.617 114.092C118.358 114.113 118.356 114.519 118.617 114.499C120.916 114.317 123.216 114.136 125.515 113.954C125.774 113.934 125.776 113.527 125.515 113.548Z" fill="#263238"/>
<path d="M141.914 104.297C139.795 104.298 137.676 104.299 135.558 104.3C135.296 104.3 135.296 104.706 135.558 104.706C137.676 104.705 139.795 104.704 141.914 104.703C142.175 104.703 142.175 104.297 141.914 104.297Z" fill="#263238"/>
<path d="M174.239 114.045C170.363 114.046 166.487 114.047 162.61 114.048C162.349 114.048 162.349 114.454 162.61 114.454C166.486 114.453 170.363 114.453 174.239 114.451C174.501 114.451 174.501 114.045 174.239 114.045Z" fill="#263238"/>
<path d="M133.625 102.437C133.57 104.014 133.516 105.591 133.461 107.168C133.457 107.281 133.558 107.367 133.664 107.371C137.156 107.492 140.647 107.612 144.139 107.733C144.252 107.737 144.338 107.637 144.342 107.53C144.412 105.502 144.482 103.475 144.553 101.448C144.556 101.335 144.456 101.248 144.349 101.244C140.858 101.124 137.366 101.003 133.875 100.883C133.613 100.874 133.613 101.28 133.875 101.289C136.847 101.392 139.819 101.495 142.792 101.597C143.129 101.609 143.923 101.475 144.207 101.646C144.496 101.82 144.006 101.268 144.141 101.589C144.198 101.725 144.143 102.091 144.118 102.247C143.878 103.81 144.414 105.718 143.947 107.221C143.832 107.589 144.351 107.278 143.617 107.308C142.994 107.334 142.353 107.264 141.73 107.243C139.905 107.18 138.08 107.117 136.255 107.054C135.566 107.03 134.876 106.997 134.186 106.983C133.456 106.967 133.922 107.188 133.881 106.778C133.741 105.378 133.982 103.847 134.031 102.437C134.04 102.176 133.634 102.176 133.625 102.437Z" fill="#263238"/>
<path d="M110.805 101.312C108.065 102.951 105.778 105.641 104.75 108.66C104.666 108.908 105.058 109.015 105.142 108.768C106.133 105.855 108.365 103.246 111.011 101.663C111.235 101.529 111.03 101.178 110.805 101.312Z" fill="#263238"/>
<path d="M103.849 106.602C104.03 107.656 104.211 108.71 104.391 109.763C104.419 109.928 104.626 109.94 104.731 109.853C105.604 109.127 106.477 108.401 107.35 107.675C107.552 107.507 107.263 107.221 107.063 107.388C106.19 108.113 105.317 108.839 104.444 109.565C104.557 109.595 104.67 109.625 104.784 109.655C104.603 108.601 104.422 107.547 104.242 106.493C104.197 106.236 103.805 106.345 103.849 106.602Z" fill="#263238"/>
<path d="M125.446 99.8699C127.811 100.811 129.962 102.653 131.151 104.896C131.274 105.127 131.625 104.922 131.502 104.691C130.261 102.349 128.017 100.458 125.555 99.478C125.312 99.3815 125.206 99.7745 125.446 99.8699Z" fill="#263238"/>
<path d="M131.575 102.902C131.566 103.787 131.557 104.673 131.549 105.558C131.65 105.499 131.752 105.441 131.854 105.382C131.045 104.904 130.235 104.426 129.426 103.948C129.2 103.815 128.996 104.166 129.221 104.299C130.03 104.777 130.84 105.255 131.649 105.733C131.783 105.812 131.953 105.711 131.954 105.558C131.963 104.673 131.972 103.787 131.98 102.902C131.984 102.641 131.577 102.641 131.575 102.902Z" fill="#263238"/>
<path d="M120.708 103.272C121.064 104.945 121.329 106.639 121.566 108.332C121.603 108.59 121.994 108.48 121.958 108.224C121.721 106.531 121.456 104.837 121.1 103.164C121.046 102.908 120.654 103.016 120.708 103.272Z" fill="#263238"/>
<path d="M122.35 106.991C122.129 107.618 121.907 108.245 121.685 108.873C121.798 108.843 121.911 108.813 122.025 108.783C121.566 108.246 121.107 107.709 120.647 107.172C120.477 106.972 120.191 107.261 120.36 107.459C120.819 107.996 121.278 108.533 121.737 109.07C121.844 109.196 122.03 109.113 122.077 108.981C122.299 108.354 122.521 107.726 122.743 107.099C122.83 106.852 122.437 106.745 122.35 106.991Z" fill="#263238"/>
<path d="M158.627 102.031C157.43 102.031 156.233 102.031 155.035 102.031C155.103 102.098 155.171 102.166 155.239 102.234C155.239 101.037 155.239 99.84 155.239 98.6427C155.171 98.7105 155.103 98.7782 155.035 98.846C156.233 98.846 157.429 98.846 158.627 98.846C158.559 98.7782 158.491 98.7105 158.423 98.6427C158.423 99.8394 158.423 101.037 158.423 102.234C158.423 102.496 158.83 102.496 158.83 102.234C158.83 101.037 158.83 99.84 158.83 98.6427C158.83 98.5327 158.737 98.4395 158.627 98.4395C157.43 98.4395 156.233 98.4395 155.035 98.4395C154.925 98.4395 154.832 98.5327 154.832 98.6427C154.832 99.8394 154.832 101.037 154.832 102.234C154.832 102.344 154.925 102.437 155.035 102.437C156.233 102.437 157.429 102.437 158.627 102.437C158.888 102.437 158.888 102.031 158.627 102.031Z" fill="#263238"/>
<path d="M158.627 108.637C157.43 108.637 156.233 108.637 155.035 108.637C155.103 108.705 155.171 108.773 155.239 108.84C155.239 107.644 155.239 106.446 155.239 105.249C155.171 105.317 155.103 105.385 155.035 105.452C156.233 105.452 157.429 105.452 158.627 105.452C158.559 105.385 158.491 105.317 158.423 105.249C158.423 106.446 158.423 107.643 158.423 108.84C158.423 109.102 158.83 109.102 158.83 108.84C158.83 107.644 158.83 106.446 158.83 105.249C158.83 105.139 158.737 105.046 158.627 105.046C157.43 105.046 156.233 105.046 155.035 105.046C154.925 105.046 154.832 105.139 154.832 105.249C154.832 106.446 154.832 107.643 154.832 108.84C154.832 108.95 154.925 109.044 155.035 109.044C156.233 109.044 157.429 109.044 158.627 109.044C158.888 109.044 158.888 108.637 158.627 108.637Z" fill="#263238"/>
<path d="M158.627 115.244C157.43 115.244 156.233 115.244 155.035 115.244C155.103 115.311 155.171 115.379 155.239 115.447C155.239 114.25 155.239 113.053 155.239 111.856C155.171 111.923 155.103 111.991 155.035 112.059C156.233 112.059 157.429 112.059 158.627 112.059C158.559 111.991 158.491 111.923 158.423 111.856C158.423 113.052 158.423 114.25 158.423 115.447C158.423 115.709 158.83 115.709 158.83 115.447C158.83 114.25 158.83 113.053 158.83 111.856C158.83 111.746 158.737 111.652 158.627 111.652C157.43 111.652 156.233 111.652 155.035 111.652C154.925 111.652 154.832 111.746 154.832 111.856C154.832 113.052 154.832 114.25 154.832 115.447C154.832 115.557 154.925 115.65 155.035 115.65C156.233 115.65 157.429 115.65 158.627 115.65C158.888 115.65 158.888 115.244 158.627 115.244Z" fill="#263238"/>
<path d="M154.073 99.4046C154.967 99.8068 155.794 100.398 156.387 101.183C156.468 101.29 156.6 101.321 156.706 101.225C157.876 100.161 159.332 99.1076 160.917 98.8377C161.175 98.7938 161.065 98.4019 160.81 98.4458C159.146 98.7287 158.074 99.8306 156.712 100.682C156.268 100.96 156.675 100.807 156.528 100.7C156.247 100.496 156.022 100.167 155.742 99.945C155.296 99.5927 154.798 99.287 154.278 99.0534C154.041 98.9472 153.834 99.2973 154.073 99.4046Z" fill="#263238"/>
<path d="M154.073 106.321C154.967 106.723 155.794 107.314 156.387 108.099C156.468 108.206 156.6 108.237 156.706 108.141C157.876 107.077 159.332 106.024 160.917 105.754C161.175 105.71 161.065 105.318 160.81 105.362C159.146 105.645 158.074 106.747 156.712 107.598C156.268 107.876 156.675 107.723 156.528 107.616C156.247 107.412 156.022 107.083 155.742 106.861C155.296 106.509 154.798 106.203 154.278 105.969C154.041 105.863 153.834 106.213 154.073 106.321Z" fill="#263238"/>
<path d="M154.073 112.618C154.967 113.021 155.794 113.612 156.387 114.397C156.468 114.504 156.6 114.534 156.706 114.439C157.876 113.375 159.332 112.321 160.917 112.052C161.175 112.008 161.065 111.616 160.81 111.66C159.146 111.943 158.074 113.044 156.712 113.896C156.268 114.173 156.675 114.021 156.528 113.914C156.247 113.71 156.022 113.381 155.742 113.159C155.296 112.807 154.798 112.501 154.278 112.267C154.041 112.161 153.834 112.511 154.073 112.618Z" fill="#263238"/>
<g opacity="0.3">
<path d="M118.155 88.4126C121.649 88.5725 125.935 90.7183 126.813 94.4462C127.869 98.9339 121.93 100.76 118.588 100.866C115.407 100.966 109.994 99.832 109.437 95.9659C108.806 91.5855 115.095 90.6527 118.155 90.5806C118.416 90.5747 118.418 90.1682 118.155 90.1741C114.968 90.2489 108.965 91.1503 108.953 95.4586C108.941 99.9296 115.173 101.375 118.588 101.272C121.968 101.171 127.552 99.4998 127.339 95.1952C127.122 90.8272 121.95 88.1796 118.155 88.0061C117.893 87.9942 117.894 88.4007 118.155 88.4126Z" fill="white"/>
</g>
<g opacity="0.3">
<path d="M107.451 111.777C107.49 112.93 107.61 114.104 107.571 115.256C107.56 115.596 107.95 115.393 107.367 115.38C106.817 115.368 106.258 115.418 105.709 115.437C104.295 115.486 102.88 115.535 101.466 115.584C100.927 115.602 100.343 115.561 99.8079 115.641C99.2226 115.728 99.616 115.782 99.5841 115.611C99.3543 114.393 99.4936 112.99 99.4507 111.749C99.4442 111.565 99.3738 111.273 99.428 111.097C99.5093 110.833 99.1077 111.269 99.2919 111.184C99.5727 111.055 100.154 111.154 100.47 111.143C102.852 111.061 105.234 110.979 107.617 110.897C107.878 110.888 107.879 110.481 107.617 110.49C104.819 110.587 102.02 110.684 99.2209 110.78C99.1142 110.784 99.0139 110.87 99.0177 110.984C99.0741 112.609 99.1299 114.233 99.1862 115.859C99.19 115.966 99.2762 116.066 99.3895 116.062C102.188 115.966 104.987 115.869 107.786 115.772C107.892 115.768 107.993 115.682 107.989 115.569C107.945 114.305 107.902 113.041 107.858 111.777C107.848 111.516 107.441 111.515 107.451 111.777Z" fill="white"/>
</g>
<g opacity="0.3">
<path d="M127.967 112.113C128.021 113.703 128.354 115.499 128.138 117.069C128.053 117.685 128.573 117.176 127.76 117.331C127.014 117.474 126.154 117.386 125.398 117.412C123.384 117.482 121.369 117.552 119.354 117.621C118.583 117.648 117.765 117.753 116.992 117.702C116.134 117.646 116.755 117.971 116.587 117.574C116.007 116.205 116.449 113.573 116.397 112.072C116.378 111.514 116.476 111.047 116.257 111.182C116.58 110.984 117.54 111.137 117.935 111.124C121.329 111.007 124.722 110.889 128.116 110.772C128.377 110.763 128.379 110.356 128.116 110.365C124.13 110.503 120.143 110.641 116.156 110.778C116.05 110.782 115.949 110.868 115.953 110.982C116.033 113.297 116.113 115.611 116.193 117.926C116.197 118.033 116.283 118.133 116.396 118.13C120.382 117.992 124.369 117.854 128.356 117.717C128.463 117.713 128.563 117.627 128.559 117.513C128.497 115.713 128.434 113.912 128.373 112.112C128.364 111.852 127.957 111.851 127.967 112.113Z" fill="white"/>
</g>
<g opacity="0.3">
<path d="M173.117 89.1267C173.152 90.1651 173.304 91.2632 173.226 92.2974C173.151 93.2941 173.666 92.5532 172.945 92.8199C171.39 93.3955 168.762 92.9646 167.095 93.022C164.543 93.1104 161.992 93.1982 159.44 93.2865C158.569 93.3163 157.692 93.3819 156.82 93.377C156.671 93.3765 156.291 93.4735 156.164 93.3998C155.766 93.17 156.445 93.8735 156.169 93.3331C155.794 92.5976 156.086 90.9158 156.057 90.0763C156.05 89.8681 155.871 88.8692 156.009 88.6953C155.903 88.8286 155.812 88.9619 156.134 88.8145C157.457 88.2069 160.227 88.673 161.649 88.6237C165.526 88.4898 169.404 88.356 173.281 88.2221C173.542 88.2129 173.543 87.8064 173.281 87.8156C167.455 88.0167 161.629 88.2183 155.803 88.4194C155.696 88.4232 155.596 88.5093 155.6 88.6226C155.657 90.2849 155.715 91.9473 155.772 93.6096C155.776 93.7163 155.862 93.8166 155.975 93.8128C161.801 93.6117 167.628 93.4106 173.454 93.209C173.561 93.2052 173.661 93.119 173.657 93.0058C173.613 91.7131 173.568 90.4199 173.523 89.1267C173.514 88.866 173.108 88.8649 173.117 89.1267Z" fill="white"/>
</g>
<g opacity="0.3">
<path d="M176.355 95.7324C168.603 95.7335 160.851 95.734 153.099 95.7351C152.837 95.7351 152.837 96.1416 153.099 96.1416C160.851 96.1405 168.603 96.1395 176.355 96.1389C176.617 96.1389 176.617 95.7324 176.355 95.7324Z" fill="white"/>
</g>
<g opacity="0.3">
<path d="M174.307 100.233C170.431 100.234 166.555 100.235 162.679 100.236C162.417 100.236 162.417 100.643 162.679 100.643C166.555 100.642 170.431 100.641 174.307 100.64C174.569 100.64 174.569 100.233 174.307 100.233Z" fill="white"/>
</g>
<g opacity="0.3">
<path d="M171.135 102.028C168.316 102.029 165.498 102.03 162.679 102.031C162.417 102.031 162.417 102.438 162.679 102.438C165.497 102.436 168.316 102.436 171.135 102.435C171.396 102.435 171.396 102.028 171.135 102.028Z" fill="white"/>
</g>
<g opacity="0.3">
<path d="M125.379 94.7188C121.503 94.7198 117.627 94.7204 113.751 94.7215C113.49 94.7215 113.489 95.128 113.751 95.128C117.627 95.1269 121.503 95.1263 125.379 95.1252C125.641 95.1252 125.641 94.7188 125.379 94.7188Z" fill="white"/>
</g>
<g opacity="0.3">
<path d="M122.207 96.5146C119.388 96.5157 116.57 96.5163 113.751 96.5174C113.49 96.5174 113.489 96.9239 113.751 96.9239C116.569 96.9228 119.388 96.9222 122.207 96.9211C122.468 96.9211 122.468 96.5146 122.207 96.5146Z" fill="white"/>
</g>
<g opacity="0.3">
<path d="M174.239 106.84C170.363 106.841 166.487 106.842 162.61 106.843C162.349 106.843 162.349 107.249 162.61 107.249C166.486 107.248 170.363 107.247 174.239 107.246C174.501 107.246 174.501 106.84 174.239 106.84Z" fill="white"/>
</g>
<g opacity="0.3">
<path d="M168.424 115.654C166.486 115.655 164.549 115.656 162.61 115.657C162.349 115.657 162.349 116.064 162.61 116.064C164.549 116.062 166.486 116.062 168.424 116.061C168.686 116.061 168.686 115.654 168.424 115.654Z" fill="white"/>
</g>
<g opacity="0.3">
<path d="M106.157 113.447C104.219 113.448 102.28 113.449 100.343 113.45C100.081 113.45 100.081 113.856 100.343 113.856C102.281 113.855 104.219 113.855 106.157 113.854C106.418 113.854 106.419 113.447 106.157 113.447Z" fill="white"/>
</g>
<g opacity="0.3">
<path d="M125.515 113.548C123.216 113.729 120.916 113.911 118.617 114.092C118.358 114.113 118.356 114.519 118.617 114.499C120.916 114.317 123.216 114.136 125.515 113.954C125.774 113.934 125.776 113.527 125.515 113.548Z" fill="white"/>
</g>
<g opacity="0.3">
<path d="M141.914 104.297C139.795 104.298 137.676 104.299 135.558 104.3C135.296 104.3 135.296 104.706 135.558 104.706C137.676 104.705 139.795 104.704 141.914 104.703C142.175 104.703 142.175 104.297 141.914 104.297Z" fill="white"/>
</g>
<g opacity="0.3">
<path d="M174.239 114.045C170.363 114.046 166.487 114.047 162.61 114.048C162.349 114.048 162.349 114.454 162.61 114.454C166.486 114.453 170.363 114.453 174.239 114.451C174.501 114.451 174.501 114.045 174.239 114.045Z" fill="white"/>
</g>
<g opacity="0.3">
<path d="M133.625 102.437C133.57 104.014 133.516 105.591 133.461 107.168C133.457 107.281 133.558 107.367 133.664 107.371C137.156 107.492 140.647 107.612 144.139 107.733C144.252 107.737 144.338 107.637 144.342 107.53C144.412 105.502 144.482 103.475 144.553 101.448C144.556 101.335 144.456 101.248 144.349 101.244C140.858 101.124 137.366 101.003 133.875 100.883C133.613 100.874 133.613 101.28 133.875 101.289C136.847 101.392 139.819 101.495 142.792 101.597C143.129 101.609 143.923 101.475 144.207 101.646C144.496 101.82 144.006 101.268 144.141 101.589C144.198 101.725 144.143 102.091 144.118 102.247C143.878 103.81 144.414 105.718 143.947 107.221C143.832 107.589 144.351 107.278 143.617 107.308C142.994 107.334 142.353 107.264 141.73 107.243C139.905 107.18 138.08 107.117 136.255 107.054C135.566 107.03 134.876 106.997 134.186 106.983C133.456 106.967 133.922 107.188 133.881 106.778C133.741 105.378 133.982 103.847 134.031 102.437C134.04 102.176 133.634 102.176 133.625 102.437Z" fill="white"/>
</g>
<g opacity="0.3">
<path d="M110.805 101.312C108.065 102.951 105.778 105.641 104.75 108.66C104.666 108.908 105.058 109.015 105.142 108.768C106.133 105.855 108.365 103.246 111.011 101.663C111.235 101.529 111.03 101.178 110.805 101.312Z" fill="white"/>
</g>
<g opacity="0.3">
<path d="M103.849 106.602C104.03 107.656 104.211 108.71 104.391 109.763C104.419 109.928 104.626 109.94 104.731 109.853C105.604 109.127 106.477 108.401 107.35 107.675C107.552 107.507 107.263 107.221 107.063 107.388C106.19 108.113 105.317 108.839 104.444 109.565C104.557 109.595 104.67 109.625 104.784 109.655C104.603 108.601 104.422 107.547 104.242 106.493C104.197 106.236 103.805 106.345 103.849 106.602Z" fill="white"/>
</g>
<g opacity="0.3">
<path d="M125.446 99.8699C127.811 100.811 129.962 102.653 131.151 104.896C131.274 105.127 131.625 104.922 131.502 104.691C130.261 102.349 128.017 100.458 125.555 99.478C125.312 99.3815 125.206 99.7745 125.446 99.8699Z" fill="white"/>
</g>
<g opacity="0.3">
<path d="M131.575 102.902C131.566 103.787 131.557 104.673 131.549 105.558C131.65 105.499 131.752 105.441 131.854 105.382C131.045 104.904 130.235 104.426 129.426 103.948C129.2 103.815 128.996 104.166 129.221 104.299C130.03 104.777 130.84 105.255 131.649 105.733C131.783 105.812 131.953 105.711 131.954 105.558C131.963 104.673 131.972 103.787 131.98 102.902C131.984 102.641 131.577 102.641 131.575 102.902Z" fill="white"/>
</g>
<g opacity="0.3">
<path d="M120.708 103.272C121.064 104.945 121.329 106.639 121.566 108.332C121.603 108.59 121.994 108.48 121.958 108.224C121.721 106.531 121.456 104.837 121.1 103.164C121.046 102.908 120.654 103.016 120.708 103.272Z" fill="white"/>
</g>
<g opacity="0.3">
<path d="M122.35 106.991C122.129 107.618 121.907 108.245 121.685 108.873C121.798 108.843 121.911 108.813 122.025 108.783C121.566 108.246 121.107 107.709 120.647 107.172C120.477 106.972 120.191 107.261 120.36 107.459C120.819 107.996 121.278 108.533 121.737 109.07C121.844 109.196 122.03 109.113 122.077 108.981C122.299 108.354 122.521 107.726 122.743 107.099C122.83 106.852 122.437 106.745 122.35 106.991Z" fill="white"/>
</g>
<g opacity="0.3">
<path d="M158.627 102.031C157.43 102.031 156.233 102.031 155.035 102.031C155.103 102.098 155.171 102.166 155.239 102.234C155.239 101.037 155.239 99.84 155.239 98.6427C155.171 98.7105 155.103 98.7782 155.035 98.846C156.233 98.846 157.429 98.846 158.627 98.846C158.559 98.7782 158.491 98.7105 158.423 98.6427C158.423 99.8394 158.423 101.037 158.423 102.234C158.423 102.496 158.83 102.496 158.83 102.234C158.83 101.037 158.83 99.84 158.83 98.6427C158.83 98.5327 158.737 98.4395 158.627 98.4395C157.43 98.4395 156.233 98.4395 155.035 98.4395C154.925 98.4395 154.832 98.5327 154.832 98.6427C154.832 99.8394 154.832 101.037 154.832 102.234C154.832 102.344 154.925 102.437 155.035 102.437C156.233 102.437 157.429 102.437 158.627 102.437C158.888 102.437 158.888 102.031 158.627 102.031Z" fill="white"/>
</g>
<g opacity="0.3">
<path d="M158.627 108.637C157.43 108.637 156.233 108.637 155.035 108.637C155.103 108.705 155.171 108.773 155.239 108.84C155.239 107.644 155.239 106.446 155.239 105.249C155.171 105.317 155.103 105.385 155.035 105.452C156.233 105.452 157.429 105.452 158.627 105.452C158.559 105.385 158.491 105.317 158.423 105.249C158.423 106.446 158.423 107.643 158.423 108.84C158.423 109.102 158.83 109.102 158.83 108.84C158.83 107.644 158.83 106.446 158.83 105.249C158.83 105.139 158.737 105.046 158.627 105.046C157.43 105.046 156.233 105.046 155.035 105.046C154.925 105.046 154.832 105.139 154.832 105.249C154.832 106.446 154.832 107.643 154.832 108.84C154.832 108.95 154.925 109.044 155.035 109.044C156.233 109.044 157.429 109.044 158.627 109.044C158.888 109.044 158.888 108.637 158.627 108.637Z" fill="white"/>
</g>
<g opacity="0.3">
<path d="M158.627 115.244C157.43 115.244 156.233 115.244 155.035 115.244C155.103 115.311 155.171 115.379 155.239 115.447C155.239 114.25 155.239 113.053 155.239 111.856C155.171 111.923 155.103 111.991 155.035 112.059C156.233 112.059 157.429 112.059 158.627 112.059C158.559 111.991 158.491 111.923 158.423 111.856C158.423 113.052 158.423 114.25 158.423 115.447C158.423 115.709 158.83 115.709 158.83 115.447C158.83 114.25 158.83 113.053 158.83 111.856C158.83 111.746 158.737 111.652 158.627 111.652C157.43 111.652 156.233 111.652 155.035 111.652C154.925 111.652 154.832 111.746 154.832 111.856C154.832 113.052 154.832 114.25 154.832 115.447C154.832 115.557 154.925 115.65 155.035 115.65C156.233 115.65 157.429 115.65 158.627 115.65C158.888 115.65 158.888 115.244 158.627 115.244Z" fill="white"/>
</g>
<g opacity="0.3">
<path d="M154.073 99.4046C154.967 99.8068 155.794 100.398 156.387 101.183C156.468 101.29 156.6 101.321 156.706 101.225C157.876 100.161 159.332 99.1076 160.917 98.8377C161.175 98.7938 161.065 98.4019 160.81 98.4458C159.146 98.7287 158.074 99.8306 156.712 100.682C156.268 100.96 156.675 100.807 156.528 100.7C156.247 100.496 156.022 100.167 155.742 99.945C155.296 99.5927 154.798 99.287 154.278 99.0534C154.041 98.9472 153.834 99.2973 154.073 99.4046Z" fill="white"/>
</g>
<g opacity="0.3">
<path d="M154.073 106.321C154.967 106.723 155.794 107.314 156.387 108.099C156.468 108.206 156.6 108.237 156.706 108.141C157.876 107.077 159.332 106.024 160.917 105.754C161.175 105.71 161.065 105.318 160.81 105.362C159.146 105.645 158.074 106.747 156.712 107.598C156.268 107.876 156.675 107.723 156.528 107.616C156.247 107.412 156.022 107.083 155.742 106.861C155.296 106.509 154.798 106.203 154.278 105.969C154.041 105.863 153.834 106.213 154.073 106.321Z" fill="white"/>
</g>
<g opacity="0.3">
<path d="M154.073 112.618C154.967 113.021 155.794 113.612 156.387 114.397C156.468 114.504 156.6 114.534 156.706 114.439C157.876 113.375 159.332 112.321 160.917 112.052C161.175 112.008 161.065 111.616 160.81 111.66C159.146 111.943 158.074 113.044 156.712 113.896C156.268 114.173 156.675 114.021 156.528 113.914C156.247 113.71 156.022 113.381 155.742 113.159C155.296 112.807 154.798 112.501 154.278 112.267C154.041 112.161 153.834 112.511 154.073 112.618Z" fill="white"/>
</g>
<path d="M164.633 209.582C164.633 219.102 180.652 221.43 200.412 221.43C220.172 221.43 228.106 219.102 228.106 209.582C228.106 200.062 222.527 188.487 202.767 188.487C183.007 188.488 164.633 200.062 164.633 209.582Z" fill="#407BFF"/>
<path opacity="0.5" d="M164.633 209.582C164.633 219.102 180.652 221.43 200.412 221.43C220.172 221.43 228.106 219.102 228.106 209.582C228.106 200.062 222.527 188.487 202.767 188.487C183.007 188.488 164.633 200.062 164.633 209.582Z" fill="white"/>
<path d="M162.048 196.243C161.321 209.335 164.941 216.403 173.194 216.861C181.447 217.32 188.727 207.078 189.454 193.986C190.181 180.894 181.867 170.867 173.614 170.408C165.361 169.949 162.775 183.151 162.048 196.243Z" fill="#407BFF"/>
<path opacity="0.5" d="M162.048 196.243C161.321 209.335 164.941 216.403 173.194 216.861C181.447 217.32 188.727 207.078 189.454 193.986C190.181 180.894 181.867 170.867 173.614 170.408C165.361 169.949 162.775 183.151 162.048 196.243Z" fill="white"/>
<path opacity="0.1" d="M202.357 189.613C202.357 189.613 210.038 188.64 210.715 191.35C211.393 194.06 198.049 192.57 195.371 195.28C192.694 197.99 204.076 199.382 201.597 201.004C199.651 202.277 193.006 196.499 184.517 198.667C176.027 200.835 174.817 194.432 175.761 188.488C176.705 182.543 177.395 176.15 179.963 176.636C182.531 177.123 190.882 188.824 202.357 189.613Z" fill="black"/>
<path opacity="0.1" d="M178.477 199.319C178.477 199.319 170.53 197.923 170.092 201.249C169.654 204.575 169.048 199.654 178.477 199.319Z" fill="black"/>
<path opacity="0.1" d="M165.664 213.368C163.431 210.753 162.222 206.692 162 201.257C163.023 211.61 169.032 218.317 193.031 219.399C217.08 220.483 222.37 213.301 224.944 214.159C226.025 214.52 226.03 215.51 225.673 216.537C222.007 220.328 214.01 221.431 200.412 221.431C183.593 221.431 169.492 219.741 165.664 213.368Z" fill="black"/>
<path d="M206.945 169.07C206.945 169.07 205.823 169.249 205.161 169.921C204.5 170.594 202.55 170.524 202.55 170.524L202.355 172.729L206.803 172.471L206.945 169.07Z" fill="#B25B52"/>
<path d="M189.025 155.893C189.606 155.86 191.826 157.019 193.165 162.881C194.505 168.742 194.207 170.709 204.603 170.042L204.264 172.961C204.264 172.961 195.256 173.928 192.569 171.769C189.891 169.618 186.879 156.015 189.025 155.893Z" fill="#263238"/>
<path opacity="0.6" d="M192.015 163.103L192.522 164C192.522 164 191.964 169.521 193.028 172.07C192.861 171.977 192.705 171.878 192.569 171.769C191.848 171.19 191.104 169.777 190.441 168.024L192.015 163.103Z" fill="black"/>
<path d="M177.176 145.122C177.176 145.122 177.1 146.831 176.305 147.182C175.511 147.533 176.889 149.49 176.505 150.688C176.12 151.886 175.231 152.963 176.183 154.567C176.183 154.567 175.977 153.229 176.653 152.433C176.653 152.433 176.37 154.677 177.096 154.726C177.823 154.775 177.967 154.119 179.159 154.398C180.351 154.677 179.299 152.565 179.299 152.565C179.299 152.565 179.779 152.883 180.101 154.004C180.422 155.125 183.578 153.832 184.862 154.293C186.146 154.754 186.503 152.381 186.503 152.381C186.503 152.381 187.075 153.79 186.611 154.272C186.611 154.272 187.622 153.983 187.734 152.641C187.734 152.641 188.031 153.049 187.88 153.902C187.88 153.902 188.854 153.831 188.61 151.944C188.367 150.058 186.896 149.516 186.513 148.019C186.13 146.522 181.414 143.623 181.414 143.623L177.176 145.122Z" fill="#263238"/>
<path d="M179.711 150.886L183.73 153.501C183.716 156.323 185.754 156.174 185.754 156.174C185.754 156.174 185.787 157.158 183.329 157.521C180.872 157.883 180.026 157.786 180.026 157.786C181.251 156.321 180.321 152.803 179.711 150.886Z" fill="#B25B52"/>
<path opacity="0.1" d="M184.009 155.031C183.839 154.656 183.727 154.162 183.731 153.5L180.145 151.167L179.92 151.567C179.92 151.567 181.279 155.189 184.009 155.031Z" fill="black"/>
<path d="M178.549 146.582C178.958 149.86 179.059 151.257 180.826 152.841C183.485 155.226 187.421 154.009 188.003 150.675C188.525 147.674 187.771 142.82 184.471 141.711C182.116 140.907 179.555 142.163 178.75 144.518C178.523 145.18 178.454 145.887 178.549 146.582Z" fill="#B25B52"/>
<path d="M185.799 148.513C186.075 149.109 186.432 149.666 186.86 150.165C186.597 150.381 186.252 150.469 185.918 150.406L185.799 148.513Z" fill="#9D2724"/>
<path d="M182.909 146.804C182.886 146.8 182.865 146.791 182.846 146.777C182.79 146.732 182.78 146.65 182.825 146.593L182.827 146.591C183.128 146.194 183.605 145.968 184.103 145.986C184.174 145.996 184.225 146.059 184.219 146.131C184.212 146.201 184.15 146.253 184.079 146.248C183.667 146.239 183.276 146.429 183.028 146.758C182.999 146.792 182.954 146.81 182.909 146.804Z" fill="#2E353A"/>
<path d="M187.773 146.282C187.751 146.278 187.729 146.269 187.711 146.256C187.39 146.001 186.966 145.917 186.571 146.027C186.503 146.053 186.428 146.019 186.402 145.951L186.402 145.95C186.378 145.881 186.415 145.806 186.483 145.781C186.961 145.64 187.478 145.738 187.871 146.045C187.931 146.086 187.945 146.168 187.904 146.227C187.875 146.27 187.824 146.291 187.773 146.282Z" fill="#2E353A"/>
<path d="M183.878 148.189C183.895 148.455 184.05 148.663 184.227 148.653C184.405 148.643 184.53 148.418 184.511 148.148C184.492 147.877 184.339 147.674 184.165 147.684C183.992 147.694 183.863 147.919 183.878 148.189Z" fill="#2E353A"/>
<path d="M186.908 147.999C186.924 148.265 187.08 148.473 187.254 148.463C187.428 148.453 187.556 148.228 187.541 147.958C187.525 147.689 187.369 147.484 187.195 147.495C187.021 147.504 186.889 147.729 186.908 147.999Z" fill="#2E353A"/>
<path d="M187.119 147.513L187.751 147.289C187.751 147.289 187.45 147.81 187.119 147.513Z" fill="#2E353A"/>
<path d="M184.088 147.703L184.719 147.479C184.719 147.479 184.419 148 184.088 147.703Z" fill="#2E353A"/>
<path d="M184.21 150.872C184.139 150.79 184.075 150.704 184.019 150.612C183.999 150.583 184.006 150.543 184.035 150.524C184.035 150.524 184.036 150.523 184.037 150.523C184.069 150.506 184.108 150.516 184.126 150.547C184.41 151.019 184.902 151.329 185.451 151.382C185.487 151.382 185.515 151.412 185.515 151.447C185.514 151.483 185.485 151.511 185.449 151.511C184.967 151.473 184.52 151.244 184.21 150.872Z" fill="#263238"/>
<path d="M184.532 141.931C184.532 141.931 186.292 143.885 184.372 144.667C182.453 145.449 180.725 146.602 180.444 148.22C180.163 149.839 178.596 149.888 178.596 149.888C178.596 149.888 176.059 146.673 177.698 143.291C179.335 139.91 183.862 140.75 184.532 141.931Z" fill="#263238"/>
<path d="M179.441 142.44C179.441 142.44 181.559 139.162 185.111 140.749C188.663 142.336 188.818 145.029 187.925 144.764C187.032 144.499 185.613 144.229 184.596 142.393C183.579 140.556 179.441 142.44 179.441 142.44Z" fill="#263238"/>
<path d="M179.961 148.616C179.961 148.616 181.711 148.516 180.878 150.82C180.878 150.82 180.75 149.362 179.961 148.616Z" fill="#263238"/>
<path d="M177.933 149.232C178.154 149.831 178.604 150.318 179.184 150.586C179.956 150.934 180.469 150.276 180.361 149.48C180.266 148.767 179.747 147.723 178.92 147.708C178.318 147.716 177.836 148.211 177.844 148.813C177.845 148.957 177.876 149.099 177.933 149.232Z" fill="#B25B52"/>
<path d="M203.029 176.629L193.667 175.332C193.469 175.305 193.357 175.09 193.448 174.912L199.261 163.593C199.42 163.281 199.76 163.104 200.108 163.152L209.47 164.449C209.668 164.477 209.78 164.692 209.689 164.869L203.876 176.189C203.716 176.501 203.377 176.677 203.029 176.629Z" fill="#263238"/>
<path opacity="0.5" d="M203.029 176.629L193.667 175.332C193.469 175.305 193.357 175.09 193.448 174.912L199.261 163.593C199.42 163.281 199.76 163.104 200.108 163.152L209.47 164.449C209.668 164.477 209.78 164.692 209.689 164.869L203.876 176.189C203.716 176.501 203.377 176.677 203.029 176.629Z" fill="white"/>
<path d="M203.394 176.679L194.032 175.382C193.834 175.355 193.722 175.14 193.813 174.962L199.626 163.643C199.786 163.331 200.126 163.154 200.473 163.202L209.835 164.499C210.033 164.527 210.145 164.741 210.054 164.919L204.241 176.239C204.082 176.551 203.742 176.728 203.394 176.679Z" fill="#263238"/>
<path opacity="0.7" d="M203.394 176.679L194.032 175.382C193.834 175.355 193.722 175.14 193.813 174.962L199.626 163.643C199.786 163.331 200.126 163.154 200.473 163.202L209.835 164.499C210.033 164.527 210.145 164.741 210.054 164.919L204.241 176.239C204.082 176.551 203.742 176.728 203.394 176.679Z" fill="white"/>
<path opacity="0.7" d="M208.554 166.457L207.474 166.307C207.452 166.304 207.439 166.279 207.449 166.259L208.119 164.953C208.138 164.917 208.177 164.897 208.217 164.902L209.297 165.052C209.319 165.055 209.332 165.08 209.322 165.1L208.651 166.406C208.633 166.442 208.594 166.462 208.554 166.457Z" fill="#263238"/>
<path opacity="0.3" d="M208.554 166.457L207.474 166.307C207.452 166.304 207.439 166.279 207.449 166.259L208.119 164.953C208.138 164.917 208.177 164.897 208.217 164.902L209.297 165.052C209.319 165.055 209.332 165.08 209.322 165.1L208.651 166.406C208.633 166.442 208.594 166.462 208.554 166.457Z" fill="white"/>
<path d="M202.727 170.051C202.568 170.493 202.201 170.819 201.909 170.778C201.617 170.738 201.51 170.346 201.67 169.904C201.83 169.462 202.196 169.136 202.488 169.176C202.781 169.216 202.887 169.608 202.727 170.051Z" fill="white"/>
<path d="M212.207 212.143L213.986 219.436L216.539 218.529L215.784 211.124L212.207 212.143Z" fill="#B25B52"/>
<path d="M216.742 218.116L213.651 218.175C213.517 218.177 213.403 218.272 213.376 218.403L212.788 221.305C212.733 221.562 212.898 221.814 213.155 221.868C213.188 221.875 213.222 221.878 213.255 221.878C214.535 221.832 215.672 221.741 217.266 221.713C219.147 221.679 218.674 221.913 220.886 221.904C222.218 221.897 222.434 220.377 221.868 220.313C219.276 220.036 218.532 219.267 217.518 218.361C217.298 218.187 217.021 218.1 216.742 218.116Z" fill="#263238"/>
<path opacity="0.1" d="M216.222 215.419L215.784 211.124L212.207 212.143L213.236 216.359L216.222 215.419Z" fill="black"/>
<path d="M187.445 176.817L191.528 175.246C191.528 175.246 193.674 177.614 195.006 180.435C196.339 183.255 189.923 183.255 189.923 183.255L187.904 179.464L187.445 176.817Z" fill="#407BFF"/>
<path opacity="0.3" d="M187.445 176.817L191.528 175.246C191.528 175.246 193.674 177.614 195.006 180.435C196.339 183.255 189.923 183.255 189.923 183.255L187.904 179.464L187.445 176.817Z" fill="black"/>
<path opacity="0.2" d="M189.819 175.905C190.976 182.295 193.043 181.152 193.043 181.152L192.137 182.489L189.681 182.802L187.904 179.466L187.445 176.819L189.819 175.905Z" fill="black"/>
<path d="M225.816 198.889L231.526 205.705L233.537 204.19L228.522 196.613L225.816 198.889Z" fill="#B25B52"/>
<path d="M232.521 202.292L230.067 204.199C229.958 204.277 229.918 204.42 229.97 204.543L231.134 207.264C231.236 207.507 231.514 207.62 231.757 207.519C231.788 207.506 231.817 207.49 231.845 207.47C232.872 206.705 233.756 205.984 235.052 205.056C236.58 203.959 236.324 204.42 238.139 203.155C239.231 202.392 238.546 201.019 238.043 201.288C235.753 202.533 234.649 202.221 233.299 202.051C233.019 202.034 232.742 202.12 232.521 202.292Z" fill="#263238"/>
<path opacity="0.1" d="M228.93 202.605L231.348 200.884L228.522 196.613L225.816 198.889L228.93 202.605Z" fill="black"/>
<path d="M179.161 179.579C179.161 179.579 177.679 188.134 180.631 193.665C183.584 199.197 190.138 200.201 206.977 182.36C206.977 182.36 212.9 185.115 227.156 201.194L230.326 198.739C230.326 198.739 217.919 178.585 211.921 173.803C205.864 168.972 192.619 182.467 190.931 181.717C189.429 181.05 188.718 176.395 188.718 176.395L179.161 179.579Z" fill="#407BFF"/>
<path opacity="0.3" d="M179.161 179.579C179.161 179.579 177.679 188.134 180.631 193.665C183.584 199.197 190.138 200.201 206.977 182.36C206.977 182.36 212.9 185.115 227.156 201.194L230.326 198.739C230.326 198.739 217.919 178.585 211.921 173.803C205.864 168.972 192.619 182.467 190.931 181.717C189.429 181.05 188.718 176.395 188.718 176.395L179.161 179.579Z" fill="black"/>
<path d="M226.141 201.174L227.452 202.336L231.195 199.229L230.553 197.562L226.141 201.174Z" fill="#407BFF"/>
<path d="M194.287 193.801C197.694 191.458 201.858 187.784 206.979 182.359C206.979 182.359 211.848 180.559 213.558 184.038C215.267 187.516 216.361 212.665 216.361 212.665L212.304 213.835C212.304 213.835 205.055 191.138 205.096 189.64L194.287 193.801Z" fill="#407BFF"/>
<path opacity="0.4" d="M194.287 193.801C197.694 191.458 201.858 187.784 206.979 182.359C206.979 182.359 211.848 180.559 213.558 184.038C215.267 187.516 216.361 212.665 216.361 212.665L212.304 213.835C212.304 213.835 205.055 191.138 205.096 189.64L194.287 193.801Z" fill="black"/>
<path opacity="0.2" d="M213.557 184.039C213.243 183.4 212.821 182.942 212.344 182.615C213.792 183.379 215.825 185.226 216.067 189.614V189.614C215.49 189.069 214.947 188.57 214.429 188.1C214.161 186.137 213.869 184.674 213.557 184.039Z" fill="black"/>
<path opacity="0.2" d="M206.979 182.36C206.979 182.36 207.723 182.086 208.731 181.959C208.147 183.087 206.018 186.894 202.081 190.802L194.287 193.802C197.694 191.459 201.859 187.785 206.979 182.36Z" fill="black"/>
<path d="M211.584 213.372L212.099 215.025L216.806 213.625L216.865 211.84L211.584 213.372Z" fill="#407BFF"/>
<path d="M192.772 176.382C192.772 176.382 191.562 178.351 178.734 180.302C178.734 180.302 179.3 176.34 177.948 170.669C176.596 164.997 171.586 159.666 176.472 158.291C181.357 156.916 189.807 154.08 190.53 157.147C191.253 160.214 192.58 161.554 192.524 164C192.467 166.446 190.69 168.221 192.772 176.382Z" fill="#263238"/>
<path d="M208.525 170.073C208.597 169.819 208.562 169.546 208.441 169.311C208.25 168.939 207.905 168.455 207.423 168.503C206.647 168.581 206.441 169.136 206.245 169.86C206.049 170.584 205.432 171.865 206.134 172.309C206.804 172.735 207.836 172.501 208.525 170.073Z" fill="#B25B52"/>
<path d="M179.312 157.493C179.312 157.493 186.136 157.886 185.735 155.945C185.735 155.945 184.407 155.335 184.664 154.614C184.921 153.893 181.407 154.64 180.035 154.443C179.472 154.362 179.833 155.093 179.793 155.877C179.753 156.659 179.312 157.493 179.312 157.493Z" fill="#263238"/>
<path opacity="0.6" d="M178.236 172.003L183.224 171.939L184.923 170.783L186.843 169.935L187.095 170.614C187.095 170.614 181.137 177.546 178.831 176.938C178.777 175.602 178.614 173.92 178.236 172.003Z" fill="black"/>
<path opacity="0.6" d="M182.462 170.577C182.462 170.577 180.549 171.159 180.222 169.768C179.751 167.763 178.352 162.184 176.933 160.04C175.384 157.699 178.435 168.885 178.435 168.885L179.111 171.24L180.178 172.688L182.489 171.048L182.462 170.577Z" fill="black"/>
<path opacity="0.6" d="M185.954 156.821C185.954 156.821 186.191 158.127 181.062 158.012C181.062 158.012 187.042 159.441 185.954 156.821Z" fill="black"/>
<path d="M190.735 167.725L190.666 167.169L190.277 167.401L190.735 167.725Z" fill="#263238"/>
<path opacity="0.7" d="M190.735 167.725L190.666 167.169L190.277 167.401L190.735 167.725Z" fill="white"/>
<path d="M186.064 160.862L186.13 160.505L186.541 160.259L186.887 160.369L190.613 166.586L190.694 167.188L190.283 167.434L189.79 167.079L186.064 160.862Z" fill="#263238"/>
<path opacity="0.6" d="M186.064 160.862L186.13 160.505L186.541 160.259L186.887 160.369L190.613 166.586L190.694 167.188L190.283 167.434L189.79 167.079L186.064 160.862Z" fill="white"/>
<path opacity="0.5" d="M186.556 160.753L186.145 161L189.772 167.052L190.183 166.805L186.556 160.753Z" fill="white"/>
<path d="M175.293 158.624C173.549 159.114 173.438 161.476 175.027 167.266C176.617 173.056 177.776 176.753 180.846 175.361C183.916 173.969 187.463 170.238 187.463 170.238L185.926 167.73C185.926 167.73 180.923 172.035 179.875 171.213C178.826 170.39 177.962 157.875 175.293 158.624Z" fill="#263238"/>
<path d="M185.268 168.721L187.383 166.941C187.383 166.941 187.072 163.386 188.222 163.342C189.165 163.306 189.92 164.435 190.088 165.978C190.256 167.521 188.515 168.482 188.515 168.482L186.469 170.751L185.268 168.721Z" fill="#B25B52"/>
<path d="M141.934 134.534C141.934 134.534 146.69 131.607 149.165 135.808C150.922 138.79 149.95 141.795 151.341 144.221C153.509 148.003 152.063 149.81 148.811 150.487C145.559 151.165 140.34 151.074 141.064 147.28C141.805 143.399 138.173 134.48 141.934 134.534Z" fill="#263238"/>
<path d="M147.13 143.001C147.13 143.001 147.524 148.568 148.563 148.664C148.563 148.664 146.114 149.889 143.709 148.664L143.539 146.104L147.13 143.001Z" fill="#EBB376"/>
<path d="M124.171 221.697H122.258L122.863 191.978H125.414L124.171 221.697Z" fill="#407BFF"/>
<path opacity="0.7" d="M124.171 221.697H122.258L122.863 191.978H125.414L124.171 221.697Z" fill="white"/>
<g opacity="0.4">
<path d="M139.868 221.697H137.955L138.56 191.978H141.111L139.868 221.697Z" fill="#407BFF"/>
</g>
<path d="M155.556 221.697H157.469L156.863 191.978H154.312L155.556 221.697Z" fill="#407BFF"/>
<g opacity="0.4">
<path d="M155.556 221.697H157.469L156.863 191.978H154.312L155.556 221.697Z" fill="white"/>
</g>
<path d="M155.688 191.978H124.283V194.756H155.688V191.978Z" fill="#407BFF"/>
<path opacity="0.5" d="M155.688 191.978H124.283V194.756H155.688V191.978Z" fill="white"/>
<path d="M139.861 221.697H141.774L141.168 191.978H138.617L139.861 221.697Z" fill="#407BFF"/>
<path opacity="0.7" d="M139.861 221.697H141.774L141.168 191.978H138.617L139.861 221.697Z" fill="white"/>
<path d="M157.595 156.781H152.393C149.662 156.781 146.762 158.193 145.995 160.814C143.825 168.225 142.184 191.465 142.184 191.465H156.11C157.801 191.465 159.222 190.193 159.408 188.511L162.325 162.061C162.636 159.244 160.43 156.781 157.595 156.781Z" fill="#263238"/>
<path opacity="0.6" d="M157.595 156.781H152.393C149.662 156.781 146.762 158.193 145.995 160.814C143.825 168.225 142.184 191.465 142.184 191.465H156.11C157.801 191.465 159.222 190.193 159.408 188.511L162.325 162.061C162.636 159.244 160.43 156.781 157.595 156.781Z" fill="white"/>
<path d="M154.422 156.781H149.219C146.488 156.781 143.589 158.193 142.821 160.814C140.651 168.225 139.01 191.465 139.01 191.465H152.452C154.419 191.465 156.071 189.985 156.287 188.03L159.152 162.062C159.462 159.244 157.256 156.781 154.422 156.781Z" fill="#263238"/>
<path opacity="0.5" d="M154.422 156.781H149.219C146.488 156.781 143.589 158.193 142.821 160.814C140.651 168.225 139.01 191.465 139.01 191.465H152.452C154.419 191.465 156.071 189.985 156.287 188.03L159.152 162.062C159.462 159.244 157.256 156.781 154.422 156.781Z" fill="white"/>
<path d="M143.891 191.977H123.537C121.66 191.977 120.139 190.456 120.139 188.579C120.139 186.702 121.66 185.181 123.537 185.181H143.891V191.977Z" fill="#263238"/>
<path opacity="0.5" d="M143.891 191.977H123.537C121.66 191.977 120.139 190.456 120.139 188.579C120.139 186.702 121.66 185.181 123.537 185.181H143.891V191.977Z" fill="white"/>
<path d="M156.336 191.977H143.189C141.393 191.977 139.938 190.522 139.938 188.726V188.432C139.938 186.636 141.393 185.181 143.189 185.181H156.336C158.213 185.181 159.735 186.702 159.735 188.579C159.735 190.455 158.213 191.977 156.336 191.977Z" fill="#263238"/>
<path opacity="0.6" d="M156.336 191.977H143.189C141.393 191.977 139.938 190.522 139.938 188.726V188.432C139.938 186.636 141.393 185.181 143.189 185.181H156.336C158.213 185.181 159.735 186.702 159.735 188.579C159.735 190.455 158.213 191.977 156.336 191.977Z" fill="white"/>
<path d="M137.249 156.11C137.249 156.11 137.703 161.054 135.368 163.146C133.242 165.05 129.812 165.988 129.812 165.988L126.788 165.107C126.497 165.022 126.193 165.112 126.008 165.336L124.655 166.976C124.384 167.304 124.455 167.805 124.809 168.078C124.977 168.207 125.186 168.265 125.389 168.24L126.955 168.049C126.955 168.049 128.388 168.315 128.862 168.279C129.234 168.252 130.286 167.881 130.286 167.881C130.286 167.881 135.679 167.417 137.979 165.116C140.28 162.816 140.857 158.043 140.857 158.043L137.249 156.11Z" fill="#EBB376"/>
<path d="M121.361 208.783L121.713 219.6H124.134L125.266 208.588L121.361 208.783Z" fill="#EBB376"/>
<path d="M121.677 218.492L124.437 218.506C124.557 218.506 124.661 218.59 124.687 218.707L125.258 221.304C125.31 221.533 125.166 221.762 124.936 221.815C124.907 221.821 124.877 221.825 124.846 221.825C123.697 221.803 122.674 221.738 121.243 221.736C119.554 221.733 119.982 221.935 117.996 221.959C116.799 221.972 116.583 220.612 117.091 220.546C119.413 220.259 120.085 219.552 120.983 218.723C121.178 218.563 121.425 218.481 121.677 218.492Z" fill="#263238"/>
<path opacity="0.1" d="M124.381 217.228L124.653 214.58H121.553L121.639 217.228H124.381Z" fill="#263238"/>
<path d="M149.706 168.13C149.706 168.13 157.251 185.271 150.004 185.271C142.757 185.271 129.093 185.271 129.093 185.271C129.093 185.271 128.188 189.83 124.93 214.885H121.433C121.433 214.885 120.848 185.539 122.782 181.162C124.297 177.732 134.007 175.28 138.604 174.38C139.841 174.137 140.786 173.137 140.956 171.889L141.977 167.678L149.706 168.13Z" fill="#263238"/>
<path opacity="0.2" d="M149.706 168.13C149.706 168.13 157.251 185.271 150.004 185.271C142.757 185.271 129.093 185.271 129.093 185.271C129.093 185.271 128.188 189.83 124.93 214.885H121.433C121.433 214.885 120.848 185.539 122.782 181.162C124.297 177.732 134.007 175.28 138.604 174.38C139.841 174.137 140.786 173.137 140.956 171.889L141.977 167.678L149.706 168.13Z" fill="black"/>
<path d="M120.762 214.286L121.042 216.19H125.197L125.582 214.286H120.762Z" fill="#263238"/>
<path opacity="0.2" d="M120.762 214.286L121.042 216.19H125.197L125.582 214.286H120.762Z" fill="white"/>
<path d="M128.635 208.787L129.039 219.46L131.358 219.457L133.018 208.592L128.635 208.787Z" fill="#EBB376"/>
<path opacity="0.1" d="M131.698 217.226L132.103 214.578H128.854L128.954 217.226H131.698Z" fill="#263238"/>
<path d="M129.095 218.492L131.855 218.506C131.975 218.506 132.079 218.59 132.105 218.707L132.676 221.304C132.728 221.533 132.584 221.762 132.354 221.815C132.324 221.821 132.295 221.825 132.264 221.825C131.115 221.803 130.092 221.738 128.661 221.736C126.972 221.733 127.4 221.935 125.414 221.959C124.217 221.972 124.001 220.612 124.509 220.546C126.831 220.259 127.503 219.552 128.401 218.723C128.596 218.563 128.843 218.481 129.095 218.492Z" fill="#263238"/>
<path d="M153.516 168.428C153.516 168.428 154.058 168.428 154.874 172.476C155.91 177.62 157.408 185.271 152.472 185.271C145.224 185.271 136.469 185.271 136.469 185.271C136.469 185.271 135.687 187.13 132.281 214.885H128.784C128.784 214.885 126.841 185.185 128.775 180.809C130.265 177.439 137.671 175.897 141.744 175.367C142.906 175.215 143.868 174.279 143.898 173.108C143.93 171.886 143.753 168.22 143.753 168.22L153.516 168.428Z" fill="#263238"/>
<path d="M128.088 214.286L128.49 216.19H132.524L132.908 214.286H128.088Z" fill="#263238"/>
<path opacity="0.2" d="M128.088 214.286L128.49 216.19H132.524L132.908 214.286H128.088Z" fill="white"/>
<path d="M139.824 148.695C137.874 148.402 136.77 153.201 136.67 157.734L141.297 158.819C141.297 158.819 143.472 149.244 139.824 148.695Z" fill="#407BFF"/>
<path opacity="0.1" d="M139.824 148.695C137.874 148.402 136.77 153.201 136.67 157.734L141.297 158.819C141.297 158.819 143.472 149.244 139.824 148.695Z" fill="black"/>
<path d="M141.057 170.578C141.057 170.578 140.951 167.364 140.312 163.302C139.578 158.638 138.322 153.399 138.748 150.081C138.863 149.186 139.59 148.567 140.516 148.567H153.171C153.977 148.567 154.673 149.328 154.577 150.108C154.14 153.661 153.044 162.509 154.719 170.862C154.719 170.862 145.053 171.632 141.057 170.578Z" fill="#407BFF"/>
<path d="M152.037 154.902C152.037 154.902 152.878 160.658 150.34 162.28C147.803 163.901 142.255 165.584 142.255 165.584L138.827 164.857C138.645 164.819 138.463 164.894 138.368 165.047L136.994 167.269C136.893 167.431 136.912 167.644 137.04 167.797C137.142 167.92 137.298 167.985 137.452 167.968L139.53 167.752C139.53 167.752 140.61 168.005 140.972 167.994C141.434 167.98 142.754 167.574 142.754 167.574C142.754 167.574 150.684 166.802 153.106 164.381C155.527 161.959 155.836 156.935 155.836 156.935L152.037 154.902Z" fill="#EBB376"/>
<path d="M153.622 148.674C151.162 148.381 151.813 153.88 151.514 157.733L156.111 158.251C156.111 158.251 157.278 149.11 153.622 148.674Z" fill="#407BFF"/>
<path opacity="0.1" d="M153.622 148.674C151.162 148.381 151.813 153.88 151.514 157.733L156.111 158.251C156.111 158.251 157.278 149.11 153.622 148.674Z" fill="black"/>
<path d="M143.302 148.923C143.302 148.923 142.828 153.027 148.252 149.367C148.595 149.136 148.719 148.69 148.546 148.314C148.36 147.91 148.165 147.336 148.152 146.693C148.145 146.333 147.733 146.121 147.435 146.324C146.667 146.846 145.427 147.407 143.75 147.272C143.414 147.245 143.162 147.551 143.253 147.875C143.339 148.18 143.389 148.551 143.302 148.923Z" fill="#407BFF"/>
<path opacity="0.1" d="M143.302 148.923C143.302 148.923 142.828 153.027 148.252 149.367C148.595 149.136 148.719 148.69 148.546 148.314C148.36 147.91 148.165 147.336 148.152 146.693C148.145 146.333 147.733 146.121 147.435 146.324C146.667 146.846 145.427 147.407 143.75 147.272C143.414 147.245 143.162 147.551 143.253 147.875C143.339 148.18 143.389 148.551 143.302 148.923Z" fill="black"/>
<path opacity="0.1" d="M147.201 143.804C147.153 143.32 147.13 143.001 147.13 143.001L143.539 146.104L143.628 147.455C144.665 147.378 146.178 146.707 147.201 143.804Z" fill="black"/>
<path d="M147.418 138.531C147.708 141.702 147.9 143.037 146.562 144.893C144.549 147.685 140.593 147.348 139.359 144.328C138.25 141.61 137.962 136.885 140.842 135.162C142.893 133.92 145.563 134.577 146.804 136.629C147.155 137.207 147.365 137.858 147.418 138.531Z" fill="#EBB376"/>
<path d="M140.742 141.529C140.62 142.151 140.414 142.753 140.127 143.319C140.422 143.461 140.765 143.465 141.064 143.33L140.742 141.529Z" fill="#D58745"/>
<path d="M142.716 139.529C142.736 139.52 142.754 139.507 142.769 139.49C142.811 139.435 142.801 139.356 142.746 139.313L142.744 139.311C142.371 139.008 141.874 138.906 141.411 139.038C141.347 139.062 141.313 139.133 141.334 139.199C141.357 139.264 141.428 139.298 141.493 139.277C141.876 139.174 142.286 139.262 142.593 139.513C142.628 139.54 142.675 139.546 142.716 139.529Z" fill="#2E353A"/>
<path d="M138.314 140.2C138.292 140.198 138.271 140.191 138.253 140.179C138.195 140.14 138.18 140.062 138.219 140.004L138.221 140.002C138.481 139.598 138.922 139.346 139.402 139.327C139.471 139.331 139.525 139.388 139.525 139.457C139.523 139.525 139.467 139.58 139.398 139.58C139.002 139.602 138.641 139.813 138.426 140.147C138.401 140.183 138.359 140.203 138.314 140.2Z" fill="#2E353A"/>
<path d="M142.464 140.787C142.51 141.04 142.412 141.27 142.243 141.302C142.075 141.334 141.906 141.151 141.862 140.894C141.818 140.636 141.915 140.411 142.079 140.38C142.244 140.349 142.417 140.531 142.464 140.787Z" fill="#2E353A"/>
<path d="M139.584 141.302C139.63 141.556 139.532 141.785 139.367 141.816C139.202 141.847 139.03 141.666 138.982 141.409C138.935 141.153 139.035 140.926 139.2 140.896C139.365 140.866 139.54 141.045 139.584 141.302Z" fill="#2E353A"/>
<path d="M139.275 140.898L138.633 140.832C138.633 140.832 139.033 141.252 139.275 140.898Z" fill="#2E353A"/>
<path d="M142.154 140.38L141.512 140.314C141.512 140.314 141.912 140.734 142.154 140.38Z" fill="#2E353A"/>
<path d="M148.543 140.9C148.459 141.51 148.135 142.061 147.644 142.433C146.989 142.919 146.371 142.405 146.308 141.634C146.252 140.942 146.525 139.852 147.301 139.669C147.869 139.553 148.425 139.919 148.541 140.489C148.569 140.624 148.57 140.764 148.543 140.9Z" fill="#EBB376"/>
<path d="M141.941 144.618C141.85 144.648 141.757 144.669 141.662 144.682C141.632 144.688 141.602 144.668 141.596 144.637C141.596 144.637 141.596 144.636 141.596 144.635C141.593 144.604 141.615 144.576 141.647 144.571C142.131 144.507 142.557 144.217 142.794 143.789C142.807 143.76 142.84 143.748 142.869 143.761C142.898 143.774 142.91 143.808 142.897 143.836C142.697 144.216 142.352 144.498 141.941 144.618Z" fill="#263238"/>
<path d="M143.098 136.304C143.098 136.304 142.232 137.659 142.901 138.607C143.571 139.556 139.009 137.57 137.835 139.647C137.835 139.647 136.346 133.232 143.097 134.091V136.304H143.098Z" fill="#263238"/>
<path d="M142.901 135.898C142.901 135.898 142.397 138.468 144.068 139.26C145.739 140.053 145.694 142.176 147.199 141.819C149.368 141.305 147.817 134.723 144.301 134.012C141.696 133.485 142.901 135.898 142.901 135.898Z" fill="#263238"/>
<path d="M95.5374 222.143H93.6686L92.8496 172.678H96.3563L95.5374 222.143Z" fill="#407BFF"/>
<path opacity="0.7" d="M95.5374 222.143H93.6686L92.8496 172.678H96.3563L95.5374 222.143Z" fill="white"/>
<path d="M116.166 222.143H114.297L113.479 172.678H116.985L116.166 222.143Z" fill="#407BFF"/>
<path opacity="0.4" d="M116.166 222.143H114.297L113.479 172.678H116.985L116.166 222.143Z" fill="white"/>
<path d="M129.873 171.849H94.6035V175.717H129.873V171.849Z" fill="#407BFF"/>
<path opacity="0.3" d="M129.873 171.849H94.6035V175.717H129.873V171.849Z" fill="white"/>
<path d="M150.554 171.849H129.871V175.717H150.554V171.849Z" fill="#407BFF"/>
<path opacity="0.5" d="M150.554 171.849H129.871V175.717H150.554V171.849Z" fill="white"/>
<path d="M151.438 222.143H149.569L148.75 172.678H152.257L151.438 222.143Z" fill="#407BFF"/>
<path opacity="0.4" d="M151.438 222.143H149.569L148.75 172.678H152.257L151.438 222.143Z" fill="white"/>
<path d="M152.96 172.678H126.222C125.429 172.678 124.787 172.035 124.787 171.242V170.798C124.787 170.005 125.43 169.362 126.222 169.362H152.96C153.753 169.362 154.395 170.005 154.395 170.798V171.242C154.395 172.035 153.753 172.678 152.96 172.678Z" fill="#263238"/>
<path opacity="0.6" d="M152.96 172.678H126.222C125.429 172.678 124.787 172.035 124.787 171.242V170.798C124.787 170.005 125.43 169.362 126.222 169.362H152.96C153.753 169.362 154.395 170.005 154.395 170.798V171.242C154.395 172.035 153.753 172.678 152.96 172.678Z" fill="white"/>
<path d="M127.96 172.678H91.3786C90.5856 172.678 89.9434 172.035 89.9434 171.242V170.798C89.9434 170.005 90.5862 169.362 91.3786 169.362H127.96C128.753 169.362 129.395 170.005 129.395 170.798V171.242C129.396 172.035 128.753 172.678 127.96 172.678Z" fill="#263238"/>
<path opacity="0.5" d="M127.96 172.678H91.3786C90.5856 172.678 89.9434 172.035 89.9434 171.242V170.798C89.9434 170.005 90.5862 169.362 91.3786 169.362H127.96C128.753 169.362 129.395 170.005 129.395 170.798V171.242C129.396 172.035 128.753 172.678 127.96 172.678Z" fill="white"/>
<path d="M130.806 222.143H128.936L128.117 172.678H131.624L130.806 222.143Z" fill="#407BFF"/>
<path opacity="0.7" d="M130.806 222.144H128.936L128.117 172.679H131.624L130.806 222.144Z" fill="white"/>
<path d="M126.922 169.362C126.618 169.362 126.371 169.116 126.371 168.811C126.371 168.506 126.618 168.26 126.922 168.26H141.936C142.24 168.26 142.487 168.506 142.487 168.811C142.487 169.116 142.241 169.362 141.936 169.362H126.922Z" fill="#407BFF"/>
<path opacity="0.2" d="M126.922 169.362C126.618 169.362 126.371 169.116 126.371 168.811C126.371 168.506 126.618 168.26 126.922 168.26H141.936C142.24 168.26 142.487 168.506 142.487 168.811C142.487 169.116 142.241 169.362 141.936 169.362H126.922Z" fill="black"/>
<path d="M128.197 168.41L126.199 154.189C126.125 153.666 125.642 153.241 125.119 153.241H123.203V169.357H127.382C127.906 169.357 128.27 168.933 128.197 168.41Z" fill="#407BFF"/>
<path d="M126.559 169.357H109.583C109.06 169.357 108.576 168.933 108.503 168.41L106.504 154.189C106.43 153.666 106.795 153.241 107.318 153.241H124.294C124.817 153.241 125.301 153.666 125.374 154.189L127.372 168.41C127.446 168.933 127.082 169.357 126.559 169.357Z" fill="#263238"/>
<path opacity="0.7" d="M126.559 169.357H109.583C109.06 169.357 108.576 168.933 108.503 168.41L106.504 154.189C106.43 153.666 106.795 153.241 107.318 153.241H124.294C124.817 153.241 125.301 153.666 125.374 154.189L127.372 168.41C127.446 168.933 127.082 169.357 126.559 169.357Z" fill="white"/>
<path opacity="0.7" d="M117.766 160.912C117.833 161.39 117.5 161.778 117.022 161.778C116.543 161.778 116.101 161.391 116.034 160.912C115.967 160.434 116.3 160.046 116.778 160.046C117.257 160.046 117.698 160.434 117.766 160.912Z" fill="white"/>
<path d="M66.8236 165.239C64.7836 177.138 78.9921 170.899 84.6516 171.04C85.0132 171.049 85.3638 171.123 85.7085 171.253L87.4581 178.8L85.76 186.617L81.798 192.878H57.143L39.315 180.816L34.7871 166.667L36.0603 143.745L36.6261 140.066C36.6261 140.066 37.192 144.594 49.6433 143.462C62.0947 142.33 71.855 138.317 74.6875 142.33C78.0842 147.142 68.1721 157.371 66.8236 165.239Z" fill="#407BFF"/>
<path opacity="0.2" d="M85.3354 184.711V189.164L78.2255 192.03L64.2175 191.287L60.5352 186.617L62.0956 184.177H71.1155L85.3354 184.711Z" fill="black"/>
<path d="M62.6763 199.276H58.3945V218.767H62.6763V199.276Z" fill="#263238"/>
<path opacity="0.5" d="M62.6763 199.276H58.3945V218.767H62.6763V199.276Z" fill="white"/>
<path d="M63.7827 216.994H57.2863L44.0176 219.504V221.719H46.7493L57.2863 219.726H63.7827L74.3197 221.719H77.0514V219.504L63.7827 216.994Z" fill="#263238"/>
<path opacity="0.3" d="M63.7827 216.994H57.2863L44.0176 219.504V221.719H46.7493L57.2863 219.726H63.7827L74.3197 221.719H77.0514V219.504L63.7827 216.994Z" fill="white"/>
<path d="M74.3194 222.68C75.23 222.68 76.1405 222.68 77.0511 222.68C77.9064 222.68 77.9074 221.351 77.0511 221.351C76.1405 221.351 75.23 221.351 74.3194 221.351C73.4647 221.351 73.463 222.68 74.3194 222.68Z" fill="#407BFF"/>
<path d="M44.0169 222.68C44.9274 222.68 45.838 222.68 46.7485 222.68C47.6038 222.68 47.6049 221.351 46.7485 221.351C45.838 221.351 44.9274 221.351 44.0169 221.351C43.1616 221.351 43.1605 222.68 44.0169 222.68Z" fill="#407BFF"/>
<path opacity="0.2" d="M62.6763 199.276H58.3945V203.688H62.6763V199.276Z" fill="black"/>
<path d="M83.6823 187.473H58.0625V181.948H83.6823C85.208 181.948 86.4449 183.185 86.4449 184.711C86.4449 186.236 85.208 187.473 83.6823 187.473Z" fill="#407BFF"/>
<path opacity="0.1" d="M83.6823 187.473H58.0625V181.948H83.6823C85.208 181.948 86.4449 183.185 86.4449 184.711C86.4449 186.236 85.208 187.473 83.6823 187.473Z" fill="black"/>
<path d="M62.213 147.536C62.213 147.536 65.4937 156.736 68.1766 156.944C70.8595 157.152 74.1435 152.215 74.1435 152.215L75.4811 148.736L78.1776 148.511V152.876L75.4096 154.268C75.4096 154.268 71.1793 161.221 67.8937 161.048C64.6075 160.875 61.2905 155.789 60.619 153.199C60.2498 151.775 60.4954 148.808 62.213 147.536Z" fill="#FFC3BD"/>
<path d="M78.7525 155.11L79.7243 147.076L76.0067 146.826L75.8945 154.917L78.7525 155.11Z" fill="#263238"/>
<path opacity="0.5" d="M78.7525 155.11L79.7243 147.076L76.0067 146.826L75.8945 154.917L78.7525 155.11Z" fill="white"/>
<path d="M79.7978 145.916L76.0801 145.666L76.0024 146.821L79.7201 147.071L79.7978 145.916Z" fill="#407BFF"/>
<path d="M79.8035 145.922L76.0859 145.672L76.125 145.092C76.1326 144.975 76.2334 144.887 76.3499 144.895L79.6458 145.117C79.7623 145.124 79.8501 145.225 79.8425 145.342L79.8035 145.922Z" fill="#263238"/>
<path d="M61.3544 155.635C61.3544 155.635 57.8368 149.827 60.0844 147.075C62.3316 144.322 65.7641 153.398 65.7641 153.398L61.3544 155.635Z" fill="#407BFF"/>
<path opacity="0.3" d="M61.3544 155.635C61.3544 155.635 57.8368 149.827 60.0844 147.075C62.3316 144.322 65.7641 153.398 65.7641 153.398L61.3544 155.635Z" fill="white"/>
<path d="M60.6699 155.224L61.336 156.206L66.265 153.657L65.8081 152.628L60.6699 155.224Z" fill="#407BFF"/>
<path opacity="0.1" d="M60.6699 155.224L61.336 156.206L66.265 153.657L65.8081 152.628L60.6699 155.224Z" fill="white"/>
<path d="M43.7275 177.845C43.7275 177.845 39.3178 162.417 44.4868 147.074C44.4868 147.074 51.1952 143.953 60.7609 146.242C61.8579 146.505 62.523 147.615 62.2417 148.707C61.2845 152.428 59.8048 161.301 63.3777 172.515C63.3788 172.515 54.9902 177.624 43.7275 177.845Z" fill="#407BFF"/>
<path opacity="0.5" d="M43.7275 177.845C43.7275 177.845 39.3178 162.417 44.4868 147.074C44.4868 147.074 51.1952 143.953 60.7609 146.242C61.8579 146.505 62.523 147.615 62.2417 148.707C61.2845 152.428 59.8048 161.301 63.3777 172.515C63.3788 172.515 54.9902 177.624 43.7275 177.845Z" fill="white"/>
<path d="M52.1133 145.473L55.3517 148.278L57.2325 146.613C56.5214 146.083 56.7165 144.889 57.1132 143.599L52.5203 139.973C52.7534 141.675 52.9295 144.012 52.1133 145.473Z" fill="#FFC3BD"/>
<path d="M75.6883 181.683L81.6573 184.112L80.9831 186.636L74.6113 185.324L75.6883 181.683Z" fill="#FFC3BD"/>
<path d="M55.3032 173.07C55.3032 173.07 83.8736 163.173 86.2297 172.266C88.5852 181.359 66.9339 187.632 55.5899 187.249C44.2458 186.868 55.3032 173.07 55.3032 173.07Z" fill="#263238"/>
<path opacity="0.3" d="M55.3032 173.07C55.3032 173.07 83.8736 163.173 86.2297 172.266C88.5852 181.359 66.9339 187.632 55.5899 187.249C44.2458 186.868 55.3032 173.07 55.3032 173.07Z" fill="black"/>
<path opacity="0.7" d="M76.5441 173.991L62.6808 182.828L64.8938 186.459C64.8938 186.459 63.5534 186.904 61.6992 182.469L70.2796 176.797C70.2796 176.797 67.5924 176.527 67.6618 176.106C67.7745 175.42 73.6698 174.105 76.3609 173.539C76.6308 173.483 76.7766 173.843 76.5441 173.991Z" fill="black"/>
<path opacity="0.7" d="M62.1762 182.438L64.5794 186.513C61.3182 187.076 58.1849 187.338 55.5909 187.25C54.3823 187.209 53.43 187.015 52.6891 186.703L51.8457 185.086L53.6636 181.254L62.1762 182.438Z" fill="black"/>
<path d="M62.4218 183.064L59.7227 185.327L60.9622 187.251L65.0711 186.609L62.4218 183.064Z" fill="#FFC3BD"/>
<path d="M65.7924 186.676L62.9718 182.231L61.6992 183.14L64.1382 186.977L65.7924 186.676Z" fill="#263238"/>
<path opacity="0.3" d="M65.7924 186.676L62.9718 182.231L61.6992 183.14L64.1382 186.977L65.7924 186.676Z" fill="white"/>
<path d="M45.2615 182.534C43.725 179.929 40.7591 172.088 47.8897 170.723C55.0197 169.358 78.4417 182.534 78.4417 182.534L77.3512 185.963L55.1731 182.304C55.1731 182.304 61.3394 187.884 54.5948 187.19C49.2447 186.64 46.7553 185.067 45.2615 182.534Z" fill="#263238"/>
<path d="M77.863 181.683L76.4766 186.159L77.863 186.352L79.1123 182.485L77.863 181.683Z" fill="#263238"/>
<path opacity="0.3" d="M77.863 181.683L76.4766 186.159L77.863 186.352L79.1123 182.485L77.863 181.683Z" fill="white"/>
<path d="M61.7526 187.151L60.7797 184.191C60.7429 184.079 60.6339 184.008 60.5174 184.02L57.9337 184.276C57.7044 184.297 57.5353 184.5 57.5565 184.729C57.5592 184.759 57.5651 184.788 57.5738 184.816C57.9429 185.877 58.3131 186.807 58.7478 188.136C59.2627 189.704 58.944 189.367 59.5234 191.219C59.8735 192.335 61.2025 192.123 61.1098 191.632C60.673 189.387 61.2502 188.95 61.7483 187.865C61.8372 187.636 61.8388 187.381 61.7526 187.151Z" fill="#263238"/>
<path d="M81.1257 183.951L80.1225 186.991C80.0845 187.106 80.1311 187.231 80.2347 187.293L82.5268 188.659C82.7295 188.782 82.9929 188.717 83.1154 188.515C83.1311 188.489 83.1441 188.461 83.1539 188.432C83.4964 187.33 83.7582 186.335 84.2102 184.971C84.7419 183.361 84.7999 183.833 85.4514 181.948C85.8427 180.812 84.6151 180.176 84.3918 180.638C83.3826 182.76 82.6384 182.77 81.5642 183.362C81.3512 183.498 81.1951 183.707 81.1257 183.951Z" fill="#263238"/>
<path d="M77.2105 173.846H64.3548C63.7489 173.846 63.2578 173.355 63.2578 172.749H78.307C78.3075 173.355 77.8165 173.846 77.2105 173.846Z" fill="#263238"/>
<path opacity="0.2" d="M77.2105 173.846H64.3548C63.7489 173.846 63.2578 173.355 63.2578 172.749H78.307C78.3075 173.355 77.8165 173.846 77.2105 173.846Z" fill="white"/>
<path d="M67.7482 173.847H58.4095C57.8036 173.847 57.3125 173.356 57.3125 172.75H68.8452C68.8452 173.356 68.3541 173.847 67.7482 173.847Z" fill="#263238"/>
<path opacity="0.5" d="M67.7482 173.847H58.4095C57.8036 173.847 57.3125 173.356 57.3125 172.75H68.8452C68.8452 173.356 68.3541 173.847 67.7482 173.847Z" fill="white"/>
<path d="M77.3035 173.511H68.8418C68.663 173.511 68.5377 173.334 68.5968 173.165L72.3605 162.414C72.464 162.117 72.7437 161.919 73.0575 161.919H81.5192C81.698 161.919 81.8233 162.096 81.7642 162.265L78.0005 173.016C77.8965 173.313 77.6173 173.511 77.3035 173.511Z" fill="#263238"/>
<path opacity="0.5" d="M77.3035 173.511H68.8418C68.663 173.511 68.5377 173.334 68.5968 173.165L72.3605 162.414C72.464 162.117 72.7437 161.919 73.0575 161.919H81.5192C81.698 161.919 81.8233 162.096 81.7642 162.265L78.0005 173.016C77.8965 173.313 77.6173 173.511 77.3035 173.511Z" fill="white"/>
<path d="M77.6336 173.511H69.1719C68.993 173.511 68.8678 173.334 68.9269 173.165L72.6906 162.414C72.7941 162.117 73.0737 161.919 73.3876 161.919H81.8493C82.0281 161.919 82.1533 162.096 82.0943 162.265L78.3306 173.016C78.2265 173.313 77.9474 173.511 77.6336 173.511Z" fill="#263238"/>
<path opacity="0.7" d="M77.6336 173.511H69.1719C68.993 173.511 68.8678 173.334 68.9269 173.165L72.6906 162.414C72.7941 162.117 73.0737 161.919 73.3876 161.919H81.8493C82.0281 161.919 82.1533 162.096 82.0943 162.265L78.3306 173.016C78.2265 173.313 77.9474 173.511 77.6336 173.511Z" fill="white"/>
<path d="M76.2255 167.716C76.1377 168.127 75.8532 168.461 75.5892 168.461C75.3253 168.461 75.1822 168.127 75.27 167.716C75.3578 167.304 75.6424 166.97 75.9063 166.97C76.1703 166.97 76.3133 167.304 76.2255 167.716Z" fill="white"/>
<path d="M47.9523 151.699C47.9523 151.699 50.0184 161.869 51.4119 163.555C52.8049 165.242 58.8758 169.779 58.8758 169.779L62.4834 169.022L65.0693 171.18L63.3787 172.514L61.3771 171.761C61.3771 171.761 59.937 172.048 58.072 172.048C56.207 172.048 48.6347 167.593 47.1339 165.091C45.6331 162.589 43.5312 153.183 43.5312 153.183L47.9523 151.699Z" fill="#FFC3BD"/>
<path d="M50.9199 145.545L52.2055 144.799L55.3529 148.28C55.3529 148.28 53.6229 147.573 53.1362 147.858C52.6971 148.116 53.0039 149.231 52.4944 149.241C51.3627 149.26 50.9199 145.545 50.9199 145.545Z" fill="#407BFF"/>
<path d="M55.3535 148.279L56.9952 145.038L58.3372 145.763C58.3372 145.763 59.5854 148.908 58.6315 149.24C58.051 149.441 57.8288 147.97 57.2527 147.757C56.7909 147.587 55.3535 148.279 55.3535 148.279Z" fill="#407BFF"/>
<g opacity="0.2">
<path d="M50.9199 145.545L52.2055 144.799L55.3529 148.28C55.3529 148.28 53.6229 147.573 53.1362 147.858C52.6971 148.116 53.0039 149.231 52.4944 149.241C51.3627 149.26 50.9199 145.545 50.9199 145.545Z" fill="white"/>
<path d="M55.3535 148.279L56.9952 145.038L58.3372 145.763C58.3372 145.763 59.5854 148.908 58.6315 149.24C58.051 149.441 57.8288 147.97 57.2527 147.757C56.7909 147.587 55.3535 148.279 55.3535 148.279Z" fill="white"/>
</g>
<path d="M43.7282 156.759C43.7282 156.759 41.3375 149.521 44.4876 147.073C47.6377 144.625 49.1152 155.418 49.1152 155.418L43.7282 156.759Z" fill="#407BFF"/>
<path opacity="0.3" d="M43.7282 156.759C43.7282 156.759 41.3375 149.521 44.4876 147.073C47.6377 144.625 49.1152 155.418 49.1152 155.418L43.7282 156.759Z" fill="white"/>
<path d="M43.084 156.139L43.5669 157.38L49.5999 155.829L49.3587 154.588L43.084 156.139Z" fill="#407BFF"/>
<path opacity="0.1" d="M43.084 156.139L43.5669 157.38L49.5999 155.829L49.3587 154.588L43.084 156.139Z" fill="white"/>
<path opacity="0.1" d="M52.5974 140.576C52.5735 140.368 52.548 140.166 52.5215 139.973L57.1144 143.599C56.9442 144.152 56.8163 144.684 56.7751 145.158C54.0006 145.182 52.9502 142.116 52.5974 140.576Z" fill="black"/>
<path d="M53.3876 134.682C52.431 137.921 51.9551 139.286 52.9676 141.468C54.4868 144.789 58.6748 145.255 60.5778 142.367C62.2802 139.764 63.5881 134.908 60.9263 132.518C59.0456 130.804 56.1323 130.94 54.4191 132.821C53.9345 133.352 53.5811 133.99 53.3876 134.682Z" fill="#FFC3BD"/>
<path d="M57.0387 137.932C56.9476 138.191 57.0067 138.448 57.1764 138.511C57.346 138.574 57.5585 138.413 57.6495 138.154C57.7406 137.896 57.6848 137.639 57.5151 137.576C57.3455 137.514 57.133 137.674 57.0387 137.932Z" fill="#263238"/>
<path d="M59.9546 138.991C59.8598 139.249 59.9221 139.51 60.0891 139.569C60.256 139.628 60.4712 139.471 60.5655 139.213C60.6603 138.955 60.5975 138.697 60.4311 138.635C60.2652 138.572 60.0495 138.733 59.9546 138.991Z" fill="#263238"/>
<path d="M58.9787 139.064C59.1413 139.716 59.3917 140.343 59.7234 140.927C59.4172 141.092 59.0535 141.113 58.7305 140.985L58.9787 139.064Z" fill="#ED893E"/>
<path d="M56.9216 136.5C56.9715 136.549 57.0474 136.561 57.1102 136.53C57.7861 136.204 58.6354 136.666 58.6419 136.67C58.72 136.714 58.8186 136.686 58.8625 136.608C58.9064 136.53 58.8782 136.431 58.8002 136.387C58.7563 136.38 57.7953 135.839 56.9698 136.234C56.8902 136.274 56.8566 136.37 56.8945 136.45C56.8999 136.469 56.9091 136.486 56.9216 136.5Z" fill="#263238"/>
<path d="M61.6693 138.43C61.7165 138.463 61.7777 138.47 61.8308 138.448C61.9111 138.411 61.9474 138.317 61.9132 138.236C61.7186 137.75 61.2997 137.39 60.7902 137.27C60.7019 137.255 60.6173 137.314 60.6021 137.402C60.5864 137.491 60.646 137.575 60.7344 137.59C61.1349 137.693 61.4617 137.981 61.614 138.365C61.627 138.391 61.646 138.414 61.6693 138.43Z" fill="#263238"/>
<path d="M52.7559 136.57C52.7559 136.57 53.9705 136.542 53.8009 135.155C53.8009 135.155 55.8111 135.098 55.8962 133.626C55.8962 133.626 57.6518 135.183 58.2745 133.966C58.2745 133.966 60.4263 135.891 60.7092 134.617C60.7092 134.617 62.946 137.392 62.8327 135.693C62.8327 135.693 65.3525 135.438 63.0875 133.258C63.0875 133.258 65.1541 131.446 61.8132 130.71C61.8132 130.71 62.1054 128.562 59.7531 129.508C59.7531 129.508 59.2084 127.172 57.1699 128.531C57.1699 128.531 56.0686 126.889 54.8643 129.098C54.8643 129.098 53.087 128.08 52.5212 130.373C52.5212 130.373 49.305 130.765 50.6312 132.877C50.6312 132.877 51.6236 139.973 52.5212 139.973C53.1309 139.973 52.7559 136.57 52.7559 136.57Z" fill="#263238"/>
<path d="M51.6492 136.904C51.6687 137.558 51.9473 138.176 52.4232 138.624C53.0551 139.215 53.776 138.743 53.924 137.938C54.0616 137.213 53.9017 136.034 53.1072 135.75C52.5267 135.555 51.8974 135.868 51.7023 136.449C51.653 136.595 51.6351 136.75 51.6492 136.904Z" fill="#FFC3BD"/>
<path d="M57.7517 141.86C57.8661 141.893 57.9826 141.917 58.1008 141.93C58.1387 141.937 58.1745 141.911 58.181 141.873C58.181 141.873 58.1816 141.872 58.1816 141.871C58.1837 141.832 58.1555 141.797 58.1165 141.793C57.5116 141.728 56.9734 141.38 56.6661 140.855C56.6493 140.82 56.6065 140.806 56.5713 140.822C56.536 140.839 56.5214 140.882 56.5382 140.917C56.7989 141.383 57.2368 141.723 57.7517 141.86Z" fill="#263238"/>
<path d="M34.5033 140.349C34.5033 140.349 22.9419 199.68 61.1035 200.767C95.9108 201.757 88.1287 173.317 85.8648 171.336C83.6009 169.355 92.0902 189.588 78.0828 189.871C61.1951 190.212 58.1323 174.166 52.4727 174.024C46.8132 173.883 38.2528 181.382 37.4041 167.799C36.5547 154.216 41.0116 131.152 34.5033 140.349Z" fill="#407BFF"/>
<path opacity="0.5" d="M34.5033 140.349C34.5033 140.349 22.9419 199.68 61.1035 200.767C95.9108 201.757 88.1287 173.317 85.8648 171.336C83.6009 169.355 92.0902 189.588 78.0828 189.871C61.1951 190.212 58.1323 174.166 52.4727 174.024C46.8132 173.883 38.2528 181.382 37.4041 167.799C36.5547 154.216 41.0116 131.152 34.5033 140.349Z" fill="white"/>
</g>
<defs>
<clipPath id="clip0_2158_8812">
<rect width="271" height="271" fill="white" transform="translate(0.333984)"/>
</clipPath>
</defs>
</svg>
