<svg width="416" height="253" viewBox="0 0 416 253" fill="none" xmlns="http://www.w3.org/2000/svg">
<mask id="mask0_379_115" style="mask-type:alpha" maskUnits="userSpaceOnUse" x="0" y="0" width="353" height="353">
<rect width="352.038" height="352.038" fill="#D9D9D9"/>
</mask>
<g mask="url(#mask0_379_115)">
<path d="M82.3646 293.363C75.6136 293.363 69.9767 291.102 65.454 286.579C60.9313 282.057 58.6699 276.42 58.6699 269.669V82.3661C58.6699 75.6151 60.9313 69.9782 65.454 65.4555C69.9767 60.9328 75.6136 58.6714 82.3646 58.6714H151.305C150.215 50.9987 152.114 44.1911 157.004 38.2485C161.893 32.3061 168.23 29.335 176.016 29.335C183.801 29.335 190.139 32.3061 195.028 38.2485C199.917 44.1911 201.817 50.9987 200.726 58.6714H269.667C276.418 58.6714 282.055 60.9328 286.578 65.4555C291.1 69.9782 293.362 75.6151 293.362 82.3661V269.669C293.362 276.42 291.1 282.057 286.578 286.579C282.055 291.102 276.418 293.363 269.667 293.363H82.3646ZM176.016 65.1592C179.194 65.1592 181.822 64.1202 183.9 62.0422C185.978 59.9642 187.017 57.3361 187.017 54.158C187.017 50.9799 185.978 48.3519 183.9 46.2738C181.822 44.1958 179.194 43.1568 176.016 43.1568C172.838 43.1568 170.21 44.1958 168.132 46.2738C166.054 48.3519 165.015 50.9799 165.015 54.158C165.015 57.3361 166.054 59.9642 168.132 62.0422C170.21 64.1202 172.838 65.1592 176.016 65.1592ZM73.3382 267.468C86.5396 254.511 101.88 244.305 119.36 236.848C136.839 229.392 155.725 225.664 176.016 225.664C196.307 225.664 215.192 229.392 232.672 236.848C250.152 244.305 265.492 254.511 278.693 267.468V82.3661C278.693 80.1097 277.753 78.0411 275.873 76.1604C273.992 74.2799 271.924 73.3397 269.667 73.3397H82.3646C80.1082 73.3397 78.0396 74.2799 76.1589 76.1604C74.2784 78.0411 73.3382 80.1097 73.3382 82.3661V267.468ZM176.016 191.814C188.315 191.814 198.723 187.555 207.242 179.036C215.761 170.517 220.021 160.108 220.021 147.809C220.021 135.51 215.761 125.102 207.242 116.583C198.723 108.064 188.315 103.805 176.016 103.805C163.717 103.805 153.308 108.064 144.789 116.583C136.271 125.102 132.011 135.51 132.011 147.809C132.011 160.108 136.271 170.517 144.789 179.036C153.308 187.555 163.717 191.814 176.016 191.814ZM86.314 278.695H265.718V276.156C252.817 264.027 238.77 255.024 223.575 249.147C208.38 243.27 192.527 240.332 176.016 240.332C159.881 240.332 144.169 243.223 128.88 249.006C113.591 254.789 99.4025 263.651 86.314 275.592V278.695ZM176.016 177.146C168.024 177.146 161.136 174.254 155.353 168.472C149.571 162.689 146.679 155.801 146.679 147.809C146.679 139.817 149.571 132.93 155.353 127.147C161.136 121.364 168.024 118.473 176.016 118.473C184.008 118.473 190.896 121.364 196.678 127.147C202.461 132.93 205.352 139.817 205.352 147.809C205.352 155.801 202.461 162.689 196.678 168.472C190.896 174.254 184.008 177.146 176.016 177.146Z" fill="#4130BA"/>
</g>
<rect width="235.74" height="311.298" rx="27.4726" transform="matrix(0.926969 0.375138 0.375138 -0.926969 88.0098 288.565)" fill="#E68832" fill-opacity="0.3"/>
</svg>
