<svg width="509" height="297" viewBox="0 0 509 297" fill="none" xmlns="http://www.w3.org/2000/svg">
<path d="M106.595 312.261H73.7969V295.862C73.7969 265.297 94.7019 239.613 122.994 232.332" stroke="#4130BA" stroke-width="18.449" stroke-linecap="round" stroke-linejoin="round"/>
<path d="M155.79 178.269C136.682 171.516 122.992 153.292 122.992 131.871C122.992 110.451 136.682 92.2273 155.79 85.4736" stroke="#4130BA" stroke-width="18.449" stroke-linecap="round" stroke-linejoin="round"/>
<path d="M401.774 312.261H434.572V295.862C434.572 265.297 413.667 239.613 385.375 232.332" stroke="#4130BA" stroke-width="18.449" stroke-linecap="round" stroke-linejoin="round"/>
<path d="M352.586 85.4736C371.694 92.2273 385.384 110.451 385.384 131.871C385.384 153.292 371.694 171.516 352.586 178.269" stroke="#4130BA" stroke-width="18.449" stroke-linecap="round" stroke-linejoin="round"/>
<path d="M286.989 230.267H221.393C185.165 230.267 155.797 259.636 155.797 295.863V312.262H352.586V295.863C352.586 259.636 323.217 230.267 286.989 230.267Z" stroke="#4130BA" stroke-width="18.449" stroke-linecap="round" stroke-linejoin="round"/>
<path d="M254.189 181.069C281.361 181.069 303.387 159.043 303.387 131.872C303.387 104.701 281.361 82.6748 254.189 82.6748C227.018 82.6748 204.992 104.701 204.992 131.872C204.992 159.043 227.018 181.069 254.189 181.069Z" stroke="#4130BA" stroke-width="18.449" stroke-linecap="round" stroke-linejoin="round"/>
<rect width="263.558" height="348.031" rx="131.779" transform="matrix(0.899223 -0.43749 -0.43749 -0.899223 243.465 425.553)" fill="#306CC7" fill-opacity="0.3"/>
</svg>
