<svg width="83" height="64" viewBox="0 0 83 64" fill="none" xmlns="http://www.w3.org/2000/svg">
<path d="M17.3333 50.6663H12V47.9996C12 43.0295 15.3994 38.8529 20 37.6689" stroke="#252C3A" stroke-width="3" stroke-linecap="round" stroke-linejoin="round"/>
<path d="M25.3333 28.8776C22.2262 27.7795 20 24.8161 20 21.3329C20 17.8496 22.2262 14.8863 25.3333 13.7881" stroke="#252C3A" stroke-width="3" stroke-linecap="round" stroke-linejoin="round"/>
<path d="M65.3327 50.6663H70.666V47.9996C70.666 43.0295 67.2665 38.8529 62.666 37.6689" stroke="#252C3A" stroke-width="3" stroke-linecap="round" stroke-linejoin="round"/>
<path d="M57.334 13.7881C60.4412 14.8863 62.6673 17.8496 62.6673 21.3329C62.6673 24.8161 60.4412 27.7795 57.334 28.8776" stroke="#252C3A" stroke-width="3" stroke-linecap="round" stroke-linejoin="round"/>
<path d="M46.6673 37.333H36.0007C30.1096 37.333 25.334 42.1087 25.334 47.9997V50.6663H57.334V47.9997C57.334 42.1087 52.5583 37.333 46.6673 37.333Z" stroke="#252C3A" stroke-width="3" stroke-linecap="round" stroke-linejoin="round"/>
<path d="M41.334 29.333C45.7524 29.333 49.334 25.7513 49.334 21.333C49.334 16.9147 45.7524 13.333 41.334 13.333C36.9156 13.333 33.334 16.9147 33.334 21.333C33.334 25.7513 36.9156 29.333 41.334 29.333Z" stroke="#252C3A" stroke-width="3" stroke-linecap="round" stroke-linejoin="round"/>
<rect width="42.8573" height="56.5936" rx="21.4286" transform="matrix(0.899223 -0.43749 -0.43749 -0.899223 39.5898 69.0889)" fill="#306CC7" fill-opacity="0.3"/>
</svg>
