<svg width="180" height="38" viewBox="0 0 254 49" fill="none" xmlns="http://www.w3.org/2000/svg"><path d="M64.613 37.202v-24.8h5.298v24.8h-5.298Zm15.845 0v-14.31c0-1.653-.491-3.014-1.47-4.084-.978-1.066-2.24-1.6-3.78-1.6-1.026 0-1.941.243-2.745.722a4.99 4.99 0 0 0-1.879 2.016c-.45.862-.673 1.844-.673 2.946l-2.069-1.242c0-1.892.384-3.572 1.154-5.037.77-1.465 1.838-2.619 3.203-3.46 1.365-.843 2.898-1.266 4.598-1.266 1.734 0 3.274.47 4.625 1.42a10.037 10.037 0 0 1 3.177 3.669c.77 1.497 1.153 3.058 1.153 4.674v15.552h-5.294ZM93.844 7.86c-.9 0-1.645-.327-2.24-.981-.595-.655-.89-1.465-.89-2.427s.299-1.776.89-2.431c.595-.655 1.34-.982 2.24-.982.93 0 1.685.327 2.262.982.576.655.866 1.465.866 2.43 0 .967-.286 1.777-.866 2.428-.577.654-1.332.982-2.262.982Zm-2.65 29.343v-24.8h5.299v24.8h-5.298ZM102.414 37.202v-24.8h5.298v24.8h-5.298Zm15.841 0v-14.31c0-1.653-.491-3.014-1.469-4.084-.979-1.066-2.24-1.6-3.78-1.6-1.027 0-1.942.243-2.746.722a5.002 5.002 0 0 0-1.879 2.016c-.45.862-.673 1.844-.673 2.946l-2.068-1.242c0-1.892.383-3.572 1.153-5.037.77-1.465 1.838-2.619 3.203-3.46 1.365-.843 2.898-1.266 4.598-1.266 1.734 0 3.274.47 4.625 1.42a10.043 10.043 0 0 1 3.177 3.669c.77 1.497 1.153 3.058 1.153 4.674v15.552h-5.294ZM126.633 17.57v-5.165h16.373v5.165h-16.373Zm5.536 19.63V2.07h5.297V37.2h-5.297ZM146.859 37.202V.004h5.298v37.198h-5.298Zm15.841 0v-14.31c0-1.653-.491-3.014-1.469-4.084-.979-1.065-2.24-1.6-3.78-1.6-1.027 0-1.942.243-2.746.722a4.992 4.992 0 0 0-1.878 2.016c-.45.862-.674 1.844-.674 2.946l-2.072-1.241c0-1.892.383-3.573 1.157-5.038.77-1.465 1.838-2.618 3.203-3.46 1.366-.843 2.898-1.266 4.599-1.266 1.733 0 3.273.411 4.624 1.237 1.347.827 2.407 1.972 3.177 3.437.77 1.465 1.157 3.162 1.157 5.09V37.2H162.7ZM182.78 36.687c-2.053 0-3.91-.543-5.562-1.629-1.655-1.086-2.953-2.575-3.898-4.466-.949-1.896-1.422-4.012-1.422-6.355 0-2.343.473-4.443 1.422-6.303.945-1.86 2.247-3.333 3.898-4.419 1.652-1.085 3.509-1.628 5.562-1.628 1.831 0 3.434.395 4.814 1.19a8.385 8.385 0 0 1 3.226 3.28c.77 1.393 1.153 3.022 1.153 4.882v6.095c0 1.825-.394 3.445-1.179 4.858a8.479 8.479 0 0 1-3.252 3.305c-1.376.794-2.965 1.19-4.762 1.19Zm.238 11.364c-2.44 0-4.576-.475-6.402-1.421a11.526 11.526 0 0 1-4.431-4.004l3.467-3.72c.93 1.242 1.991 2.172 3.177 2.79 1.187.619 2.616.93 4.286.93 2.087 0 3.739-.578 4.959-1.732 1.221-1.154 1.831-2.73 1.831-4.726v-6.095l.915-5.477-.915-5.528v-6.666h5.297v23.766c0 2.375-.513 4.45-1.54 6.227-1.027 1.772-2.455 3.161-4.286 4.159-1.83.998-3.947 1.497-6.358 1.497Zm.823-16.737c1.283 0 2.407-.291 3.37-.878.964-.587 1.712-1.405 2.24-2.455.528-1.05.796-2.28.796-3.692 0-1.413-.264-2.643-.796-3.693-.528-1.05-1.276-1.868-2.24-2.454-.963-.587-2.087-.879-3.37-.879-1.284 0-2.419.292-3.397.879-.978.586-1.741 1.405-2.288 2.454-.547 1.05-.818 2.284-.818 3.693 0 1.377.271 2.598.818 3.668.543 1.07 1.306 1.896 2.288 2.479.978.587 2.109.878 3.397.878ZM201.078 37.202v-24.8h5.298v24.8h-5.298Zm5.298-13.795-1.831-.982c0-3.134.651-5.677 1.95-7.62 1.298-1.944 3.266-2.918 5.9-2.918 1.157 0 2.199.223 3.129.67.93.447 1.797 1.174 2.601 2.172l-3.468 3.824c-.416-.483-.882-.826-1.395-1.034-.513-.208-1.109-.311-1.782-.311-1.477 0-2.697.498-3.661 1.5-.963.998-1.443 2.563-1.443 4.699ZM223.375 7.859c-.9 0-1.645-.328-2.24-.982-.595-.655-.889-1.465-.889-2.427s.298-1.776.889-2.431c.595-.655 1.34-.982 2.24-.982.93 0 1.685.327 2.262.982.576.655.867 1.465.867 2.431s-.291 1.776-.867 2.427c-.577.654-1.332.982-2.262.982ZM220.726 37.2v-24.8h5.298v24.8h-5.298ZM241.624 37.72c-2.087 0-3.974-.566-5.659-1.703-1.685-1.138-3.017-2.679-3.995-4.627-.979-1.944-1.47-4.123-1.47-6.534 0-2.447.487-4.642 1.47-6.586.978-1.944 2.31-3.497 3.995-4.65 1.685-1.154 3.572-1.729 5.659-1.729 1.767 0 3.329.403 4.695 1.213a8.932 8.932 0 0 1 3.251 3.334c.804 1.413 1.206 3.013 1.206 4.806v7.128c0 1.793-.395 3.393-1.18 4.806a8.713 8.713 0 0 1-3.251 3.333c-1.38.803-2.954 1.21-4.721 1.21Zm.867-5.372c1.316 0 2.462-.32 3.441-.958.978-.639 1.741-1.525 2.288-2.658.547-1.138.818-2.447.818-3.928 0-1.48-.271-2.79-.818-3.928-.547-1.137-1.31-2.024-2.288-2.658-.979-.639-2.11-.958-3.393-.958-1.317 0-2.463.32-3.441.958-.979.639-1.753 1.525-2.311 2.658-.561 1.138-.84 2.447-.84 3.928 0 1.48.282 2.79.84 3.928.558 1.137 1.332 2.024 2.311 2.658.978.639 2.109.958 3.393.958Zm11.51 4.854h-5.298v-6.666l.916-6.043-.916-5.996V0h5.298v37.202ZM27.002 2.426H0v42.872h42.873V18.297c0-8.762-7.106-15.871-15.871-15.871Zm4.551 32.728h-5.07V22.389c0-1.475-.467-2.687-1.405-3.64-.938-.952-2.142-1.427-3.618-1.427-.986 0-1.86.215-2.628.645a4.606 4.606 0 0 0-1.797 1.798c-.43.767-.645 1.645-.645 2.627v12.765h-5.07V13.034h5.07v2.516a8.142 8.142 0 0 1 2.19-1.85c1.305-.752 2.773-1.13 4.4-1.13 1.66 0 3.136.423 4.426 1.268a9.133 9.133 0 0 1 3.043 3.273c.737 1.338 1.108 2.728 1.108 4.17v13.873h-.004Z" fill="#000"></path></svg>