<svg width="124" height="103" viewBox="0 0 124 103" fill="none" xmlns="http://www.w3.org/2000/svg">
<path d="M57.7329 13.1191H66.2663C68.6228 13.1191 70.5329 15.0294 70.5329 17.3858V19.8127C70.5329 21.6379 71.7579 23.2237 73.4437 23.9235C75.1303 24.6237 77.0938 24.3569 78.3849 23.0657L80.1014 21.3492C81.7675 19.6829 84.4692 19.6829 86.1353 21.3492L92.1692 27.3831C93.8358 29.0494 93.8353 31.7509 92.1692 33.4172L90.4532 35.1335C89.1616 36.4247 88.895 38.3884 89.5951 40.0749C90.2949 41.7608 91.8808 42.9858 93.7065 42.9858H96.1329C98.4894 42.9858 100.4 44.896 100.4 47.2525V55.7859C100.4 58.1423 98.4894 60.0525 96.1329 60.0525H93.7061C91.8808 60.0525 90.2953 61.2775 89.5951 62.9633C88.895 64.6499 89.1616 66.6134 90.4532 67.9045L92.1692 69.621C93.8358 71.2871 93.8358 73.9888 92.1692 75.6549L86.1353 81.6888C84.4692 83.3554 81.7675 83.3554 80.1014 81.6888L78.3849 79.9728C77.0938 78.6813 75.1303 78.4146 73.4437 79.1147C71.7579 79.8149 70.5329 81.4004 70.5329 83.2257V85.6526C70.5329 88.009 68.6228 89.9192 66.2663 89.9192H57.7329C55.3765 89.9192 53.4663 88.009 53.4663 85.6526V83.2261C53.4663 81.4004 52.2412 79.8145 50.5553 79.1147C48.8688 78.4146 46.9051 78.6813 45.6139 79.9728L43.8975 81.6888C42.2312 83.3554 39.5298 83.3554 37.8635 81.6888L31.8295 75.6549C30.1633 73.9888 30.1633 71.2871 31.8295 69.621L33.5462 67.9045C34.8373 66.6134 35.1042 64.6499 34.404 62.9633C33.7041 61.2775 32.1184 60.0525 30.2931 60.0525H27.8663C25.5099 60.0525 23.5996 58.1423 23.5996 55.7859V47.2525C23.5996 44.896 25.5099 42.9858 27.8663 42.9858H30.293C32.1184 42.9858 33.7041 41.7608 34.404 40.075C35.1042 38.3885 34.8374 36.4249 33.5462 35.1337L31.8296 33.4172C30.1634 31.7509 30.1634 29.0494 31.8296 27.3832L37.8636 21.3492C39.5299 19.6829 42.2313 19.6829 43.8976 21.3492L45.6142 23.0657C46.9053 24.357 48.8689 24.6238 50.5554 23.9236C52.2412 23.2237 53.4663 21.6379 53.4663 19.8125V17.3858C53.4663 15.0294 55.3765 13.1191 57.7329 13.1191Z" stroke="#252C3A" stroke-width="4.8"/>
<path d="M70.5315 51.5197C70.5315 56.2326 66.7111 60.053 61.9982 60.053C57.2852 60.053 53.4648 56.2326 53.4648 51.5197C53.4648 46.8067 57.2852 42.9863 61.9982 42.9863C66.7111 42.9863 70.5315 46.8067 70.5315 51.5197Z" stroke="#252C3A" stroke-width="4.8"/>
<rect width="68.5718" height="90.5498" rx="34.2859" transform="matrix(0.190767 0.981635 0.981635 -0.190767 -2 36.5693)" fill="#4130BA" fill-opacity="0.3"/>
</svg>
