<svg width="677" height="364" viewBox="0 0 677 364" fill="none" xmlns="http://www.w3.org/2000/svg">
<path d="M489.54 183.48H256.11C253.437 183.48 251.27 185.647 251.27 188.32V188.75C251.27 191.423 253.437 193.59 256.11 193.59H489.54C492.213 193.59 494.38 191.423 494.38 188.75V188.32C494.38 185.647 492.213 183.48 489.54 183.48Z" stroke="#DDDDDD" stroke-width="2" stroke-miterlimit="10"/>
<path d="M487.88 11.83H257.77C254.18 11.83 251.27 14.7401 251.27 18.33V18.92C251.27 22.5098 254.18 25.42 257.77 25.42H487.88C491.47 25.42 494.38 22.5098 494.38 18.92V18.33C494.38 14.7401 491.47 11.83 487.88 11.83Z" stroke="#DDDDDD" stroke-width="2" stroke-miterlimit="10"/>
<path d="M485.45 25.42H260.19V183.48H485.45V25.42Z" stroke="#DDDDDD" stroke-width="2" stroke-miterlimit="10"/>
<path d="M468.78 71.57L443.4 71.03C443.4 71.03 449.67 55.57 445.59 44.35L469.99 43.83C471.126 46.9466 471.855 50.1968 472.16 53.5C472.68 58.79 472.27 65.45 468.78 71.57Z" stroke="#DDDDDD" stroke-linecap="round" stroke-linejoin="round"/>
<path d="M451.82 52.67H467.82" stroke="#DDDDDD" stroke-linecap="round" stroke-linejoin="round"/>
<path d="M451.03 61.91H467.03" stroke="#DDDDDD" stroke-linecap="round" stroke-linejoin="round"/>
<path d="M454.61 57.16L467.2 57.41" stroke="#DDDDDD" stroke-linecap="round" stroke-linejoin="round"/>
<path d="M277.23 48.7H302.03C302.03 48.7 300.67 67.95 308.37 74.52L280.86 75.2C280.86 75.2 275.42 66.14 277.23 48.7Z" stroke="#DDDDDD" stroke-linecap="round" stroke-linejoin="round"/>
<path d="M293.61 56.71H297.63" stroke="#DDDDDD" stroke-linecap="round" stroke-linejoin="round"/>
<path d="M281.66 56.71H291.6" stroke="#DDDDDD" stroke-linecap="round" stroke-linejoin="round"/>
<path d="M282.46 62.53H292.62" stroke="#DDDDDD" stroke-linecap="round" stroke-linejoin="round"/>
<path d="M283.5 67.41C283.7 67.21 298.61 67.05 298.61 67.05" stroke="#DDDDDD" stroke-linecap="round" stroke-linejoin="round"/>
<path d="M316.88 72.3H340.08C340.08 72.3 338.46 91.87 344.66 98.84H320.32C315.862 90.7454 314.633 81.2636 316.88 72.3Z" fill="#DDDDDD" stroke="#DDDDDD" stroke-linecap="round" stroke-linejoin="round"/>
<path d="M322.04 85.91H335.42" stroke="#F9F9F9" stroke-linecap="round" stroke-linejoin="round"/>
<path d="M322.7 91.03H330.45" stroke="#F9F9F9" stroke-linecap="round" stroke-linejoin="round"/>
<path d="M322.04 78.91L333.96 79.48" stroke="#F9F9F9" stroke-linecap="round" stroke-linejoin="round"/>
<path d="M318.97 133.83L336.52 133.16L348.65 98.84L389.44 94.9L408.98 62.53" stroke="#DDDDDD" stroke-width="2" stroke-linecap="round" stroke-linejoin="round"/>
<path d="M410.02 60.75L397.86 69.43L408 75.56L410.02 60.75Z" fill="#DDDDDD" stroke="#DDDDDD" stroke-width="2" stroke-linecap="round" stroke-linejoin="round"/>
<path d="M196.25 70.26C215.376 70.26 230.88 54.7556 230.88 35.63C230.88 16.5044 215.376 1 196.25 1C177.124 1 161.62 16.5044 161.62 35.63C161.62 54.7556 177.124 70.26 196.25 70.26Z" stroke="#DDDDDD" stroke-width="2" stroke-linecap="round" stroke-linejoin="round"/>
<path d="M179.55 17.55L196.25 35.63L210.15 28.07" stroke="#DDDDDD" stroke-width="2" stroke-linecap="round" stroke-linejoin="round"/>
<path d="M457.19 301.66H398.37C392.284 301.66 387.35 306.594 387.35 312.68V313.68C387.35 319.766 392.284 324.7 398.37 324.7H457.19C463.276 324.7 468.21 319.766 468.21 313.68V312.68C468.21 306.594 463.276 301.66 457.19 301.66Z" stroke="#DDDDDD" stroke-miterlimit="10"/>
<path d="M223.03 136.61H190.26C182.324 136.61 175.89 143.044 175.89 150.98V152.28C175.89 160.216 182.324 166.65 190.26 166.65H223.03C230.966 166.65 237.4 160.216 237.4 152.28V150.98C237.4 143.044 230.966 136.61 223.03 136.61Z" stroke="#DDDDDD" stroke-miterlimit="10"/>
<path d="M596.89 43.48H549.85C547.089 43.48 544.85 45.7186 544.85 48.48V48.93C544.85 51.6914 547.089 53.93 549.85 53.93H596.89C599.651 53.93 601.89 51.6914 601.89 48.93V48.48C601.89 45.7186 599.651 43.48 596.89 43.48Z" stroke="#DDDDDD" stroke-miterlimit="10"/>
<path d="M117.32 26.74H58.5C52.4138 26.74 47.48 31.6738 47.48 37.76V38.76C47.48 44.8462 52.4138 49.78 58.5 49.78H117.32C123.406 49.78 128.34 44.8462 128.34 38.76V37.76C128.34 31.6738 123.406 26.74 117.32 26.74Z" stroke="#DDDDDD" stroke-miterlimit="10"/>
<path d="M67.9298 200.52L101.32 189.75L125.69 204.19L130.28 348.65H86.2798L67.9298 200.52Z" fill="#E68832"/>
<path d="M97.7798 343.94H19.4998L23.2998 235.94C22.1545 233.576 21.1527 231.145 20.2998 228.66C11.1798 201.66 30.1198 189.75 42.7398 186.74C51.3798 184.69 63.8198 185.07 71.0398 185.38C73.2298 185.47 74.9398 185.55 75.9198 185.55C81.7195 204.311 86.3945 223.402 89.9198 242.72C90.4332 245.447 90.9065 248.14 91.3398 250.8C91.3442 250.823 91.3442 250.847 91.3398 250.87C100.55 305.52 97.7798 343.94 97.7798 343.94Z" fill="#8ADD8F"/>
<path d="M169.32 306.68C157.11 313.83 140.74 309.4 140.74 309.4L138.92 345.53L122.92 346.53C122.92 346.53 125.5 314.47 124.5 283.8C124.13 272.97 123.05 261.03 121.58 249.16C121.2 246.16 120.81 243.21 120.39 240.26C117.75 221.65 114.29 203.94 111.25 191.82C114.111 190.18 117.212 188.999 120.44 188.32C127.715 186.877 135.251 187.544 142.16 190.24V190.24C142.86 194.67 143.85 203.66 144.84 213.7C146.84 233.96 148.91 258.51 148.91 258.51C151.04 228.21 180.32 226.58 183.67 272.42C183.87 294.04 178.64 301.24 169.32 306.68Z" fill="#8ADD8F"/>
<path d="M168.72 270.78L132.59 279.34L136.5 215.66L137.34 202.03L142.17 190.24C142.17 190.24 159.51 200.42 163.24 211.1C164.288 214.798 165.001 218.584 165.37 222.41C167.65 240.56 168.72 270.78 168.72 270.78Z" fill="#8ADD8F"/>
<path d="M165.37 222.42C160.02 219.08 152.01 214.77 144.85 213.71L136.5 215.66L137.34 202.03L142.17 190.24C142.17 190.24 159.51 200.42 163.24 211.1C164.288 214.802 165.001 218.59 165.37 222.42V222.42Z" fill="#8ADD8F"/>
<path d="M75.9498 185.55C81.7495 204.311 86.4245 223.402 89.9498 242.72C86.2794 240.238 83.057 237.151 80.4198 233.59C59.6498 206.59 36.3298 209.97 20.2998 228.66C11.1798 201.66 30.1198 189.75 42.7398 186.74C51.3798 184.69 63.8198 185.07 71.0398 185.38C73.2598 185.47 74.9698 185.55 75.9498 185.55Z" fill="#8ADD8F"/>
<path d="M144.85 213.71C142.14 215.16 140.18 216.92 139.31 218.71C137.05 223.45 129.87 233.58 120.38 240.23C117.74 221.62 114.28 203.91 111.24 191.79C114.101 190.15 117.202 188.969 120.43 188.29C127.714 186.845 135.259 187.522 142.17 190.24C142.87 194.68 143.86 203.67 144.85 213.71Z" fill="#8ADD8F"/>
<path d="M91.3998 250.8C88.7498 238.24 70.7198 220.51 70.7198 220.51L74.6698 209.81L66.7798 206.1L71.0699 185.38C73.2599 185.47 74.9698 185.55 75.9498 185.55C82.5732 206.925 87.7351 228.725 91.3998 250.8V250.8Z" fill="#8ADD8F"/>
<path d="M132.59 218.09C127.612 227.934 123.915 238.376 121.59 249.16C119.226 229.868 115.777 210.724 111.26 191.82C114.121 190.18 117.222 188.999 120.45 188.32L131.16 205.24L124.6 212.75L132.59 218.09Z" fill="#8ADD8F"/>
<path d="M80.9199 179.78C78.9809 181.453 77.2964 183.4 75.9199 185.56L77.6799 209.81C77.6799 209.81 85.6799 198.81 99.0799 199.6L80.9199 179.78Z" fill="white"/>
<path d="M109.74 183.24C109.74 183.46 105.29 199.37 105.29 199.37C105.29 199.37 114.02 203.28 120.04 209.86C120.04 209.86 117.11 192.04 116.04 189.06C114.97 186.08 109.74 183.24 109.74 183.24Z" fill="white"/>
<path d="M140.79 223.96C141.17 234.81 141.27 298.85 140.79 309.4" stroke="#8ADD8F" stroke-width="0.75" stroke-linecap="round" stroke-linejoin="round"/>
<path d="M114.28 167.54L111.88 172.27L111.4 173.27C111.4 173.27 110.52 177.7 109.99 181.43C109.726 182.949 109.598 184.488 109.61 186.03C109.84 188.53 111.4 201.76 98.5198 200.44C85.6398 199.12 80.5198 182.33 80.5198 182.33C80.9998 178.16 85.7098 157.1 85.7098 157.1C85.7098 157.1 90.6298 145.35 105.5 147.44C115.5 148.84 114.72 160.02 113.13 167.2L114.28 167.54Z" fill="#FEBD9D"/>
<path d="M114.28 167.54L111.88 172.27L111.4 173.27C111.4 173.27 110.52 177.7 109.99 181.43C103.59 179.76 95.5199 174.15 96.8699 162.07L113.14 167.2L114.28 167.54Z" fill="#F4A789"/>
<path d="M85.0598 148.73C71.2898 137.19 73.9398 122.04 85.0598 124.48C85.0598 124.48 80.9298 118.54 89.1898 111.13C94.0198 106.79 102.29 105.74 107.94 109.96C111.64 112.74 118.84 109.73 120.12 107.53C126.96 114.09 123.86 125.58 114.97 126.64L85.0598 148.73Z" fill="#BF8228"/>
<path d="M86.4998 148.32C78.8298 140.32 78.4998 130.04 85.4498 126.19C85.4498 126.19 84.0398 114.66 97.5298 113.44C112.17 112.12 116.72 123.11 110.69 131.28L86.4998 148.32Z" fill="#BF8228"/>
<path d="M95.2398 128.01C96.2398 119.86 101.94 115.07 107.98 115.74C114.02 116.41 119.08 114.61 119.8 111.27" stroke="#7F542D" stroke-width="0.75" stroke-linecap="round" stroke-linejoin="round"/>
<path d="M104.34 121.53C104.87 121.53 118.93 126.71 121.48 115.97" stroke="#7F542D" stroke-width="0.75" stroke-linecap="round" stroke-linejoin="round"/>
<path d="M84.4998 144.73C84.4998 144.5 89.2798 137.73 88.4398 131.04" stroke="#7F542D" stroke-width="0.75" stroke-linecap="round" stroke-linejoin="round"/>
<path d="M84.6598 148.09C81.3298 143.26 77.3798 131.21 85.0598 128.33" stroke="#7F542D" stroke-width="0.75" stroke-linecap="round" stroke-linejoin="round"/>
<path d="M85.0598 124.48C85.8123 124.445 86.5629 124.581 87.2555 124.877C87.9482 125.173 88.565 125.622 89.0598 126.19" stroke="#7F542D" stroke-width="0.75" stroke-linecap="round" stroke-linejoin="round"/>
<path d="M88.4998 120.81C89.3898 113.17 100.67 107.4 107.67 109.81" stroke="#7F542D" stroke-width="0.75" stroke-linecap="round" stroke-linejoin="round"/>
<path d="M121.99 152.4L121.56 153.24L114.28 167.54L111.88 172.27L111.39 173.27L98.9798 162.74L90.9798 155.92C89.2728 156.472 87.5188 156.867 85.7398 157.1C84.2393 157.055 82.7938 156.525 81.6201 155.59C80.4463 154.654 79.6076 153.363 79.2298 151.91C77.5198 146.37 81.7298 142.58 86.2298 143.38C86.8669 143.482 87.4864 143.674 88.0698 143.95C94.1998 139.76 94.1798 131.53 90.8798 129.07C89.6898 122.52 103.93 115.56 106.26 120.61C109.53 127.72 114.97 126.61 114.97 126.61C117.175 131.747 118.98 137.046 120.37 142.46C120.45 142.78 120.53 143.11 120.6 143.41C121.377 146.35 121.843 149.363 121.99 152.4Z" fill="#FEBD9D"/>
<path d="M101.77 162.48C106.183 162.48 109.76 158.903 109.76 154.49C109.76 150.077 106.183 146.5 101.77 146.5C97.357 146.5 93.7798 150.077 93.7798 154.49C93.7798 158.903 97.357 162.48 101.77 162.48Z" fill="#F4A789"/>
<path d="M121.99 152.4L121.56 153.24C120.718 152.654 120.012 151.895 119.488 151.014C118.964 150.132 118.635 149.149 118.522 148.13C118.41 147.111 118.516 146.08 118.835 145.105C119.153 144.131 119.677 143.236 120.37 142.48C120.45 142.8 120.53 143.13 120.6 143.43C121.376 146.363 121.842 149.37 121.99 152.4Z" fill="#F4A789"/>
<path d="M114.28 167.54L111.88 172.27L111.39 173.27L98.9798 162.74L114.28 167.54Z" fill="#F4A789"/>
<path d="M106.63 142.01C107.37 142.01 107.97 141.41 107.97 140.67C107.97 139.93 107.37 139.33 106.63 139.33C105.89 139.33 105.29 139.93 105.29 140.67C105.29 141.41 105.89 142.01 106.63 142.01Z" fill="#683F1D"/>
<path d="M115.93 139.32C116.67 139.32 117.27 138.72 117.27 137.98C117.27 137.24 116.67 136.64 115.93 136.64C115.19 136.64 114.59 137.24 114.59 137.98C114.59 138.72 115.19 139.32 115.93 139.32Z" fill="#683F1D"/>
<path d="M110.03 127.69C109.92 129.86 116.03 129.52 116.44 128.87C117 128.01 110.22 124.07 110.03 127.69Z" fill="#BF8228"/>
<path d="M97.8398 133.43C97.4598 135.82 103.92 132.18 104.29 130.79C104.357 130.493 104.355 130.185 104.285 129.889C104.215 129.593 104.079 129.317 103.886 129.081C103.693 128.846 103.449 128.658 103.172 128.531C102.896 128.404 102.594 128.342 102.29 128.35C100.88 128.53 98.0998 131.78 97.8398 133.43Z" fill="#BF8228"/>
<path d="M126.5 159.54C126.491 160.718 126.357 161.891 126.1 163.04C123.61 173.83 110.6 177.51 98.9098 167.04C89.0398 158.21 86.2298 143.4 86.2298 143.4C86.2269 143.38 86.2269 143.36 86.2298 143.34C86.8669 143.442 87.4864 143.634 88.0698 143.91C88.0698 143.91 90.5898 150.68 95.6598 154.8C97.8998 156.63 99.9898 157.6 102.06 157.62C104.66 157.62 107.23 156.17 110.06 153.02C115.06 147.38 118.84 147.89 120.23 148.21C120.632 146.64 120.764 145.014 120.62 143.4C122.69 145.77 126.58 152.58 126.5 159.54Z" fill="#BF8228"/>
<path d="M110.66 133.43C111.53 139.88 113.78 141.07 116.9 142.02C118.84 142.62 116.9 146.32 116.9 146.32" stroke="#F4A789" stroke-width="0.75" stroke-linecap="round" stroke-linejoin="round"/>
<path d="M119.66 150.74C119.08 157.58 112.24 158.08 110.9 154.41C110.9 154.41 116.68 153.46 119.66 150.74Z" fill="white" stroke="#F4A789" stroke-width="0.75" stroke-linecap="round" stroke-linejoin="round"/>
<path d="M85.6998 157.08C86.8719 157.018 88.025 156.758 89.1098 156.31" stroke="#F4A789" stroke-width="0.75" stroke-linecap="round" stroke-linejoin="round"/>
<path d="M82.4398 149.38C83.2298 148.15 86.8498 146.57 88.3898 150.74" stroke="#F4A789" stroke-width="0.75" stroke-linecap="round" stroke-linejoin="round"/>
<path d="M87.6898 149.39C84.2098 148.9 84.0098 154.2 88.2498 153.19" stroke="#F4A789" stroke-width="0.75" stroke-linecap="round" stroke-linejoin="round"/>
<path d="M108.274 136.751L99.3334 139.842C98.6444 140.08 98.279 140.831 98.5172 141.52L100.063 145.991C100.301 146.68 101.052 147.045 101.741 146.807L110.682 143.716C111.371 143.478 111.737 142.727 111.498 142.038L109.953 137.567C109.715 136.878 108.963 136.513 108.274 136.751Z" stroke="#683F1D" stroke-linecap="round" stroke-linejoin="round"/>
<path d="M115.07 134.75L122.9 132.04C123.215 131.932 123.561 131.953 123.861 132.099C124.161 132.245 124.391 132.505 124.5 132.82L126.08 137.41C126.189 137.724 126.169 138.069 126.025 138.369C125.88 138.668 125.623 138.899 125.31 139.01L118.92 141.21" stroke="#683F1D" stroke-linecap="round" stroke-linejoin="round"/>
<path d="M126.5 159.54C126.491 160.718 126.357 161.891 126.1 163.04C123.61 173.83 110.6 177.51 98.9098 167.04C89.0398 158.21 86.2298 143.4 86.2298 143.4C86.2269 143.38 86.2269 143.36 86.2298 143.34C86.8669 143.442 87.4864 143.634 88.0698 143.91C88.0698 143.91 90.5898 150.68 95.6598 154.8C97.8998 156.63 99.9898 157.6 102.06 157.62C107.47 163.73 111.54 165.62 116.48 164.94C120.36 164.402 123.917 162.485 126.5 159.54Z" fill="#BF8228"/>
<path d="M105.74 171.58C113.49 167.77 119.58 167.16 123.65 168.31" stroke="#7F542D" stroke-width="0.75" stroke-linecap="round" stroke-linejoin="round"/>
<path d="M99.5698 167.64C106.14 164.08 118.57 163.26 125.69 164.43" stroke="#7F542D" stroke-width="0.75" stroke-linecap="round" stroke-linejoin="round"/>
<path d="M90.0898 154.75C96.8498 165.04 114.8 160.98 118.84 158.59C122.67 156.31 122.39 150.37 120.43 147.18" stroke="#7F542D" stroke-width="0.75" stroke-linecap="round" stroke-linejoin="round"/>
<path d="M110.5 139.01L113.3 138.01" stroke="#683F1D" stroke-linecap="round" stroke-linejoin="round"/>
<path d="M123.56 130.83C122.42 132.13 125.14 134.77 129.26 136.18C131.711 137.02 133.919 138.449 135.69 140.34C135.69 140.34 134.74 146 138.06 148.01C138.06 148.01 136.59 149.77 135.64 148.53C134.69 147.29 132.72 140.79 129.04 141.21C126.5 141.5 130.34 148.83 130.89 151.7C131.44 154.57 133.11 158.6 136.59 160.28C140.07 161.96 143.7 172.07 143.7 172.07C143.7 172.07 157.76 166.96 157.81 166.84C157.86 166.72 155.92 161.84 155.92 161.84C155.92 161.84 156.31 154.73 156.26 149.45C156.21 144.17 154.42 140.24 150.18 140.11C150.18 140.11 150.61 137.49 147.3 137.24C147.3 137.24 147.08 133.24 140.3 135.31C140.32 135.33 126 128.04 123.56 130.83Z" fill="#FEBD9D"/>
<path d="M142.17 176.96C141.97 176.67 140.93 170.51 140.93 170.51L158.12 164.96L161.12 171.96L142.17 176.96Z" fill="white"/>
<path d="M150.18 140.13C150.18 140.13 150.61 137.51 147.3 137.26C147.3 137.26 147.08 133.26 140.3 135.33C140.3 135.33 125.98 128.04 123.54 130.83C122.4 132.13 125.12 134.77 129.24 136.18C131.691 137.02 133.899 138.449 135.67 140.34C135.67 140.34 134.72 146 138.04 148.01C138.04 148.01 136.57 149.77 135.62 148.53C134.67 147.29 132.7 140.79 129.02 141.21C126.48 141.5 130.32 148.83 130.87 151.7C131.42 154.57 133.09 158.6 136.57 160.28" stroke="#F4A789" stroke-width="0.75" stroke-linecap="round" stroke-linejoin="round"/>
<path d="M135.83 148.73C137.2 149.61 144.53 150.31 144.9 155.9" stroke="#F4A789" stroke-width="0.75" stroke-linecap="round" stroke-linejoin="round"/>
<path d="M138.06 148.01C138.452 148.196 138.883 148.284 139.317 148.267C139.751 148.25 140.174 148.127 140.55 147.91" stroke="#F4A789" stroke-width="0.75" stroke-linecap="round" stroke-linejoin="round"/>
<path d="M135.69 140.34C136.058 139.223 136.662 138.199 137.461 137.336C138.26 136.474 139.235 135.793 140.32 135.34" stroke="#F4A789" stroke-width="0.75" stroke-linecap="round" stroke-linejoin="round"/>
<path d="M147.13 137.24C141.06 139.37 140.05 143.83 140.32 146.37C140.59 148.91 141.69 149.92 143.13 149.7C143.502 149.608 143.842 149.419 144.117 149.152C144.391 148.885 144.589 148.549 144.69 148.18" stroke="#F4A789" stroke-width="0.75" stroke-linecap="round" stroke-linejoin="round"/>
<path d="M150.18 140.13C148.694 140.279 147.312 140.957 146.284 142.04C145.256 143.123 144.651 144.539 144.58 146.03C144.26 149.67 146.22 150.5 147.58 149.68C149.08 148.73 150.58 145.26 150.58 145.26" stroke="#F4A789" stroke-width="0.75" stroke-linecap="round" stroke-linejoin="round"/>
<path d="M183.68 272.43C181.83 300.43 151.62 295.58 148.92 258.52C148.92 258.52 146.85 233.97 144.85 213.71C143.85 203.71 142.85 194.71 142.17 190.25L140.09 176.08L166.98 168.08C166.98 168.08 172.27 189.2 176.9 214.76C178.82 225.38 180.63 236.76 181.9 247.7C182.929 255.906 183.523 264.161 183.68 272.43V272.43Z" fill="#8ADD8F"/>
<path d="M148.92 258.52C148.92 258.52 146.85 233.97 144.85 213.71C143.85 203.71 142.85 194.71 142.17 190.25" stroke="#8ADD8F" stroke-width="0.75" stroke-linecap="round" stroke-linejoin="round"/>
<path d="M190.1 255.24C190.17 255.01 195.18 247.34 199.89 245.36C204.6 243.38 210.75 240.36 212.73 237.57C214.71 234.78 218.73 234.73 216.22 240.28C213.71 245.83 210.83 246.88 210.83 246.88C210.83 246.88 223.66 243.09 231.18 241.57C238.7 240.05 241.05 243.39 233.31 246.28C228.995 247.834 224.826 249.764 220.85 252.05C220.85 252.05 233.91 250.38 239.3 250.45C244.69 250.52 246.3 253.45 239 255.24C243.94 255.31 244.7 258.12 238.85 259.41C233 260.7 223.13 263.24 223.13 263.24C223.13 263.24 233.54 262.56 237.75 263.24C241.96 263.92 239.75 267.24 234.07 267.87C228.39 268.5 198.07 273.94 193.36 273.26L190.1 255.24Z" fill="#FEBD9D"/>
<path d="M205.93 242.5C208.93 240.94 211.55 239.19 212.73 237.5C214.73 234.74 218.73 234.66 216.22 240.21C213.71 245.76 210.83 246.81 210.83 246.81C210.83 246.81 223.66 243.02 231.18 241.5C238.7 239.98 241.05 243.32 233.31 246.21C228.995 247.764 224.826 249.694 220.85 251.98C220.85 251.98 233.91 250.31 239.3 250.38C244.69 250.45 246.3 253.38 239 255.17C243.94 255.24 244.7 258.05 238.85 259.34C233 260.63 223.13 263.24 223.13 263.24C223.13 263.24 233.54 262.56 237.75 263.24C241.96 263.92 239.75 267.24 234.07 267.87" stroke="#F4A789" stroke-width="0.75" stroke-linecap="round" stroke-linejoin="round"/>
<path d="M181.9 252.85L191.01 250.42L196.63 275.86L189.26 278.29L181.9 252.85Z" fill="white"/>
<path d="M206.04 248.45L210.83 246.85" stroke="#F4A789" stroke-width="0.75" stroke-linecap="round" stroke-linejoin="round"/>
<path d="M221.66 257.71L239 255.21" stroke="#F4A789" stroke-width="0.75" stroke-linecap="round" stroke-linejoin="round"/>
<path d="M193.04 280.34C193.04 280.34 166.24 291.45 143.63 301.54C138.07 304.03 132.77 306.45 128.17 308.62C104.9 319.67 95.0198 324.62 79.0798 318.74C67.7798 314.56 56.0798 296.31 41.9498 270.68C36.1698 260.18 30.0098 248.45 23.2998 235.94C19.9598 223.15 40.9198 213.94 55.4798 216.22C55.5498 216.22 59.9298 216.22 64.6198 221.22C70.2098 227.14 98.1698 274.87 98.1698 274.87C107.17 270.51 185.29 247.75 185.29 247.75L193.04 280.34Z" fill="#8ADD8F"/>
<path d="M143.63 301.54C138.07 304.03 132.77 306.45 128.17 308.62C104.9 319.67 95.0198 324.62 79.0798 318.74C67.7798 314.56 56.0798 296.31 41.9498 270.68C49.3198 268.94 58.0498 269.95 61.6198 281.94C68.4598 304.94 84.6198 316.42 101.17 301.66C114.09 290.16 135.57 287.79 143.63 301.54Z" fill="#8ADD8F"/>
<path d="M55.4998 216.24C55.4998 216.24 59.9198 216.24 64.6398 221.24C70.2298 227.17 98.1898 274.9 98.1898 274.9C107.19 270.53 185.31 247.78 185.31 247.78L193.06 280.37C193.06 280.37 151.46 297.61 128.19 308.65C104.92 319.69 95.0498 324.65 79.1098 318.76C65.6898 313.82 51.6798 289.05 33.8198 255.64" stroke="#8ADD8F" stroke-width="0.75" stroke-linecap="round" stroke-linejoin="round"/>
<path d="M88.0498 283.8C88.0498 283.8 92.2498 277.15 98.1698 274.87" stroke="#8ADD8F" stroke-width="0.75" stroke-linecap="round" stroke-linejoin="round"/>
<path d="M247.96 217.46C248.19 209.8 253.34 203.85 255.62 200.99C257.9 198.13 254.21 195.94 255.62 189.67C257.8 180.07 269.12 185.47 269.12 170.01C269.12 165.21 270.26 164.18 270.26 164.18C270.26 164.18 261.8 145.56 277.12 139.38C277.12 139.38 278.49 131.48 292.44 127.93C306.39 124.38 318.97 138.79 309.94 159.6L309.25 176.07C310.559 176.318 311.75 176.991 312.639 177.983C313.528 178.975 314.066 180.232 314.17 181.56C315.17 188.56 324.11 184.19 324.57 202.25L247.96 217.46Z" fill="#7F542D"/>
<path d="M280.4 192.97C273.47 195.12 268.03 194.73 268.03 188.54C268.03 182.72 275.22 179.62 274.03 170.17C272.84 160.72 274.68 156.23 277.86 152.17C281.04 148.11 285.63 134.17 296.93 136.64C308.23 139.11 309.93 159.64 309.93 159.64L303.93 178.69C303.93 178.69 311.24 188.84 309.09 192.53C306.94 196.22 280.4 192.97 280.4 192.97Z" fill="#683F1D"/>
<path d="M307.5 179.51C307.5 179.51 313.22 179.6 311.76 186.95C311.24 189.462 311.58 192.076 312.727 194.371C313.873 196.666 315.759 198.508 318.08 199.6" stroke="#BF8228" stroke-width="0.75" stroke-linecap="round" stroke-linejoin="round"/>
<path d="M277.12 144.65C270.77 152.09 273.23 159.52 273.23 159.52" stroke="#BF8228" stroke-width="0.75" stroke-linecap="round" stroke-linejoin="round"/>
<path d="M270.96 184.02C264.07 187.55 260.05 194.45 264.34 201.15C265.218 202.456 265.797 203.94 266.035 205.496C266.274 207.052 266.166 208.641 265.72 210.15" stroke="#BF8228" stroke-width="0.75" stroke-linecap="round" stroke-linejoin="round"/>
<path d="M277.12 139.38C277.12 139.38 282.22 140.86 283.69 144.02" stroke="#BF8228" stroke-width="0.75" stroke-linecap="round" stroke-linejoin="round"/>
<path d="M287.32 138.92C287.32 138.92 298.73 128.42 306.91 137.92" stroke="#BF8228" stroke-width="0.75" stroke-linecap="round" stroke-linejoin="round"/>
<path d="M313.11 172.42C313.36 185.65 304.29 189 299.92 189.26C289.92 189.62 280.63 178.26 277.53 173.99C277.42 173.1 277.3 172.19 277.15 171.27C271.2 172.54 268.76 169.76 268.09 165.56C267.42 161.36 272.54 156.49 279.18 161.87C285.4 157.58 286.27 151.62 284.97 146.33C286.438 144.218 288.543 142.632 290.978 141.802C293.412 140.973 296.048 140.944 298.5 141.72C305.45 143.72 310.3 153.26 312.21 163.61C312.647 165.973 312.931 168.361 313.06 170.76C313.08 171.32 313.1 171.87 313.11 172.42Z" fill="#FEBD9D"/>
<path d="M302.59 149.08C302.8 150.84 307.34 151.08 309.38 150.08C311.42 149.08 301.99 144.06 302.59 149.08Z" fill="#7F542D"/>
<path d="M288.5 152.85C288.15 154.41 292.61 152.36 294.24 152.25C295.87 152.14 296.72 151.42 295.9 149.42C295.08 147.42 289.28 149.49 288.5 152.85Z" fill="#7F542D"/>
<path d="M297.42 161.9C298.16 161.9 298.76 161.3 298.76 160.56C298.76 159.82 298.16 159.22 297.42 159.22C296.68 159.22 296.08 159.82 296.08 160.56C296.08 161.3 296.68 161.9 297.42 161.9Z" fill="#683F1D"/>
<path d="M306.91 158.52C307.65 158.52 308.25 157.92 308.25 157.18C308.25 156.44 307.65 155.84 306.91 155.84C306.17 155.84 305.57 156.44 305.57 157.18C305.57 157.92 306.17 158.52 306.91 158.52Z" fill="#683F1D"/>
<path d="M302.85 156.47C302.76 160.47 304.69 161.85 305.15 162.3C306.25 163.37 308.78 162.3 307.63 166.2" stroke="#F4A789" stroke-width="0.75" stroke-linecap="round" stroke-linejoin="round"/>
<path d="M298.22 173.11C299.95 171.38 306.53 171.74 307.22 172.43C307.91 173.12 306.71 176.09 303.85 176.05C300.99 176.01 297.41 173.92 298.22 173.11Z" fill="white" stroke="#F4A789" stroke-width="0.75" stroke-linecap="round" stroke-linejoin="round"/>
<path d="M271.83 166C273.35 163.78 276.49 164.52 277.76 165.63C273.69 164.95 273.32 169.49 277.88 168.28" stroke="#F4A789" stroke-width="0.75" stroke-linecap="round" stroke-linejoin="round"/>
<path d="M298.65 170.09C298.02 171.98 294.65 172.54 291.08 171.35C287.51 170.16 285.18 167.66 285.82 165.77C286.46 163.88 289.82 163.32 293.39 164.52C296.96 165.72 299.29 168.24 298.65 170.09Z" fill="#F4A789"/>
<path d="M313.05 170.76C311.38 171.07 309.99 170.76 309.35 169.84C308.35 168.33 309.59 165.66 312.2 163.61C312.637 165.973 312.921 168.361 313.05 170.76Z" fill="#F4A789"/>
<path d="M273.5 172.43C273.5 173.006 273.671 173.568 273.991 174.047C274.31 174.525 274.765 174.898 275.297 175.119C275.828 175.339 276.413 175.396 276.978 175.284C277.542 175.172 278.061 174.895 278.468 174.488C278.875 174.081 279.152 173.562 279.264 172.998C279.377 172.433 279.319 171.848 279.099 171.316C278.878 170.785 278.505 170.33 278.027 170.011C277.548 169.691 276.986 169.52 276.41 169.52C276.028 169.52 275.65 169.595 275.297 169.742C274.944 169.888 274.623 170.102 274.353 170.372C274.082 170.643 273.868 170.963 273.722 171.316C273.575 171.67 273.5 172.048 273.5 172.43V172.43Z" fill="#8ADD8F"/>
<path d="M391.04 213.66L376.81 232.08C376.81 232.08 357.81 308.63 348.2 315.08C345.173 317.077 341.703 318.303 338.094 318.651C334.484 319 330.844 318.46 327.49 317.08C327.49 317.03 327.49 316.99 327.49 316.94C327.49 316.89 319 309.79 320.62 299.27C320.77 298.27 339.79 265.43 347.94 250.95C354.45 239.29 362.37 225.95 362.37 225.95L391.04 213.66Z" fill="#FEBD9D"/>
<path d="M362.41 225.96C362.41 225.96 363.52 208.67 363.91 206.72C364.3 204.77 375.98 193.54 377.64 192.65C379.3 191.76 389.64 194.82 390.49 195.77C391.34 196.72 390.38 198.94 387.6 198.77C384.82 198.6 387.21 205.33 387.21 205.33C387.21 205.33 391.7 210.09 391.04 213.66C391.04 213.66 373.59 231.24 373.36 231.18C373.13 231.12 362.41 225.96 362.41 225.96Z" fill="#FEBD9D"/>
<path d="M362.41 225.96C362.41 225.96 363.52 208.67 363.91 206.72C364.3 204.77 375.98 193.54 377.64 192.65C379.3 191.76 389.64 194.82 390.49 195.77C391.34 196.72 390.38 198.94 387.6 198.77C384.82 198.6 387.21 205.33 387.21 205.33C387.21 205.33 391.7 210.09 391.04 213.66C391.04 213.66 373.59 231.24 373.36 231.18C373.13 231.12 362.41 225.96 362.41 225.96Z" fill="#FEBD9D"/>
<path d="M363.91 206.72C364.3 204.72 375.98 193.54 377.64 192.65C379.3 191.76 389.64 194.82 390.49 195.77C391.34 196.72 390.38 198.94 387.6 198.77" stroke="#F4A789" stroke-width="0.75" stroke-linecap="round" stroke-linejoin="round"/>
<path d="M380.59 199.6C380.76 199.22 387.26 197.05 388.37 197.44C389.48 197.83 394.82 206.72 394.99 208.5C395.16 210.28 392.63 218.09 390.32 217.4C388.01 216.71 390.41 210.08 390.41 210.08L380.59 199.6Z" fill="#FEBD9D" stroke="#F4A789" stroke-width="0.75" stroke-linecap="round" stroke-linejoin="round"/>
<path d="M385.09 215C386.98 216.25 389.17 213.38 390.41 210.08L386.21 206.67C386.21 206.67 382.31 213.17 385.09 215Z" fill="#FEBD9D" stroke="#F4A789" stroke-width="0.75" stroke-linecap="round" stroke-linejoin="round"/>
<path d="M391.42 207.56L392.78 210.99C392.821 211.089 392.834 211.198 392.817 211.304C392.8 211.41 392.755 211.51 392.686 211.592C392.617 211.674 392.527 211.736 392.426 211.771C392.324 211.806 392.215 211.813 392.11 211.79L388.5 211.03L358.5 185.71C358.273 185.519 358.085 185.284 357.948 185.02C357.811 184.756 357.728 184.468 357.703 184.171C357.678 183.875 357.712 183.576 357.802 183.293C357.893 183.01 358.038 182.747 358.23 182.52V182.52C358.618 182.063 359.172 181.778 359.769 181.727C360.367 181.676 360.961 181.864 361.42 182.25L391.42 207.56Z" fill="#683F1D"/>
<path d="M371.98 206.03C375.36 201.15 379.07 197.31 380.87 196.87C383.59 196.21 384.21 199.44 377.81 208.78C378.858 211.44 379.024 214.366 378.284 217.128C377.544 219.889 375.938 222.34 373.7 224.12" fill="#FEBD9D"/>
<path d="M371.98 206.03C375.36 201.15 379.07 197.31 380.87 196.87C383.59 196.21 384.21 199.44 377.81 208.78C378.858 211.44 379.024 214.366 378.284 217.128C377.544 219.889 375.938 222.34 373.7 224.12" stroke="#F4A789" stroke-width="0.75" stroke-linecap="round" stroke-linejoin="round"/>
<path d="M344.56 263.24C344.35 264.24 342.83 267.02 342.56 267.99C338.13 286.85 330.71 305.09 327.49 316.91C326.579 320.339 325.848 323.814 325.3 327.32C323.68 337.2 323.17 346.51 323.17 346.51L250.09 345.14L241.24 344.98L241.58 307.6L241.66 299.74C241.66 299.74 220.77 298.3 220.61 298.74C220.45 299.18 221.61 287.32 221.61 287.32C214.76 279.47 214.34 267.96 216.03 261.03C217.17 256.39 221.82 243.89 226.59 233.47C228.496 229.077 230.733 224.835 233.28 220.78C239.28 211.9 243 211.23 250.87 209.61C258.74 207.99 272.1 200.96 272.1 200.96L297.5 198.13C297.5 198.13 310.78 199.05 322.61 198.55C333.86 198.07 340.18 200.61 345.12 210.97C345.39 211.51 345.64 212.08 345.9 212.67C349.55 221.18 352.83 233.33 354.42 239.61C349.38 251.79 344.56 263.24 344.56 263.24Z" fill="#E68832"/>
<path d="M345.13 210.97C334.76 209.84 328.28 218.45 320.67 234.75C311.58 254.16 291.75 256.84 272.76 241.62C256.04 228.2 243.76 225.04 226.64 233.48C228.546 229.087 230.783 224.845 233.33 220.79C239.33 211.91 243.05 211.24 250.92 209.62C258.79 208 272.15 200.97 272.15 200.97L297.5 198.13C297.5 198.13 310.78 199.05 322.61 198.55C333.87 198.07 340.19 200.61 345.13 210.97Z" fill="#E68832"/>
<path d="M252.22 294.43L259.01 251.08C260.9 253.98 266.11 258.01 264.43 266.2C260.15 286.88 274.43 270.5 280 280.45C282.31 284.59 262.79 291.36 252.22 294.43Z" fill="#E68832" fill-opacity="0.78"/>
<path d="M276.99 197.99C274.99 197.13 272.15 199.94 272.15 200.99C272.15 202.04 275.03 210.99 278.87 215.17C282.71 219.35 289.73 220.27 292.39 210.45C299.48 217.83 306.39 215.05 305.46 206.06C304.53 197.07 298.11 195.33 298.11 195.33L276.99 197.99Z" fill="white"/>
<path d="M251.61 298.32L252.22 294.43L259.01 251.08L261.14 237.54" stroke="#E68832" stroke-opacity="0.78" stroke-width="0.75" stroke-linecap="round" stroke-linejoin="round"/>
<path d="M221.66 287.34C232.042 284.022 243.006 282.921 253.84 284.11" stroke="#E68832" stroke-opacity="0.78" stroke-width="0.75" stroke-linecap="round" stroke-linejoin="round"/>
<path d="M296.28 224.9C297.782 224.9 299 223.682 299 222.18C299 220.678 297.782 219.46 296.28 219.46C294.778 219.46 293.56 220.678 293.56 222.18C293.56 223.682 294.778 224.9 296.28 224.9Z" fill="white"/>
<path d="M299.01 236.31C300.512 236.31 301.73 235.092 301.73 233.59C301.73 232.088 300.512 230.87 299.01 230.87C297.508 230.87 296.29 232.088 296.29 233.59C296.29 235.092 297.508 236.31 299.01 236.31Z" fill="white"/>
<path d="M227.61 325.51H227.56C216.07 321.56 219.61 303.94 220.94 294.73L233.77 291.63L253.41 286.89C253.41 286.89 256.78 330.15 227.61 325.51Z" fill="#FEBD9D"/>
<path d="M299.92 189.24C299.92 189.49 299.76 194.04 299.63 197.31C299.58 198.75 299.52 199.95 299.5 200.4C299.42 201.91 296.22 208.21 289.5 206.53C282.78 204.85 277.15 199.06 276.99 197.96C276.83 196.86 279.89 188.23 278.26 174.96C284.11 168.12 301.26 172.43 299.92 189.24Z" fill="#FEBD9D"/>
<path d="M299.92 189.24C299.92 189.24 299.76 193.96 299.63 197.32C295 196.69 286.22 193.95 286.75 182.14C288.68 185.06 295.33 189.47 299.92 189.24Z" fill="#F4A789"/>
<path d="M355.96 257.53C355.885 257.527 355.812 257.506 355.746 257.469C355.68 257.433 355.623 257.382 355.58 257.32L333.29 225.66C333.246 225.605 333.215 225.54 333.201 225.47C333.187 225.4 333.19 225.328 333.21 225.26C333.226 225.193 333.255 225.13 333.296 225.074C333.337 225.019 333.39 224.974 333.45 224.94C334.855 224.04 336.465 223.514 338.13 223.41C341.75 223.41 345.42 226.78 350.81 235.05C360.81 250.37 357.58 256.05 356.36 257.37C356.312 257.42 356.255 257.46 356.191 257.487C356.128 257.515 356.059 257.529 355.99 257.53H355.96Z" fill="#F9F9F9"/>
<path d="M338.13 223.91C341.29 223.91 344.73 226.64 350.39 235.33C358.7 248.07 358.13 254.64 355.99 257.03L333.69 225.37C335.021 224.513 336.55 224.01 338.13 223.91ZM338.13 222.91C336.381 223.011 334.687 223.558 333.21 224.5C333.088 224.568 332.981 224.661 332.896 224.773C332.812 224.885 332.752 225.013 332.72 225.15C332.689 225.287 332.687 225.429 332.715 225.567C332.743 225.705 332.799 225.835 332.88 225.95L355.17 257.61C355.257 257.733 355.371 257.834 355.502 257.907C355.634 257.98 355.78 258.022 355.93 258.03H355.99C356.13 258.03 356.268 258 356.395 257.943C356.523 257.887 356.637 257.804 356.73 257.7C358.01 256.27 361.4 250.4 351.23 234.78C345.73 226.35 341.94 222.91 338.13 222.91Z" fill="#DDDDDD"/>
<path d="M365.12 263.35C365.025 263.347 364.932 263.319 364.85 263.27L355.72 257.46C355.655 257.417 355.6 257.359 355.561 257.291C355.521 257.224 355.497 257.148 355.49 257.07C355.486 256.994 355.498 256.918 355.526 256.848C355.553 256.777 355.596 256.713 355.65 256.66C356.64 255.767 357.927 255.275 359.26 255.28C360.277 255.317 361.274 255.565 362.19 256.007C363.106 256.449 363.92 257.077 364.58 257.85C367.11 260.66 365.58 263.1 365.58 263.12C365.531 263.196 365.462 263.257 365.381 263.297C365.301 263.338 365.21 263.356 365.12 263.35Z" fill="#F9F9F9"/>
<path d="M359.26 255.78C360.207 255.818 361.136 256.051 361.988 256.466C362.84 256.881 363.597 257.468 364.21 258.19C366.51 260.74 365.12 262.85 365.12 262.85L355.99 257.03C356.885 256.217 358.052 255.771 359.26 255.78ZM359.26 254.78C357.804 254.771 356.397 255.31 355.32 256.29C355.205 256.393 355.115 256.521 355.058 256.665C355 256.808 354.977 256.963 354.99 257.117C355.002 257.272 355.05 257.421 355.13 257.553C355.21 257.685 355.32 257.797 355.45 257.88L364.58 263.69C364.802 263.834 365.072 263.884 365.33 263.83C365.589 263.775 365.815 263.621 365.96 263.4C366.03 263.29 367.74 260.61 364.96 257.52C364.254 256.693 363.383 256.023 362.404 255.551C361.424 255.079 360.357 254.817 359.27 254.78H359.26Z" fill="#DDDDDD"/>
<path d="M285.34 251.96L335.77 222.18C335.77 222.18 352.54 239.76 355.99 257.03L302.5 284.8C302.5 284.8 296.56 265.69 285.34 251.96Z" fill="#F9F9F9" stroke="#DDDDDD" stroke-linecap="round" stroke-linejoin="round"/>
<path d="M305 283.49L317.91 287.34L365.12 262.85C362.613 260.175 359.474 258.173 355.99 257.03L305 283.49Z" fill="#DDDDDD" stroke="#DDDDDD" stroke-miterlimit="10"/>
<path d="M328.74 267.52C328.26 269.79 323.68 270.32 320.87 270.14C318.06 269.96 308.72 270.5 308.72 270.5C308.72 270.5 313.9 273.3 314.44 273.83C316.13 276.325 317.438 279.059 318.32 281.94C319.68 286.11 318.67 288.61 317.32 288.31C315.97 288.01 315.48 285.82 315.48 285.82C315 288.61 313.27 286.29 313.27 286.29C313.27 287.18 308.98 294.81 307.27 293.29C305.56 291.77 307.97 287.88 307.97 287.88H306.2C302.932 290.556 299.491 293.015 295.9 295.24C292.612 297.15 289.014 298.466 285.27 299.13C285.27 299.13 277 304.99 266.58 311.23C253.71 318.97 237.58 327.32 229.74 326.02C227.706 325.759 225.785 324.934 224.195 323.639C222.604 322.344 221.408 320.629 220.74 318.69C220.721 318.628 220.698 318.568 220.67 318.51C220.62 318.37 220.54 318.15 220.45 317.86C219.28 313.86 216.62 296.62 253.39 286.86L253.62 286.8L279.98 280.43C285.47 274.83 297.68 263.93 299.7 263.33C301.72 262.73 329.22 265.24 328.74 267.52Z" fill="#FEBD9D"/>
<path d="M307.93 287.85C307.93 287.85 305.5 291.71 307.23 293.26C308.96 294.81 313.23 287.18 313.23 286.26C313.23 286.26 314.96 288.58 315.44 285.78C315.44 285.78 315.91 287.99 317.28 288.29C318.65 288.59 319.67 286.08 318.28 281.91C317.404 279.03 316.095 276.299 314.4 273.81C313.87 273.27 308.68 270.47 308.68 270.47C308.68 270.47 318.03 269.93 320.84 270.11C323.65 270.29 328.23 269.76 328.7 267.49C329.17 265.22 301.65 262.72 299.63 263.32C298.63 263.62 295.05 266.49 291.06 269.99" stroke="#F4A789" stroke-width="0.75" stroke-linecap="round" stroke-linejoin="round"/>
<path d="M308.72 270.5L304.04 268.65" stroke="#F4A789" stroke-width="0.75" stroke-linecap="round" stroke-linejoin="round"/>
<path d="M305.26 274.87C305.26 274.87 312.74 278.09 313.26 279.18C313.78 280.27 315.31 283.58 315.46 285.81" stroke="#F4A789" stroke-width="0.75" stroke-linecap="round" stroke-linejoin="round"/>
<path d="M306.1 280.34C306.1 280.34 311.66 283.77 312.32 284.43C312.775 284.966 313.094 285.604 313.25 286.29" stroke="#F4A789" stroke-width="0.75" stroke-linecap="round" stroke-linejoin="round"/>
<path d="M532.58 273.07C532.935 283.078 532.645 293.099 531.71 303.07C530.17 319.97 529.06 334.21 531.21 345.07H645.44C645.44 345.07 649.86 329.07 643.79 296.6C637.72 264.13 629.44 247.69 626.79 242.06L532.58 273.07Z" fill="#E68832" fill-opacity="0.78"/>
<path d="M626.65 242.24C624.04 245.6 613.51 257.33 587.76 266.02L586.56 266.42C580.437 268.444 574.216 270.157 567.92 271.55C543.09 277.01 531.22 273.55 531.22 273.55C530.89 265.67 527.49 258.19 524.83 253.47C523.862 251.742 522.794 250.072 521.63 248.47C521.085 253.025 520.125 257.52 518.76 261.9C516.23 270 510.96 276.75 511.23 277.02C497.9 297.24 473.65 265.42 479.52 236.45C479.52 236.45 486.26 208.92 491.52 187.86C492.26 184.86 493.02 182.31 493.81 180.07C498.65 166.38 504.59 164.9 513.5 160.81C518.39 158.7 530.05 156.75 530.05 156.75C530.807 155.04 531.898 153.498 533.258 152.213C534.617 150.929 536.219 149.929 537.97 149.27L537.68 147.27C539.33 147.06 541.06 146.83 542.84 146.57L545.93 146.11L546.29 146.05L547.78 145.82C549.59 145.53 551.44 145.21 553.28 144.87L555.01 144.55L556.31 144.29C562.892 143.096 569.352 141.306 575.61 138.94C576.42 138.61 577.23 138.31 578.02 138.05L578.74 137.81L579.28 137.65L580.17 137.4C580.47 137.31 580.77 137.24 581.07 137.17L581.53 137.06L582.53 136.86L582.87 136.79L583.87 136.63L584.31 136.57H584.48C584.82 136.517 585.153 136.477 585.48 136.45L586.55 136.37H586.85H588.03C597.44 136.37 605.4 141.45 610.31 151.7C612.162 155.695 613.486 159.913 614.25 164.25C618.84 188.68 615.74 213.65 615.74 213.65L626.91 240.24C627.048 240.566 627.096 240.924 627.05 241.275C627.005 241.626 626.866 241.959 626.65 242.24Z" fill="#8ADD8F"/>
<path d="M610.29 151.63C591.21 149.51 573.41 164.11 565.38 179.63C554.98 199.73 529.9 201.33 521.22 192.13C515.38 185.93 505.69 177.72 493.82 180.02C498.66 166.33 504.6 164.85 513.51 160.76C518.31 158.69 529.62 156.76 530.05 156.71C530.807 155 531.898 153.458 533.258 152.174C534.617 150.889 536.219 149.889 537.97 149.23L537.68 147.23C539.33 147.02 541.06 146.79 542.84 146.53L545.93 146.07L546.29 146.01L547.78 145.78C549.59 145.49 551.44 145.17 553.28 144.83L555.01 144.51L556.31 144.25C561.986 143.184 567.579 141.721 573.05 139.87C573.94 139.56 574.79 139.23 575.61 138.87C576.43 138.51 577.23 138.24 578.02 137.98L578.74 137.74L579.28 137.58L580.17 137.33C580.47 137.24 580.77 137.17 581.07 137.1L581.53 136.99L582.53 136.79L582.87 136.72L583.87 136.56L584.31 136.5H584.48C584.82 136.447 585.153 136.407 585.48 136.38L586.55 136.3H586.85H588.03C597.42 136.3 605.38 141.38 610.29 151.63Z" fill="#8ADD8F"/>
<path d="M521.63 248.41C521.51 249.41 521.38 250.41 521.22 251.31C520.73 250.76 505.55 233.54 486.51 232.15C490.07 230.01 495.09 227.59 498.58 228.42C504.58 229.84 497.58 201.42 510.19 193.59C508.63 200.07 505.99 210.36 506.58 219.36C507.5 232.89 515.7 240.89 521.63 248.41Z" fill="#8ADD8F"/>
<path d="M588.5 260.63C588.398 262.427 588.15 264.213 587.76 265.97L586.56 266.37C580.437 268.394 574.216 270.107 567.92 271.5L567.17 270.86C554 259.33 567.17 251.3 563.83 232.08C560.06 210.4 566.18 198.24 570.63 192.57C569.365 203.542 568.697 214.575 568.63 225.62C568.83 242.23 570.08 248.25 572.63 249.94C575.95 251.84 581.25 253.29 587.28 253.94L588.5 260.63Z" fill="#8ADD8F"/>
<path d="M573.36 146.12C573.101 154.64 569.904 162.808 564.31 169.24C561.98 165.71 557.64 160.91 554.72 161.18C546.72 161.91 545.45 175.34 545.45 175.34C545.45 175.34 542.45 161.34 538.79 162.56C533.61 164.27 528.95 175.81 528.95 175.81C527.496 169.454 527.878 162.817 530.05 156.67C530.807 154.96 531.898 153.418 533.258 152.133C534.617 150.849 536.219 149.849 537.97 149.19L537.68 147.19C539.33 146.98 541.06 146.75 542.84 146.49L545.93 146.03L546.29 145.97L547.78 145.74C549.59 145.45 551.44 145.13 553.28 144.79L555.01 144.47L556.31 144.21C561.986 143.144 567.579 141.681 573.05 139.83C573.287 141.918 573.39 144.019 573.36 146.12V146.12Z" fill="#8ADD8F"/>
<path d="M610.25 252.49C606.358 266.522 601.38 280.23 595.36 293.49C585.18 316.1 564.69 353.65 564.69 353.65L545.59 350.98C545.59 350.98 555.91 321.83 559.59 303.25C561.49 293.63 564.5 281.33 567.16 270.84C569.65 261.07 571.84 252.84 572.57 249.92C575.89 251.82 581.19 253.27 587.22 253.92C594.919 254.882 602.729 254.397 610.25 252.49V252.49Z" fill="#B25E47"/>
<path d="M610.25 252.49C613.25 249.33 615.72 213.58 615.72 213.58" stroke="#8ADD8F" stroke-width="0.75" stroke-linecap="round" stroke-linejoin="round"/>
<path d="M574.64 166.24C574.64 166.24 573.64 174.11 572.58 178.58C572.13 180.39 571.37 185.73 570.58 192.58C569.315 203.552 568.647 214.585 568.58 225.63C568.78 242.24 570.03 248.26 572.58 249.95" stroke="#8ADD8F" stroke-width="0.75" stroke-linecap="round" stroke-linejoin="round"/>
<path d="M569 236.69C578.594 241.322 589.418 242.763 599.89 240.8" stroke="#8ADD8F" stroke-width="0.75" stroke-linecap="round" stroke-linejoin="round"/>
<path d="M600.71 254.17C600.97 247.29 603.29 234.17 607.06 229.38C611.24 224.07 614.46 228.3 614.46 228.3" stroke="#8ADD8F" stroke-width="0.75" stroke-linecap="round" stroke-linejoin="round"/>
<path d="M607.21 236.33C607.208 236.764 607.335 237.189 607.575 237.55C607.815 237.912 608.157 238.194 608.557 238.361C608.958 238.528 609.399 238.572 609.825 238.488C610.25 238.404 610.642 238.195 610.948 237.888C611.255 237.582 611.464 237.19 611.548 236.765C611.632 236.339 611.588 235.898 611.421 235.497C611.254 235.097 610.972 234.755 610.61 234.515C610.249 234.275 609.824 234.148 609.39 234.15C608.812 234.153 608.26 234.383 607.851 234.791C607.443 235.2 607.212 235.753 607.21 236.33Z" fill="#8ADD8F"/>
<path d="M545.6 167.87C546.24 172.42 546 173.77 544.27 179.79C542.54 185.81 538.21 205.15 541.38 218.89C544.76 233.56 552.88 250.89 552.63 255.89C552.38 260.89 550.72 270.59 559.96 273.04" stroke="#8ADD8F" stroke-width="0.75" stroke-linecap="round" stroke-linejoin="round"/>
<path d="M521.22 251.32C520.73 250.77 505.55 233.55 486.51 232.16C486.08 232.16 485.66 232.1 485.24 232.09" stroke="#8ADD8F" stroke-width="0.75" stroke-linecap="round" stroke-linejoin="round"/>
<path d="M510.89 183.48C511.114 184.94 511.248 186.413 511.29 187.89C511.096 189.819 510.728 191.727 510.19 193.59C508.63 200.07 505.99 210.36 506.58 219.36C507.47 232.89 515.7 240.89 521.58 248.41" stroke="#8ADD8F" stroke-width="0.75" stroke-linecap="round" stroke-linejoin="round"/>
<path d="M424.62 212.63C419.67 212.87 417.97 212.14 413.83 209.71C409.69 207.28 404.02 199.71 402.88 187.97L416.27 181.07C416.27 181.07 435.08 204.77 424.62 212.63Z" fill="#B25E47"/>
<path d="M398.1 189.89C399.1 196.53 400.45 199.38 402.01 199.21C403.57 199.04 404.93 195.21 402.88 187.97L398.1 189.89Z" fill="#B25E47" stroke="#914839" stroke-miterlimit="10"/>
<path d="M403.17 188.42C404.17 195.06 405.51 197.91 407.07 197.74C408.63 197.57 409.99 193.74 407.95 186.5L403.17 188.42Z" fill="#B25E47" stroke="#914839" stroke-miterlimit="10"/>
<path d="M351.55 113.42L408.98 90.2199L445.61 169.26L393.65 195.31L351.55 113.42Z" fill="#DDDDDD" stroke="#DDDDDD" stroke-width="2" stroke-linecap="round" stroke-linejoin="round"/>
<path d="M359.04 113.42L416.48 90.2199L445.61 169.26L397.66 188.54L359.04 113.42Z" fill="#F9F9F9" stroke="#DDDDDD" stroke-width="2" stroke-linecap="round" stroke-linejoin="round"/>
<path d="M417.34 186.95C410.06 180.74 405.34 170.24 408.14 168.85C410.28 167.79 415.63 173.78 420.34 176.03C424.322 178.039 427.631 181.167 429.86 185.03C430.93 187.28 436.07 196.8 438.42 198.3C440.77 199.8 473.73 223.13 479.51 226.66C485.29 230.19 512.05 247.42 513.51 265.83C514.97 284.24 494.7 290.24 482.41 281.56C473.1 275.01 427.08 215.84 424.62 212.63C424.62 212.63 427.89 205.26 421.45 200.97C417.66 198.44 416.16 193.24 417.34 186.95Z" fill="#B25E47"/>
<path d="M421.5 200.97C417.71 198.44 416.21 193.26 417.39 186.97C410.11 180.76 405.39 170.26 408.19 168.87C410.33 167.81 415.68 173.8 420.39 176.05C424.372 178.059 427.681 181.187 429.91 185.05C430.49 186.26 432.24 189.57 434.1 192.61" stroke="#914839" stroke-width="0.75" stroke-linecap="round" stroke-linejoin="round"/>
<path d="M537.98 149.24C538.19 150.131 538.19 151.059 537.98 151.95C537.98 151.95 537.13 153.17 539.42 156.6C541.193 159.15 543.58 161.214 546.36 162.6C547.04 162.75 561.14 154.9 563.36 145.3C563.36 145.3 557.19 127.62 561.84 124.42C566.49 121.22 573.27 98.1999 552.77 104.15C552.77 104.15 548.87 85.6299 536.11 86.9199C523.35 88.2099 518.69 100.48 516.5 112.67C514.31 124.86 520.08 145.21 529.69 144.37L537.98 149.24Z" fill="#B25E47"/>
<path d="M523.41 115.75C522.41 117.75 519.55 118.28 517.07 116.99C514.59 115.7 513.4 113.06 514.42 111.09C515.44 109.12 518.29 108.56 520.77 109.85C523.25 111.14 524.44 113.78 523.41 115.75Z" fill="#914839"/>
<path d="M536.71 140.7C539.094 140.06 541.202 138.654 542.71 136.7C542.71 136.7 547 144.15 536.36 147.37C536.39 147.37 533.98 141.24 536.71 140.7Z" fill="#914839"/>
<path d="M587.22 132.96C586.98 134.78 580.32 136.8 582.14 139.61C584.14 142.69 581.85 146.75 576.46 144.01C571.81 141.66 569.82 142.51 568.06 146.13C566.3 149.75 562.63 146.2 559.19 146.38C555.75 146.56 551.96 145.59 552.19 141.78C552.42 137.97 558.49 136.78 556.01 133.2C553.53 129.62 552.01 126.61 556.25 120.64C556.25 120.64 563.87 118.64 563.75 112.06C563.63 105.48 555.65 105.23 552.93 109.88C552.93 109.88 548.04 105.23 546.83 100.45C545.83 96.4499 544.6 92.8099 543.05 91.1199C542.784 90.8156 542.466 90.5615 542.11 90.3699C542.11 90.3699 531.18 85.4799 525.93 95.6899C520.68 105.9 517.93 124.57 521.4 132.17C522.684 135.065 524.875 137.463 527.642 139.002C530.41 140.541 533.603 141.137 536.74 140.7L537.28 144.35L538.01 149.21C536.259 149.869 534.657 150.869 533.298 152.153C531.938 153.438 530.847 154.98 530.09 156.69C530.09 156.69 518.4 158.64 513.5 160.75C513.5 160.75 512.11 156.41 507.94 155.14C503.77 153.87 498.52 152.54 498.04 146.62C497.56 140.7 488.92 142.24 486.99 136.24C485.06 130.24 489.16 126.34 491.82 124.64C494.48 122.94 497.44 119.51 495.45 115.52C493.46 111.53 495.39 107.79 499.86 104.83C504.33 101.87 503.64 98.6299 503.76 95.2699C503.9 91.0599 506.76 89.8599 509.58 87.7299C512.66 85.4299 508.32 78.5999 517.08 77.3999C521.92 76.7299 522.6 75.6499 526.2 72.6799C528.92 70.4499 533.45 74.2599 538.2 71.7799C542.95 69.2999 545.45 68.2799 549.81 72.9299C554.17 77.5799 560.54 75.2599 561.32 81.8399C562.08 88.1699 559.09 89.4799 558.87 89.6599C559.11 89.6599 567.53 89.7199 569.5 97.3399C571.47 104.96 567.99 106.46 572.82 111.34C577.65 116.22 579.76 118.63 577.5 122.51C576.23 124.68 576.75 127.65 581.4 128.51C586.05 129.37 587.5 131.15 587.22 132.96Z" fill="#683F1D"/>
<path d="M525.9 95.6899C520.64 105.9 517.9 124.57 521.37 132.17C522.654 135.065 524.845 137.463 527.612 139.002C530.38 140.541 533.573 141.137 536.71 140.7L537.25 144.35C533.69 151.58 524.16 153.54 518.39 152.04C510.77 150.04 516.39 145.62 508.98 142.75C500.21 139.36 508.68 131.26 507.11 129.58C505.54 127.9 503.03 125.09 505.75 121.23C508.47 117.37 514.75 117.15 514.21 112.45C513.67 107.75 514.84 106.18 518.08 104.3C524.08 100.83 523.08 95.2099 521.94 91.9699C520.8 88.7299 523.5 81.2399 531.55 80.4799C538.28 79.8699 541.55 83.7199 543.02 91.1199C542.754 90.8156 542.436 90.5615 542.08 90.3699C542.08 90.3699 531.15 85.4799 525.9 95.6899Z" fill="#683F1D"/>
<path d="M543.02 91.1199C541.58 83.7199 538.28 79.8699 531.55 80.4799C523.55 81.2199 520.8 88.7399 521.94 91.9699C523.08 95.1999 524.06 100.83 518.08 104.3C514.84 106.18 513.69 107.75 514.21 112.45C514.73 117.15 508.61 117.45 505.75 121.23C503.834 123.617 502.613 126.485 502.22 129.52" stroke="#7F542D" stroke-width="0.75" stroke-linecap="round" stroke-linejoin="round"/>
<path d="M519.89 125.24C517.07 126.24 514.89 128.66 515.29 131.03C515.77 133.97 514.87 134.88 513.06 135.42C511.25 135.96 509.45 135.78 508.54 138.97C508.275 140.057 508.097 141.164 508.01 142.28C507.83 143.88 507.58 145.15 506.01 146.08" stroke="#7F542D" stroke-width="0.75" stroke-linecap="round" stroke-linejoin="round"/>
<path d="M548.35 90.8799C550.888 90.162 553.497 89.7195 556.13 89.5599" stroke="#7F542D" stroke-width="0.75" stroke-linecap="round" stroke-linejoin="round"/>
<path d="M515.24 147.37C516.37 143.97 520.3 146.15 520.56 142.48C520.635 141.193 521.19 139.982 522.116 139.085C523.042 138.189 524.271 137.673 525.56 137.64" stroke="#7F542D" stroke-width="0.75" stroke-linecap="round" stroke-linejoin="round"/>
<path d="M555.23 114.86C556.35 111.51 559.7 110.79 560.53 111.29" stroke="#914839" stroke-width="0.75" stroke-linecap="round" stroke-linejoin="round"/>
<path d="M555.85 113.57C559.1 112.57 559.79 117.22 556.48 116.91" stroke="#914839" stroke-width="0.75" stroke-linecap="round" stroke-linejoin="round"/>
<path d="M534.05 98.0699C533.61 99.5899 535.89 100.22 537.35 99.8699C538.81 99.5199 539.56 100.65 540.21 100.03C540.86 99.4099 539.31 97.3899 537.55 96.7399C537.233 96.595 536.891 96.5145 536.542 96.5031C536.194 96.4916 535.847 96.5494 535.522 96.6731C535.196 96.7969 534.898 96.9841 534.646 97.2239C534.393 97.4636 534.19 97.7512 534.05 98.0699V98.0699Z" fill="#683F1D"/>
<path d="M529.93 98.5699C530.51 99.8099 528.65 100.65 527.35 100.57C526.05 100.49 525.57 101.57 524.94 101.09C524.31 100.61 525.34 98.7199 526.76 97.9299C527.009 97.7616 527.29 97.6445 527.585 97.5855C527.88 97.5266 528.184 97.5269 528.479 97.5865C528.774 97.646 529.054 97.7636 529.303 97.9325C529.552 98.1013 529.765 98.318 529.93 98.5699V98.5699Z" fill="#683F1D"/>
<path d="M534.75 109.59C535.49 109.59 536.09 108.99 536.09 108.25C536.09 107.51 535.49 106.91 534.75 106.91C534.01 106.91 533.41 107.51 533.41 108.25C533.41 108.99 534.01 109.59 534.75 109.59Z" fill="#683F1D"/>
<path d="M525.57 108.87C526.31 108.87 526.91 108.27 526.91 107.53C526.91 106.79 526.31 106.19 525.57 106.19C524.83 106.19 524.23 106.79 524.23 107.53C524.23 108.27 524.83 108.87 525.57 108.87Z" fill="#683F1D"/>
<path d="M528.1 117.34C526.1 116.13 524.1 113.42 526.76 112.6C529.42 111.78 530.27 110.6 530.35 103.82" stroke="#914839" stroke-width="0.75" stroke-linecap="round" stroke-linejoin="round"/>
<path d="M532.03 124.45C535.03 123.55 535.03 118.51 535.03 118.51C532.611 119.927 530.083 121.147 527.47 122.16C527.47 122.16 528.75 125.43 532.03 124.45Z" fill="white" stroke="#914839" stroke-width="0.75" stroke-linecap="round" stroke-linejoin="round"/>
<path d="M556.22 120.64C555.061 120.71 553.899 120.71 552.74 120.64" stroke="#914839" stroke-width="0.75" stroke-linecap="round" stroke-linejoin="round"/>
<path d="M536.67 115.95C537.67 117.95 540.53 118.48 543.01 117.19C545.49 115.9 546.68 113.26 545.66 111.29C544.64 109.32 541.79 108.76 539.31 110.05C536.83 111.34 535.64 113.98 536.67 115.95Z" fill="#914839"/>
<path d="M666.2 340.92H10.79C4.83085 340.92 0 345.751 0 351.71V352.7C0 358.659 4.83085 363.49 10.79 363.49H666.2C672.159 363.49 676.99 358.659 676.99 352.7V351.71C676.99 345.751 672.159 340.92 666.2 340.92Z" fill="#DDDDDD"/>
<path d="M20.3 363.49C37.64 355.19 63.38 353.36 82.99 363.49" stroke="#DDDDDD" stroke-width="0.75" stroke-linecap="round" stroke-linejoin="round"/>
<path d="M14.31 340.92C31.42 350.41 42.79 349.66 63.9 349.38C79.61 349.18 98.53 357.18 111.14 363.49" stroke="#DDDDDD" stroke-width="0.75" stroke-linecap="round" stroke-linejoin="round"/>
<path d="M95.5 340.92C107.91 354.87 116.5 356.61 120.69 353.02C125.11 349.2 129.69 348.17 134.36 352.2C139.79 356.87 147.36 347.4 151.62 340.92" stroke="#DDDDDD" stroke-width="0.75" stroke-linecap="round" stroke-linejoin="round"/>
<path d="M143.89 363.49C148.89 358.86 157.89 353.14 171.76 352.2C188.26 351.09 209.24 358.73 220.48 363.49" stroke="#DDDDDD" stroke-width="0.75" stroke-linecap="round" stroke-linejoin="round"/>
<path d="M198.76 340.92C218.12 351.07 239.28 357.02 256.37 352.2C273.06 347.51 312.9 353.34 327.37 340.92" stroke="#DDDDDD" stroke-width="0.75" stroke-linecap="round" stroke-linejoin="round"/>
<path d="M272.19 363.49C284.59 356.42 303.91 352.11 318.97 363.49" stroke="#DDDDDD" stroke-width="0.75" stroke-linecap="round" stroke-linejoin="round"/>
<path d="M340.29 363.49C363.29 345.56 409.36 342.29 447.79 352.09C493.26 363.69 513.67 350.31 521.94 340.92" stroke="#DDDDDD" stroke-width="0.75" stroke-linecap="round" stroke-linejoin="round"/>
<path d="M381.72 363.49C398.41 355.98 420.89 354.44 444.57 363.49" stroke="#DDDDDD" stroke-width="0.75" stroke-linecap="round" stroke-linejoin="round"/>
<path d="M527.24 363.49C555.18 350.49 577.55 351.98 598.24 363.49" stroke="#DDDDDD" stroke-width="0.75" stroke-linecap="round" stroke-linejoin="round"/>
<path d="M566.65 340.92C612.7 356.38 650.81 368.36 675.91 347.37" stroke="#DDDDDD" stroke-width="0.75" stroke-linecap="round" stroke-linejoin="round"/>
<path d="M603.39 340.92C626.76 354.64 654.06 353.61 670.85 342.16" stroke="#DDDDDD" stroke-width="0.75" stroke-linecap="round" stroke-linejoin="round"/>
</svg>
