<svg width="785" height="449" viewBox="0 0 785 449" fill="none" xmlns="http://www.w3.org/2000/svg">
<path d="M1 410.539H783.52" stroke="#DDDDDD" stroke-width="2" stroke-linecap="round" stroke-linejoin="round"/>
<path d="M766.31 448.369H18.21" stroke="#DDDDDD" stroke-linecap="round" stroke-linejoin="round"/>
<path d="M262.93 13.7786H254.43V261.299H262.93V13.7786Z" fill="#DDDDDD" stroke="#DDDDDD" stroke-linecap="round" stroke-linejoin="round"/>
<path d="M619.16 13.7786H610.66V261.299H619.16V13.7786Z" fill="#DDDDDD" stroke="#DDDDDD" stroke-linecap="round" stroke-linejoin="round"/>
<path d="M627.66 261.299H245.93V270.159H627.66V261.299Z" fill="#DDDDDD" stroke="#DDDDDD" stroke-linecap="round" stroke-linejoin="round"/>
<path d="M624.43 3.37857H247.65V20.2386H624.43V3.37857Z" fill="#F9F9F9" stroke="#DDDDDD" stroke-linecap="round" stroke-linejoin="round"/>
<path d="M623.13 11.5586V11.8086C623.13 17.1686 624.28 21.5686 625.76 22.1386C623.36 22.6186 619.76 22.6486 618.4 20.1386C616.12 15.9086 616.5 4.83856 618.4 2.45856C619.69 0.838563 623.53 0.718567 625.93 1.36857L625.78 1.41856C625.731 1.43243 625.684 1.45259 625.64 1.47856C624.26 2.26856 623.13 6.47856 623.13 11.5586Z" fill="#F9F9F9" stroke="#DDDDDD" stroke-linecap="round" stroke-linejoin="round"/>
<path d="M629.03 11.8086C629.03 17.5486 627.71 22.1986 626.08 22.1986C624.45 22.1986 623.08 17.5486 623.08 11.8086C623.08 6.06857 624.4 1.40857 626.08 1.40857C627.76 1.40857 629.03 6.06857 629.03 11.8086Z" fill="#DDDDDD" stroke="#DDDDDD" stroke-miterlimit="10"/>
<path d="M259.12 19.7086C259.42 20.1286 257.93 21.0386 255.81 21.7086C252.53 22.7086 247.74 23.2586 245.73 20.6286C242.42 16.2986 242.97 4.95856 245.73 2.52856C247.65 0.828561 253.48 0.738561 256.94 1.52856C258.46 1.83856 259.52 2.31856 259.6 2.88856C259.76 3.88856 256.68 5.00856 256.6 11.8886C256.536 14.7045 257.424 17.4596 259.12 19.7086Z" fill="#DDDDDD" stroke="#DDDDDD" stroke-miterlimit="10"/>
<path d="M259.12 19.7086C259.42 20.1286 257.93 21.0386 255.81 21.7086C255.338 21.4261 254.921 21.0601 254.58 20.6286C251.28 16.2986 251.81 4.95856 254.58 2.52856C255.279 2.01821 256.087 1.67601 256.94 1.52856C258.46 1.83856 259.52 2.31857 259.6 2.88857C259.76 3.88857 256.68 5.00856 256.6 11.8886C256.536 14.7045 257.424 17.4596 259.12 19.7086Z" fill="#F9F9F9" stroke="#DDDDDD" stroke-linecap="round" stroke-linejoin="round"/>
<path d="M613.97 412.638C613.97 412.638 620.15 430.118 616.97 430.828C615.34 431.188 603.03 431.558 591.4 431.468C580.32 431.398 569.85 430.908 569.81 429.598C569.67 425.598 572.92 423.598 579.57 421.008L581.65 420.228C583.805 419.415 585.827 418.286 587.65 416.878C590.502 414.694 592.923 411.998 594.79 408.928L588.5 315.138C588.55 285.428 619.94 287.578 619.94 315.138C619.44 332.978 613.97 412.638 613.97 412.638Z" fill="#FEBD9D"/>
<path d="M616.97 430.828C615.34 431.188 603.03 431.558 591.4 431.468C580.32 431.398 569.85 430.908 569.81 429.598C569.67 425.598 572.92 423.598 579.57 421.008C582.955 421.333 586.364 421.333 589.75 421.008C598.388 420.278 606.71 417.416 613.97 412.678C613.97 412.678 620.15 430.118 616.97 430.828Z" fill="#8ADD8F"/>
<path d="M712.11 388.709C712.11 388.709 725.7 401.319 723.21 403.429C720.72 405.539 682.21 426.579 680.87 424.239C678.87 420.729 680.87 417.449 685.53 412.099L687.01 410.439C693.19 403.609 693.43 394.309 693.43 394.309L644.31 314.169C631.31 289.989 656.97 272.539 672.15 299.569C679.97 315.569 712.11 388.709 712.11 388.709Z" fill="#FEBD9D"/>
<path d="M723.26 403.379C720.78 405.479 682.26 426.529 680.92 424.189C678.92 420.679 680.92 417.399 685.58 412.049C693.9 408.659 705.58 400.889 712.16 388.659C712.11 388.709 725.7 401.269 723.26 403.379Z" fill="#8ADD8F"/>
<path d="M629.67 177.239C634.02 172.759 662.86 176.869 665.01 177.749C667.16 178.629 680.78 205.889 681.16 208.539C681.54 211.189 678.16 213.839 677.63 213.839C677.1 213.839 678.51 227.839 676.75 229.239C674.99 230.639 666.52 234.789 664.88 234.289C663.24 233.789 640.4 232.139 638.25 227.099C636.1 222.059 625.76 181.279 629.67 177.239Z" fill="#DDDDDD" stroke="#DDDDDD" stroke-width="0.75" stroke-linecap="round" stroke-linejoin="round"/>
<path d="M656.31 184.438C658.95 181.028 664.51 183.938 667.66 190.078C670.41 195.438 674.85 208.668 674.85 208.668" stroke="#DDDDDD" stroke-linecap="round" stroke-linejoin="round"/>
<path d="M679.2 304.299C632.4 326.709 587.34 318.989 587.34 318.989L584.51 259.529L583.36 235.339L609.36 207.469L656.28 215.989L664.84 248.989L679.2 304.299Z" fill="#E68832"/>
<path d="M664.87 249.009C654.37 261.729 638.02 269.539 624.7 260.949C606.7 249.309 596.06 247.799 584.51 259.529L583.36 235.339L609.36 207.469L656.28 215.989L664.87 249.009Z" fill="#E68832"/>
<path d="M634.1 104.869C634.117 107.406 633.78 109.934 633.1 112.379C630.73 120.719 624.5 126.679 617.19 126.679C611.91 126.679 607.19 123.559 604.08 118.679C602.418 116.033 601.281 113.093 600.73 110.019C600.405 108.321 600.245 106.597 600.25 104.869C600.25 94.0886 606.33 85.1386 614.31 83.3886C615.254 83.1714 616.221 83.064 617.19 83.0686C624.75 83.0686 631.19 89.4386 633.33 98.2286C633.836 100.247 634.101 102.318 634.12 104.399C634.1 104.549 634.1 104.709 634.1 104.869Z" fill="#8ADD8F"/>
<path d="M663.17 222.769C663.17 222.769 641.93 235.159 616.17 239.769L609.23 221.179L608.05 241.389C608.05 241.389 583.86 242.569 578.05 241.389C578.05 241.389 577.95 237.539 577.78 232.199C577.46 221.649 576.88 205.289 576.29 201.269C576.06 199.699 575.67 197.499 575.17 194.989C575.149 194.833 575.119 194.68 575.08 194.529C573.65 187.459 571.28 178.209 568.62 173.829C567.514 171.954 566.539 170.006 565.7 167.999C564.7 165.819 563.8 163.369 562.93 160.819C561.12 155.701 559.781 150.429 558.93 145.069C554.74 150.069 551 154.819 547.62 159.179C540.82 167.949 535.44 175.179 530.62 179.579C523.39 186.219 509.91 185.189 506.03 175.079C503.18 167.649 522.7 136.079 536.31 117.079C541.2 110.239 545.31 105.019 547.38 103.139C555.11 96.0485 573.96 91.7085 582.68 92.9185C583.28 93.2485 597.44 82.7785 612.19 83.0685C612.917 83.0895 613.638 83.1969 614.34 83.3885C617.34 84.1885 620.05 86.5185 622.52 89.7485C624.548 92.4953 626.294 95.4403 627.73 98.5385C629.839 103.025 631.643 107.649 633.13 112.379C633.73 114.219 634.28 116.059 634.78 117.829C636.53 123.939 637.71 129.379 638.3 132.639C640.36 143.989 643.02 160.959 650.54 181.759C658.06 202.559 663.17 222.769 663.17 222.769Z" fill="#8ADD8F"/>
<path d="M575.08 194.489C573.65 187.419 571.28 178.179 568.62 173.789C567.514 171.914 566.539 169.966 565.7 167.959C568.177 167.485 570.444 166.251 572.186 164.428C573.929 162.605 575.059 160.284 575.42 157.789C576.48 151.459 582.21 137.489 592.16 140.049C622.9 147.939 593.78 189.039 575.08 194.489Z" fill="#8ADD8F"/>
<path d="M633.26 98.2286H632.36C630.776 98.2002 629.194 98.3106 627.63 98.5586C616.26 100.309 608.18 109.079 604.05 118.709C603.59 119.799 603.17 120.899 602.8 121.999C601.707 125.158 599.95 128.046 597.647 130.47C595.344 132.893 592.549 134.796 589.45 136.049C580.32 139.939 569.27 138.549 563.73 130.719C557.95 122.549 548.57 116.299 536.25 117.109C541.14 110.269 545.25 105.049 547.32 103.169C555.05 96.0786 573.9 91.7386 582.62 92.9486C583.22 93.2786 597.38 82.8086 612.13 83.0986C612.857 83.1195 613.578 83.227 614.28 83.4186C615.224 83.2014 616.191 83.094 617.16 83.0986C624.72 83.0686 631.13 89.4386 633.26 98.2286Z" fill="#8ADD8F"/>
<path d="M558.88 145.029C554.69 150.029 550.95 154.779 547.57 159.139C544.46 147.249 556.38 147.069 551.57 139.739C549.57 136.689 548.11 128.529 555.43 128.739C556.26 132.249 557.95 139.419 558.88 145.029Z" fill="#8ADD8F"/>
<path d="M554.94 126.709C554.94 126.709 555.14 127.489 555.45 128.789C556.28 132.269 557.95 139.439 558.88 145.049" stroke="#8ADD8F" stroke-width="0.75" stroke-linecap="round" stroke-linejoin="round"/>
<path d="M560.49 94.3885C559.08 100.919 564.49 111.389 569.49 112.049C574.49 112.709 577.88 99.4985 577.88 99.4985C577.88 99.4985 586.18 108.769 592.18 107.009C598.18 105.249 595.99 85.8085 594.38 85.6285C589.12 85.0385 588.2 87.8885 579.38 89.7185C571.05 91.4385 561.26 90.7685 560.49 94.3885Z" fill="white"/>
<path d="M578.89 110.209C578.89 110.576 578.999 110.936 579.203 111.242C579.408 111.548 579.698 111.786 580.038 111.927C580.378 112.068 580.752 112.105 581.113 112.033C581.473 111.961 581.805 111.784 582.065 111.524C582.325 111.264 582.502 110.932 582.574 110.571C582.646 110.211 582.609 109.837 582.468 109.497C582.327 109.157 582.089 108.866 581.783 108.662C581.477 108.458 581.118 108.349 580.75 108.349C580.256 108.349 579.783 108.544 579.435 108.893C579.086 109.242 578.89 109.715 578.89 110.209Z" fill="white"/>
<path d="M576.93 111.139C579.34 129.789 587.93 174.499 592.44 184.389C596.95 194.279 602.63 197.459 604.74 201.049C608.65 207.719 604.28 210.049 607.38 215.989" stroke="#8ADD8F" stroke-width="0.75" stroke-linecap="round" stroke-linejoin="round"/>
<path d="M646.26 234.929C648.58 238.249 654.26 240.839 656.21 241.639" stroke="#E68832" stroke-opacity="0.78" stroke-width="0.75" stroke-linecap="round" stroke-linejoin="round"/>
<path d="M653.44 232.709C657.44 243.029 671.19 302.989 671.19 302.989" stroke="#E68832" stroke-opacity="0.78" stroke-width="0.75" stroke-linecap="round" stroke-linejoin="round"/>
<path d="M591.95 89.3585C591.89 90.6385 589.12 95.6485 580.84 100.359C572.56 105.069 567.49 98.7585 567.1 95.9985C566.965 94.9169 566.948 93.8238 567.05 92.7385C567.22 90.4185 567.71 86.7385 568.46 78.9285C568.725 75.918 569.475 72.9701 570.68 70.1985C574.5 61.5885 581.84 58.6485 584.37 69.0885C587.63 82.5185 592.01 88.0685 591.95 89.3585Z" fill="#FEBD9D"/>
<path d="M567.05 92.7086C567.22 90.3886 567.71 86.7086 568.46 78.8986C568.725 75.8881 569.475 72.9402 570.68 70.1686C574.02 69.5186 577.38 70.7786 578.83 77.1686C581.65 89.7086 572.91 94.0286 567.05 92.7086Z" fill="#F4A789"/>
<path d="M551.59 98.4586C551.59 95.5286 559.34 95.1486 559.59 96.1086C559.84 97.0686 560.77 111.869 581.32 133.039C601.87 154.209 626.32 170.669 636.2 175.629C646.08 180.589 660.06 185.739 660.67 186.349C661.28 186.959 656.84 190.449 653.4 190.049C641.47 188.639 612.48 172.349 589.55 153.049C565.74 133.049 551.57 104.799 551.59 98.4586Z" fill="#F9F9F9" stroke="#DDDDDD" stroke-linecap="round" stroke-linejoin="round"/>
<path d="M633.83 124.549C633.36 126.929 632.74 129.669 631.97 132.669C627.51 150.149 618.4 176.139 608.45 187.009C608.08 187.419 607.69 187.809 607.32 188.159C606.616 188.858 605.857 189.5 605.05 190.079C598.5 194.719 589.99 194.569 584.24 190.139C579.38 186.419 576.49 179.639 578.41 170.139C578.731 168.549 579.155 166.983 579.68 165.449C582.58 156.899 585.74 146.449 589.45 136.039C590.14 134.039 590.86 132.129 591.59 130.199C591.92 129.339 592.25 128.489 592.59 127.639C592.85 126.979 593.1 126.309 593.38 125.639C593.409 125.554 593.442 125.47 593.48 125.389C593.71 124.809 593.95 124.229 594.2 123.659C594.69 122.459 595.2 121.279 595.72 120.109C595.94 119.619 596.16 119.109 596.39 118.619C596.73 117.869 597.08 117.119 597.39 116.389C597.65 115.829 597.92 115.289 598.2 114.739C603.41 104.189 609.59 95.4686 617.15 91.3786C624.71 87.2886 629.63 91.1686 632.36 98.2086C635.09 105.249 635.6 115.619 633.83 124.549Z" fill="#8ADD8F"/>
<path d="M631.97 132.709C627.51 150.189 618.4 176.179 608.45 187.049C608.08 187.459 607.69 187.849 607.32 188.199C606.616 188.898 605.857 189.54 605.05 190.119C598.5 194.759 589.99 194.609 584.24 190.179C586.54 188.539 589.67 187.629 593.74 187.049C599.665 186.367 605.139 183.552 609.14 179.129C613.75 173.799 615.44 166.429 613.14 158.599C609.37 145.609 621.76 126.369 631.97 132.709Z" fill="#8ADD8F"/>
<path d="M632.4 98.2185C630.817 98.1951 629.234 98.3055 627.67 98.5485C616.26 100.329 608.18 109.099 604.05 118.709C603.59 119.799 603.17 120.899 602.8 121.999C601.705 125.157 599.947 128.045 597.645 130.468C595.342 132.891 592.548 134.794 589.45 136.049C596.24 116.959 604.9 98.0485 617.19 91.3985C624.63 87.3685 629.67 91.1785 632.4 98.2185Z" fill="#8ADD8F"/>
<path d="M598.44 114.319C598.37 114.469 598.3 114.609 598.24 114.749C597.96 115.299 597.69 115.839 597.43 116.399C597.08 117.129 596.73 117.879 596.43 118.629C596.2 119.129 595.98 119.629 595.76 120.119C595.24 121.289 594.76 122.469 594.24 123.669C593.99 124.239 593.75 124.819 593.52 125.399C593.482 125.48 593.449 125.564 593.42 125.649C593.14 126.309 592.89 126.979 592.63 127.649C592.29 128.499 591.96 129.349 591.63 130.209C590.9 132.139 590.18 134.099 589.49 136.049C585.78 146.449 582.62 156.909 579.72 165.459C579.195 166.993 578.771 168.559 578.45 170.149V170.149C576.53 179.639 579.45 186.419 584.28 190.149C590.03 194.579 598.54 194.729 605.09 190.089C605.897 189.51 606.656 188.868 607.36 188.169C607.73 187.819 608.12 187.429 608.49 187.019C618.44 176.149 627.55 150.159 632.01 132.679C632.78 129.679 633.4 126.939 633.87 124.559" stroke="#8ADD8F" stroke-width="0.75" stroke-linecap="round" stroke-linejoin="round"/>
<path d="M560.39 75.7785C555.81 77.2485 555.56 84.6485 556.23 88.5385C556.9 92.4285 558.74 92.4785 557.66 94.2285C556.58 95.9785 555.74 98.7985 556.54 100.409C557.34 102.019 556.86 102.249 556.07 102.959C555.28 103.669 551.35 109.539 556.54 111.959C556.54 111.959 556.81 115.959 560.08 115.049C563.35 114.139 560.75 106.359 560.39 105.509C560.03 104.659 559.9 102.959 560.75 102.199C561.6 101.439 563.57 97.9485 562.94 95.7085C562.31 93.4685 562.59 93.4685 563.73 92.2985C564.87 91.1285 569.03 73.0085 560.39 75.7785Z" fill="#683F1D"/>
<path d="M555.96 84.7086C557.96 89.5286 561.73 92.7086 561.96 100.319" stroke="#BF8228" stroke-width="0.75" stroke-linecap="round" stroke-linejoin="round"/>
<path d="M556.32 97.7585C558.38 100.759 558.94 102.019 557.92 107.419C557.4 110.219 561.56 112.759 561.56 112.759" stroke="#BF8228" stroke-width="0.75" stroke-linecap="round" stroke-linejoin="round"/>
<path d="M570.82 45.8785C569.805 46.6283 568.954 47.5778 568.32 48.6685C564.06 54.9385 557.92 69.0585 557.92 69.0585C556.486 66.6259 555.43 63.989 554.79 61.2385C553.874 57.534 554.226 53.6295 555.79 50.1485C558.15 45.0285 563.69 41.7985 570.37 40.9085C570.35 40.9085 574.47 43.8985 570.82 45.8785Z" fill="#7F542D"/>
<path d="M568.32 48.7085C564.06 54.9785 557.92 69.0985 557.92 69.0985C556.486 66.6658 555.43 64.029 554.79 61.2785C556.79 51.1185 561.92 44.3985 568.32 48.7085Z" fill="#683F1D"/>
<path d="M567.32 48.2485C562.9 45.8385 559.8 48.7085 557.66 52.6485" stroke="#BF8228" stroke-width="0.75" stroke-linecap="round" stroke-linejoin="round"/>
<path d="M584.26 71.5585C577.13 86.1785 565.26 87.4885 560.26 82.0585C555.26 76.6285 557.72 59.0585 561.34 52.1985C564.96 45.3385 571.84 41.3385 578.99 45.4985C586.14 49.6585 587.87 64.1385 584.26 71.5585Z" fill="#FEBD9D"/>
<path d="M599.67 112.709C597.27 111.909 596.43 109.009 596.43 109.009C593.88 108.409 593.99 105.769 594.43 103.729C594.87 101.689 595.98 99.5885 594.43 99.1285C591.34 98.2085 591.36 94.4785 591.15 91.7985C590.94 89.1185 591.48 89.7985 587.26 85.0185C583.04 80.2385 584.48 71.0685 584.48 71.0685L580.58 72.0685C580.25 73.7685 580.74 74.9185 581.4 79.9585C582.06 84.9985 578.92 85.7485 578.92 85.7485C578.92 85.7485 580.52 80.5585 577.52 76.1185C574.52 71.6785 578.17 65.1185 578.83 60.8385C579.49 56.5585 576.59 54.4385 572.2 51.8385C567.81 49.2385 566.38 44.8385 567.44 40.2385C567.64 39.5682 568.09 38.9999 568.696 38.6504C569.302 38.3008 570.019 38.1964 570.7 38.3585C571.476 38.5769 572.172 39.0185 572.7 39.6285C575.04 42.1285 578.18 38.6285 584.84 44.2685C591.5 49.9085 597.43 59.9285 598.42 68.2685C599.005 72.7071 598.819 77.2133 597.87 81.5885C597.67 82.5885 597.48 83.3385 597.37 84.0285C596.93 86.7585 597.43 87.7085 599.12 91.3485C600.81 94.9885 598.28 96.6885 598.32 98.0285C598.36 99.3685 599.92 100.029 601.91 104.029C603.9 108.029 602.07 113.479 599.67 112.709Z" fill="#7F542D"/>
<path d="M599.67 112.709C597.27 111.909 596.43 109.009 596.43 109.009C593.88 108.409 593.99 105.769 594.43 103.729C594.87 101.689 595.98 99.5885 594.43 99.1285C591.34 98.2085 591.36 94.4785 591.15 91.7985C590.94 89.1185 591.48 89.7985 587.26 85.0185C583.04 80.2385 584.48 71.0685 584.48 71.0685L580.58 72.0685C580.25 73.7685 580.74 74.9185 581.4 79.9585C582.06 84.9985 578.92 85.7485 578.92 85.7485C578.92 85.7485 580.52 80.5585 577.52 76.1185C574.52 71.6785 578.17 65.1185 578.83 60.8385C579.49 56.5585 576.59 54.4385 572.2 51.8385C567.81 49.2385 566.38 44.8385 567.44 40.2385C567.64 39.5682 568.09 38.9999 568.696 38.6504C569.302 38.3008 570.019 38.1964 570.7 38.3585C570.224 40.8398 570.567 43.4086 571.678 45.6777C572.789 47.9468 574.608 49.7932 576.86 50.9385C582.99 54.1585 590.29 58.5685 589.27 68.6885C588.46 76.6885 592.42 85.8085 597.92 81.6185C597.72 82.6185 597.53 83.3685 597.42 84.0585C596.98 86.7885 597.48 87.7385 599.17 91.3785C600.86 95.0185 598.33 96.7185 598.37 98.0585C598.41 99.3985 599.97 100.059 601.96 104.059C603.95 108.059 602.07 113.479 599.67 112.709Z" fill="#683F1D"/>
<path d="M574.26 46.3885C575.91 49.8485 578.74 55.5185 578.85 58.5785" stroke="#BF8228" stroke-width="0.75" stroke-linecap="round" stroke-linejoin="round"/>
<path d="M581.62 50.7585C589.12 51.6485 596.27 64.7585 593.92 73.6085C591.57 82.4585 597.92 81.5285 597.92 81.5285" stroke="#BF8228" stroke-width="0.75" stroke-linecap="round" stroke-linejoin="round"/>
<path d="M572.75 39.5385C573.38 44.4685 579.47 45.1285 579.47 45.1285" stroke="#BF8228" stroke-width="0.75" stroke-linecap="round" stroke-linejoin="round"/>
<path d="M587.26 84.9985C591.01 87.0485 595.11 85.2985 595.35 91.3185C595.48 94.5585 597.09 97.3185 599.22 95.8785" stroke="#BF8228" stroke-width="0.75" stroke-linecap="round" stroke-linejoin="round"/>
<path d="M591.95 96.5385C592.957 96.6646 593.928 96.9952 594.803 97.5101C595.678 98.025 596.438 98.7132 597.038 99.5326C597.637 100.352 598.063 101.285 598.288 102.275C598.514 103.265 598.535 104.29 598.35 105.289C598.193 106.718 597.508 108.038 596.43 108.989" stroke="#BF8228" stroke-width="0.75" stroke-linecap="round" stroke-linejoin="round"/>
<path d="M567.11 60.0785C567.108 60.2926 567.169 60.5023 567.287 60.6813C567.404 60.8602 567.572 61.0002 567.769 61.0834C567.967 61.1667 568.184 61.1895 568.394 61.149C568.604 61.1085 568.798 61.0064 568.95 60.8558C569.102 60.7051 569.206 60.5127 569.248 60.3029C569.291 60.0932 569.27 59.8755 569.188 59.6776C569.107 59.4797 568.969 59.3104 568.791 59.1913C568.613 59.0721 568.404 59.0086 568.19 59.0085C567.905 59.0085 567.632 59.1209 567.43 59.3213C567.227 59.5217 567.112 59.7938 567.11 60.0785V60.0785Z" fill="#683F1D"/>
<path d="M560.93 59.7085C560.93 59.9221 560.993 60.131 561.112 60.3086C561.23 60.4862 561.399 60.6246 561.596 60.7063C561.794 60.7881 562.011 60.8095 562.22 60.7678C562.43 60.7261 562.622 60.6233 562.773 60.4722C562.924 60.3212 563.027 60.1287 563.069 59.9192C563.111 59.7097 563.089 59.4926 563.008 59.2952C562.926 59.0979 562.787 58.9292 562.61 58.8106C562.432 58.6919 562.223 58.6285 562.01 58.6285C561.868 58.6285 561.727 58.6565 561.596 58.7108C561.465 58.765 561.346 58.8446 561.246 58.9449C561.146 59.0452 561.066 59.1642 561.012 59.2952C560.958 59.4263 560.93 59.5667 560.93 59.7085Z" fill="#683F1D"/>
<path d="M580.48 73.3985C583.28 74.3985 589.94 72.0985 589.79 65.5285C589.64 58.9585 583.33 59.9985 581 64.1785C579.26 67.3785 580.48 73.3985 580.48 73.3985Z" fill="#FEBD9D"/>
<path d="M580.48 73.3985C581.964 73.768 583.531 73.6199 584.92 72.9785" stroke="#F4A789" stroke-width="0.75" stroke-linecap="round" stroke-linejoin="round"/>
<path d="M581.62 68.1686C582.42 65.0386 584.93 62.8086 587.11 63.7286" stroke="#F4A789" stroke-width="0.75" stroke-linecap="round" stroke-linejoin="round"/>
<path d="M583.99 68.5985C587.73 67.3285 584.77 63.3185 582.62 65.8385" stroke="#F4A789" stroke-width="0.75" stroke-linecap="round" stroke-linejoin="round"/>
<path d="M563.73 69.9585C566.36 71.0085 568.18 69.2485 569.38 66.7385" stroke="#F4A789" stroke-width="0.75" stroke-linecap="round" stroke-linejoin="round"/>
<path d="M561.45 67.7085C560.99 65.9285 561.08 63.8885 562.26 62.9985C563.44 62.1085 566.26 60.4485 565.59 57.7285" stroke="#F4A789" stroke-width="0.75" stroke-linecap="round" stroke-linejoin="round"/>
<path d="M567.04 54.9785C566.49 56.4185 572.04 58.7985 572.66 57.3685C573.12 56.3285 568.1 52.1985 567.04 54.9785Z" fill="#7F542D"/>
<path d="M559.56 56.7785C559.56 57.7785 564.56 56.4285 564.56 54.6985C564.55 52.3585 559.61 55.5085 559.56 56.7785Z" fill="#7F542D"/>
<path d="M529.03 212.129C525.76 212.309 523.58 207.209 523.34 205.339C523.1 203.469 533.26 200.708 533.26 200.708C533.26 200.708 532.65 211.339 529.03 212.129Z" fill="#8ADD8F"/>
<path d="M527.97 190.889C519.18 191.599 515.65 191.829 510.84 191.129C506.03 190.429 504.25 191.649 503.67 193.039C503.67 193.039 496.21 191.649 494.53 193.509C492.85 195.369 494.3 198.249 495.53 198.509C496.76 198.769 497.33 199.439 496.8 200.999C496.571 201.63 496.499 202.309 496.591 202.974C496.684 203.64 496.937 204.273 497.33 204.819C498.02 205.919 495.59 207.069 496.4 208.929C497.21 210.789 497.9 211.819 497.4 213.609C496.9 215.399 501.22 215.689 510.4 213.959C519.58 212.229 531.26 209.069 531.26 209.069C531.26 209.069 539.72 195.329 527.97 190.889Z" fill="#FEBD9D"/>
<path d="M510.84 191.129C506.04 190.439 504.25 191.649 503.67 193.039C503.67 193.039 496.21 191.649 494.53 193.509C492.85 195.369 494.3 198.249 495.53 198.509C496.76 198.769 497.33 199.439 496.8 200.999C496.571 201.63 496.499 202.308 496.591 202.974C496.684 203.64 496.937 204.273 497.33 204.819C498.02 205.919 495.59 207.069 496.4 208.929C497.21 210.789 497.9 211.819 497.4 213.609C497.08 214.839 499 215.359 503.2 215.009" stroke="#F4A789" stroke-width="0.75" stroke-linecap="round" stroke-linejoin="round"/>
<path d="M503.67 193.039C503.67 193.039 508.26 193.449 509.81 193.509" stroke="#F4A789" stroke-width="0.75" stroke-linecap="round" stroke-linejoin="round"/>
<path d="M607.32 188.159C607.226 188.318 607.122 188.472 607.01 188.619C604.99 191.297 602.375 193.468 599.37 194.959C595.02 197.289 587.65 199.649 579.27 201.849C557.53 207.539 529.02 212.119 529.02 212.119C529.02 212.119 532.34 205.749 524.56 190.829L525.18 190.519L525.46 190.379C528.04 189.089 535.93 185.259 545.85 181.129L547.12 180.599C548.12 180.199 549.06 179.799 550.05 179.409L551.2 178.949C552.95 178.259 554.74 177.569 556.55 176.889L557.9 176.399C560.21 175.549 562.55 174.739 564.9 173.969L566.17 173.559C568.29 172.869 570.41 172.229 572.51 171.649L573.76 171.299L576.26 170.709C576.99 170.529 577.7 170.349 578.42 170.199L578.72 170.139C579.99 169.849 581.25 169.589 582.47 169.369L583.47 169.189L584.63 168.999C591.13 167.999 596.85 167.999 600.94 169.589C602.977 170.4 604.787 171.694 606.213 173.359C607.64 175.024 608.641 177.011 609.13 179.149C609.443 180.695 609.444 182.289 609.133 183.836C608.822 185.383 608.206 186.853 607.32 188.159Z" fill="#8ADD8F"/>
<path d="M607.32 188.159C607.226 188.318 607.122 188.471 607.01 188.618C604.99 191.297 602.375 193.468 599.37 194.958C595.02 197.288 587.65 199.649 579.27 201.849C579.5 195.959 581.07 192.378 584.27 190.138C586.57 188.498 589.7 187.588 593.77 187.008C599.695 186.327 605.169 183.511 609.17 179.089C609.485 180.647 609.484 182.253 609.166 183.811C608.848 185.37 608.22 186.848 607.32 188.159V188.159Z" fill="#8ADD8F"/>
<path d="M579.26 201.849C587.64 199.649 595.01 197.289 599.36 194.959C602.181 193.2 604.751 191.067 607 188.619C607.59 187.999 608.08 187.449 608.44 187.009" stroke="#8ADD8F" stroke-width="0.75" stroke-linecap="round" stroke-linejoin="round"/>
<path d="M568.35 172.869C573.677 171.176 579.117 169.863 584.63 168.939" stroke="#8ADD8F" stroke-width="0.75" stroke-linecap="round" stroke-linejoin="round"/>
<path d="M532.88 190.889C534.65 194.649 537.31 202.689 537.16 205.339" stroke="#8ADD8F" stroke-width="0.75" stroke-linecap="round" stroke-linejoin="round"/>
<path d="M432.849 188.338C430.849 226.458 427.409 345.508 426.089 391.528C425.769 403.018 425.579 409.958 425.579 409.958C425.579 409.958 409.639 414.108 397.029 409.958L396.939 392.008L396.629 328.488L396.259 255.598L396.129 226.768L395.919 184.058C397.319 158.368 432.849 156.468 432.849 188.338Z" fill="#8ADD8F"/>
<path d="M396.629 328.488L396.259 255.599L396.129 226.768C398.459 226.168 401.309 226.698 404.769 228.638C414.699 234.168 414.369 260.688 407.499 270.148C401.049 279.078 418.349 310.638 396.629 328.488Z" fill="#8ADD8F"/>
<path d="M399.379 407.459L398.379 430.918H446.379C446.379 430.918 447.239 426.399 440.139 423.389C433.039 420.379 417.859 407.669 417.539 407.459C417.219 407.249 399.379 407.459 399.379 407.459Z" fill="#683F1D"/>
<path d="M426.089 391.529C425.769 403.019 425.579 409.958 425.579 409.958C425.579 409.958 409.639 414.108 397.029 409.958L396.939 392.008C406.617 393.443 416.464 393.281 426.089 391.529V391.529Z" fill="#8ADD8F"/>
<path d="M406.119 219.198C406.119 220.568 406.039 221.928 405.999 223.288C405.999 223.438 405.999 223.588 405.999 223.738C405.999 224.128 405.999 224.498 405.999 224.888C405.999 225.758 405.919 226.608 405.889 227.468C405.809 229.368 405.709 231.258 405.599 233.158C405.599 233.848 405.519 234.538 405.479 235.218C405.419 236.108 405.369 237.008 405.309 237.898C405.229 239.128 405.139 240.338 405.049 241.578C404.989 242.288 404.939 243.008 404.879 243.728C404.759 245.238 404.639 246.728 404.499 248.248C404.399 249.308 404.299 250.378 404.209 251.458C404.139 252.168 404.059 252.868 403.989 253.578C403.899 254.468 403.809 255.368 403.709 256.278C403.649 256.888 403.589 257.498 403.519 258.108C403.459 258.558 403.419 259.018 403.369 259.478L403.099 261.778C402.999 262.638 402.889 263.508 402.779 264.388C402.699 265.048 402.619 265.728 402.529 266.388C402.439 267.048 402.359 267.728 402.269 268.388C402.109 269.628 401.949 270.878 401.769 272.148C401.329 275.428 400.839 278.798 400.309 282.278C400.149 283.278 399.989 284.358 399.819 285.418C395.369 313.778 377.519 369.048 367.559 399.068C364.819 407.328 362.669 413.668 361.559 417.068C361.559 417.068 341.679 417.448 331.819 409.488C331.819 409.488 334.139 401.578 337.369 390.268C344.589 364.988 356.419 322.738 357.209 314.268C357.589 310.038 358.209 295.408 358.799 278.018C359.969 244.848 361.199 201.678 361.199 201.678C361.399 186.748 369.709 178.048 379.199 175.268C390.969 171.798 404.529 177.448 406.469 191.548C406.449 201.368 406.389 210.408 406.119 219.198Z" fill="#8ADD8F"/>
<path d="M405.999 223.288C405.211 244.118 403.127 264.878 399.759 285.448" stroke="white" stroke-width="0.75" stroke-linecap="round" stroke-linejoin="round"/>
<path d="M376.799 221.558C367.689 224.558 363.439 232.788 368.699 243.878C373.139 253.208 371.049 268.448 358.749 277.978C359.919 244.808 361.149 201.638 361.149 201.638C361.349 186.708 369.659 178.008 379.149 175.228C383.779 177.468 387.759 182.968 389.229 192.908C390.989 204.978 387.259 218.158 376.799 221.558Z" fill="#8ADD8F"/>
<path d="M404.789 220.058C407.459 218.248 408.519 217.998 408.789 217.058C409.059 216.118 409.289 204.558 409.289 204.558" stroke="white" stroke-width="0.75" stroke-linecap="round" stroke-linejoin="round"/>
<path d="M411.139 221.568C408.009 222.168 406.009 222.968 405.979 223.738" stroke="white" stroke-width="0.75" stroke-linecap="round" stroke-linejoin="round"/>
<path d="M402.959 207.928C403.099 212.068 402.959 216.928 402.959 216.928" stroke="white" stroke-width="0.75" stroke-linecap="round" stroke-linejoin="round"/>
<path d="M365.169 201.358C364.779 209.028 365.169 220.008 365.169 220.008C365.169 220.008 373.799 214.078 372.229 201.358" stroke="white" stroke-width="0.75" stroke-linecap="round" stroke-linejoin="round"/>
<path d="M337.819 405.758L329.169 427.588L374.499 443.418C374.499 443.418 376.799 439.418 371.089 434.248C365.379 429.078 355.259 412.068 354.999 411.758C354.739 411.448 337.819 405.758 337.819 405.758Z" fill="#683F1D"/>
<path d="M367.499 399.098C364.759 407.358 362.609 413.698 361.499 417.098C361.499 417.098 341.619 417.478 331.759 409.518C331.759 409.518 334.079 401.608 337.309 390.298C345.679 394.288 358.869 397.618 367.499 399.098Z" fill="#8ADD8F"/>
<path d="M467.989 153.868L466.989 153.108C457.379 145.388 427.169 119.858 427.169 119.858C427.459 122.228 428.549 131.428 429.869 142.648C432.529 165.098 436.129 195.648 436.129 195.648C417.039 200.058 402.519 202.298 391.599 203.268C367.889 205.408 361.099 201.668 361.099 201.668C361.099 201.668 358.579 192.138 355.249 179.058C354.879 177.578 354.479 176.058 354.089 174.478C351.419 163.948 348.379 151.728 345.729 140.478C343.239 129.918 341.099 120.238 339.929 113.648C339.394 111.087 339.082 108.484 338.999 105.868C339.305 102.112 341.05 98.6193 343.869 96.1185C346.425 93.7447 349.38 91.8421 352.599 90.4985C342.799 84.0485 349.719 65.1585 366.929 69.0485C369.719 69.6785 372.699 69.4785 377.049 68.7285C379.749 68.2485 382.989 67.5685 387.049 66.7285L390.049 66.1085C393.549 65.3885 396.459 64.8685 398.869 64.5285C410.439 62.8985 410.669 65.2285 410.329 68.4185C410.329 68.4185 423.619 64.5585 432.169 74.1685C434.929 77.2685 437.599 80.3885 440.249 83.5685C451.569 97.1685 462.469 111.728 478.599 129.948C498.559 152.398 476.329 160.508 467.989 153.868Z" fill="#E68832"/>
<path d="M414.119 190.888C411.199 193.148 401.909 198.578 391.649 203.238C367.939 205.378 361.149 201.638 361.149 201.638C361.149 201.638 358.629 192.108 355.299 179.028C354.929 177.548 354.529 176.028 354.139 174.448C351.469 163.918 348.429 151.698 345.779 140.448C347.659 133.688 351.199 128.448 357.049 125.938C378.749 116.728 387.179 129.938 385.589 140.248C383.999 150.558 386.119 160.188 402.959 162.468C419.799 164.748 420.729 185.788 414.119 190.888Z" fill="#E68832" fill-opacity="0.78"/>
<path d="M467.039 153.108C457.429 145.388 427.219 119.858 427.219 119.858C427.219 119.858 425.839 107.788 424.899 98.7985C432.529 100.588 438.219 105.548 436.549 112.798C434.549 121.478 443.819 129.798 452.259 128.938C460.069 128.118 470.439 146.048 467.039 153.108Z" fill="#E68832" fill-opacity="0.78"/>
<path d="M440.319 83.5485C431.189 83.7585 423.199 89.1485 418.839 100.988C415.639 109.708 411.119 114.988 405.669 117.258C397.759 120.548 387.889 117.508 377.169 109.438C374.761 107.572 372.009 106.199 369.069 105.398C366.13 104.596 363.061 104.382 360.039 104.768C353.289 105.538 346.429 108.868 339.979 113.638C339.444 111.077 339.132 108.474 339.049 105.858C339.355 102.102 341.1 98.6093 343.919 96.1085C346.475 93.7347 349.431 91.8321 352.649 90.4885C342.849 84.0385 349.769 65.1485 366.979 69.0385C369.769 69.6685 372.749 69.4685 377.099 68.7185C379.799 68.2385 383.039 67.5585 387.099 66.7185L390.099 66.0985C393.599 65.3785 396.509 64.8585 398.919 64.5185C410.489 62.8885 410.719 65.2185 410.379 68.4085C410.379 68.4085 423.669 64.5485 432.219 74.1585C434.999 77.2485 437.669 80.3685 440.319 83.5485Z" fill="#E68832"/>
<path d="M427.259 119.858C427.259 119.858 425.879 107.788 424.939 98.7985C424.749 96.9685 424.579 95.2685 424.439 93.7985" stroke="#E68832" stroke-opacity="0.78" stroke-width="0.75" stroke-linecap="round" stroke-linejoin="round"/>
<path d="M400.919 93.8185C405.709 102.908 409.359 155.118 409.669 161.818C409.979 168.518 413.959 167.538 414.119 174.198C414.139 176.196 413.739 178.175 412.945 180.008C412.15 181.841 410.98 183.487 409.509 184.838" stroke="#E68832" stroke-opacity="0.78" stroke-width="0.75" stroke-linecap="round" stroke-linejoin="round"/>
<path d="M398.499 84.9885C392.311 81.2794 385.554 78.617 378.499 77.1085C378.499 77.1085 375.949 62.1085 374.439 52.1985C371.669 34.0085 390.119 35.6585 394.059 49.9885C394.259 50.7485 394.549 51.6885 394.889 52.7585C396.509 57.8185 399.339 65.6885 400.889 69.9585C401.559 71.7985 401.999 72.9585 401.999 72.9585C397.259 77.5785 398.499 84.9885 398.499 84.9885Z" fill="#FEBD9D"/>
<path d="M400.919 69.9585C391.709 73.3185 384.849 68.1385 384.849 58.5885L391.999 53.2785L394.889 52.7585C396.509 57.8185 399.339 65.7085 400.919 69.9585Z" fill="#F4A789"/>
<path d="M366.979 75.4684C373.699 75.6084 384.139 77.1784 398.499 84.9884C398.499 84.9884 396.259 75.2984 406.059 69.7184" stroke="#E68832" stroke-opacity="0.78" stroke-width="0.75" stroke-linecap="round" stroke-linejoin="round"/>
<path d="M372.629 149.938C369.604 161.039 363.597 171.1 355.259 179.028C348.599 152.938 338.679 112.728 339.009 105.858C339.499 95.5485 352.609 90.4885 352.609 90.4885C373.009 95.8485 378.969 127.208 372.629 149.938Z" fill="#F9F9F9" stroke="#DDDDDD" stroke-linecap="round" stroke-linejoin="round"/>
<path d="M315.339 144.508C313.339 133.648 312.719 130.358 314.809 126.238C316.899 122.118 322.809 117.818 326.269 119.908C329.729 121.998 332.899 133.908 332.899 133.908L328.779 136.298C328.779 136.298 326.779 121.118 322.629 122.628C318.479 124.138 315.459 129.318 317.729 139.628L315.339 144.508Z" fill="#DDDDDD" stroke="#DDDDDD" stroke-width="0.75" stroke-linecap="round" stroke-linejoin="round"/>
<path d="M364.999 194.638C361.049 205.368 351.819 227.788 344.589 228.828C339.606 229.513 334.547 229.429 329.589 228.578C327.239 228.108 325.389 227.388 324.539 226.418C320.592 221.675 317.355 216.383 314.929 210.708C312.519 204.548 306.309 177.308 307.169 167.998C308.029 158.688 313.719 131.708 332.859 120.708C342.079 115.398 347.339 130.888 354.759 148.468C360.459 161.998 365.759 175.678 366.139 186.158C366.31 189.032 365.923 191.912 364.999 194.638Z" fill="#F9F9F9" stroke="#DDDDDD" stroke-linecap="round" stroke-linejoin="round"/>
<path d="M364.999 194.638C361.049 205.368 351.819 227.788 344.589 228.828C339.606 229.513 334.547 229.429 329.589 228.578C324.799 219.458 323.489 216.818 324.499 210.678C325.509 204.538 333.829 189.628 337.079 187.398C340.079 185.398 356.129 181.348 366.079 186.168C366.268 189.035 365.901 191.911 364.999 194.638Z" fill="#DDDDDD" stroke="#DDDDDD" stroke-width="0.75" stroke-linecap="round" stroke-linejoin="round"/>
<path d="M321.109 140.318C323.579 150.488 326.439 162.128 327.649 164.768C328.859 167.408 333.469 179.028 333.469 179.028" fill="#F9F9F9"/>
<path d="M321.109 140.318C323.579 150.488 326.439 162.128 327.649 164.768C328.859 167.408 333.469 179.028 333.469 179.028" stroke="#DDDDDD" stroke-width="0.75" stroke-linecap="round" stroke-linejoin="round"/>
<path d="M330.319 163.558C336.539 160.138 348.839 158.958 352.529 159.108L330.319 163.558Z" fill="#F9F9F9"/>
<path d="M330.319 163.558C336.539 160.138 348.839 158.958 352.529 159.108" stroke="#DDDDDD" stroke-width="0.75" stroke-linecap="round" stroke-linejoin="round"/>
<path d="M304.759 177.708C305.809 179.528 308.979 176.648 311.479 172.708C313.979 168.768 320.879 154.848 320.689 151.208C320.499 147.568 317.999 143.528 319.249 138.338C320.499 133.148 332.979 121.128 337.389 119.848C336.468 119.378 335.449 119.133 334.414 119.133C333.38 119.133 332.36 119.378 331.439 119.848C328.179 121.448 312.239 136.418 307.829 151.968C303.419 167.518 303.689 175.868 304.759 177.708Z" fill="#DDDDDD" stroke="#DDDDDD" stroke-width="0.75" stroke-linecap="round" stroke-linejoin="round"/>
<path d="M314.349 156.848L316.999 153.298L321.109 165.608L318.369 169.108L314.349 156.848Z" fill="#DDDDDD" stroke="#DDDDDD" stroke-linecap="round" stroke-linejoin="round"/>
<path d="M305.329 173.898L307.389 171.128L310.599 180.728L308.459 183.458L305.329 173.898Z" fill="#DDDDDD" stroke="#DDDDDD" stroke-linecap="round" stroke-linejoin="round"/>
<path d="M526.629 33.4984H486.199L488.089 25.0184H528.519L526.629 33.4984Z" fill="#DDDDDD"/>
<path d="M541.389 128.058L579.679 333.708C579.586 334.43 579.281 335.107 578.803 335.655C578.325 336.203 577.695 336.597 576.993 336.788C576.291 336.978 575.549 336.957 574.859 336.725C574.17 336.494 573.564 336.064 573.119 335.488L572.989 335.328L536.159 139.708L541.389 128.058Z" fill="#F9F9F9" stroke="#DDDDDD" stroke-linecap="round" stroke-linejoin="round"/>
<path d="M514.729 128.058L476.429 333.708C476.523 334.43 476.828 335.107 477.306 335.655C477.784 336.203 478.413 336.597 479.115 336.788C479.817 336.978 480.56 336.957 481.249 336.725C481.939 336.494 482.544 336.064 482.989 335.488L483.119 335.328L519.949 139.708L514.729 128.058Z" fill="#F9F9F9" stroke="#DDDDDD" stroke-linecap="round" stroke-linejoin="round"/>
<path d="M460.709 128.058L422.409 333.708C422.505 334.429 422.812 335.106 423.291 335.653C423.77 336.2 424.4 336.594 425.102 336.784C425.804 336.974 426.547 336.953 427.237 336.722C427.926 336.492 428.533 336.062 428.979 335.488L429.099 335.328L465.929 139.708L460.709 128.058Z" fill="#F9F9F9" stroke="#DDDDDD" stroke-linecap="round" stroke-linejoin="round"/>
<path d="M428.159 192.328L432.849 196.378H532.229L534.399 192.328H428.159Z" fill="#DDDDDD" stroke="#DDDDDD" stroke-width="0.75" stroke-linecap="round" stroke-linejoin="round"/>
<path d="M457.169 29.9484H557.919L534.399 192.328H428.159L457.169 29.9484Z" fill="#F9F9F9" stroke="#DDDDDD" stroke-linecap="round" stroke-linejoin="round"/>
<path d="M359.049 182.488C357.279 179.906 355.64 177.236 354.139 174.488C346.509 160.658 339.029 141.068 337.019 129.278C336.312 125.255 335.867 121.19 335.689 117.108C335.309 107.198 337.169 98.6485 343.919 96.1085C347.989 94.6185 353.739 96.2685 360.019 104.778C365.229 111.838 370.819 123.628 376.139 142.248C392.639 199.828 370.659 199.228 359.049 182.488Z" fill="#E68832"/>
<path d="M360.039 104.768C353.289 105.538 346.429 108.868 339.979 113.638C338.529 114.718 337.089 115.858 335.689 117.068C335.309 107.158 337.169 98.6084 343.919 96.0684C348.009 94.6084 353.759 96.2584 360.039 104.768Z" fill="#E68832"/>
<path d="M423.939 221.178C425.459 221.948 428.689 219.178 430.639 213.468C430.639 213.468 422.349 209.388 422.169 209.388C421.989 209.388 419.979 218.328 423.939 221.178Z" fill="#E68832" fill-opacity="0.78"/>
<path d="M428.019 194.978C435.469 197.878 437.319 198.588 439.019 198.738C440.719 198.888 447.019 198.078 448.529 198.738C450.039 199.398 451.259 201.738 451.259 201.738C451.259 201.738 457.549 201.018 459.099 202.048C460.649 203.078 460.479 206.048 459.229 206.828C457.979 207.608 456.719 208.228 457.089 210.368C457.459 212.508 457.159 213.548 456.429 214.208C455.699 214.868 457.749 216.048 456.209 218.558C454.669 221.068 456.129 222.838 453.839 223.728C451.549 224.618 420.789 216.498 419.319 215.018C417.849 213.538 419.499 191.708 428.019 194.978Z" fill="#FEBD9D"/>
<path d="M443.539 198.558C445.629 198.448 447.759 198.388 448.539 198.738C450.019 199.408 451.269 201.738 451.269 201.738C451.269 201.738 457.559 201.018 459.109 202.048C460.659 203.078 460.489 206.048 459.239 206.828C457.989 207.608 456.729 208.228 457.099 210.368C457.469 212.508 457.169 213.548 456.439 214.208C455.709 214.868 457.759 216.048 456.219 218.558C454.679 221.068 456.139 222.838 453.849 223.728C453.279 223.948 450.939 223.608 447.729 222.948" stroke="#F4A789" stroke-width="0.75" stroke-linecap="round" stroke-linejoin="round"/>
<path d="M451.259 201.708C448.891 201.759 446.522 201.649 444.169 201.378" stroke="#F4A789" stroke-width="0.75" stroke-linecap="round" stroke-linejoin="round"/>
<path d="M361.879 164.168C369.409 154.468 379.879 159.728 398.539 171.298C410.548 178.847 422.013 187.227 432.849 196.378C432.849 196.378 422.699 208.888 423.939 221.178C423.939 221.178 373.259 196.988 365.789 189.528C359.899 183.648 356.149 171.548 361.879 164.168Z" fill="#E68832"/>
<path d="M368.649 159.428C375.579 157.728 384.839 162.828 398.539 171.298C410.548 178.847 422.013 187.227 432.849 196.378" stroke="#E68832" stroke-opacity="0.78" stroke-width="0.75" stroke-linecap="round" stroke-linejoin="round"/>
<path d="M396.789 63.7085C389.849 66.0584 380.459 63.9985 374.319 53.9485C370.539 48.0323 368.917 40.9922 369.729 34.0184C370.119 30.3084 373.149 21.8085 382.909 24.6485C391.649 27.1685 395.769 32.6484 398.429 39.9485C398.749 40.8085 399.049 41.6985 399.329 42.6185C399.759 44.0485 400.179 45.5185 400.529 46.9885C402.309 54.3285 402.569 61.7085 396.789 63.7085Z" fill="#FEBD9D"/>
<path d="M385.559 45.5085C384.879 47.5785 381.659 48.3684 378.389 47.2784C375.119 46.1884 373.019 43.6284 373.709 41.5584C374.399 39.4884 377.609 38.6985 380.889 39.7885C384.169 40.8785 386.259 43.4385 385.559 45.5085Z" fill="#F4A789"/>
<path d="M400.529 46.9384C400.019 47.0549 399.488 47.0485 398.98 46.9199C398.473 46.7912 398.003 46.544 397.609 46.1984C396.259 44.8384 396.609 42.1984 398.429 39.8984C398.749 40.7584 399.049 41.6484 399.329 42.5684C399.759 43.9984 400.179 45.4684 400.529 46.9384Z" fill="#F4A789"/>
<path d="M392.789 38.1184C392.787 38.3705 392.86 38.6174 392.999 38.8277C393.138 39.0381 393.336 39.2024 393.569 39.2998C393.801 39.3972 394.057 39.4232 394.305 39.3745C394.552 39.3258 394.779 39.2046 394.957 39.0264C395.135 38.8482 395.257 38.621 395.305 38.3737C395.354 38.1264 395.328 37.8703 395.231 37.6378C395.133 37.4053 394.969 37.2071 394.759 37.0683C394.548 36.9295 394.301 36.8565 394.049 36.8584C393.715 36.8584 393.395 36.9912 393.158 37.2275C392.922 37.4638 392.789 37.7843 392.789 38.1184V38.1184Z" fill="#683F1D"/>
<path d="M386.309 39.5184C386.307 39.77 386.38 40.0166 386.518 40.2267C386.657 40.4369 386.854 40.6012 387.086 40.6989C387.318 40.7965 387.574 40.8231 387.821 40.7753C388.068 40.7274 388.295 40.6072 388.474 40.43C388.652 40.2528 388.774 40.0265 388.824 39.7799C388.874 39.5333 388.849 39.2774 388.754 39.0448C388.658 38.8121 388.495 38.6132 388.286 38.4732C388.077 38.3332 387.831 38.2585 387.579 38.2585C387.244 38.2584 386.923 38.3909 386.685 38.6269C386.447 38.8629 386.312 39.1834 386.309 39.5184V39.5184Z" fill="#683F1D"/>
<path d="M396.359 27.8184C394.919 29.2985 393.019 27.8184 393.019 27.8184C393.249 29.9885 388.369 31.8185 384.859 32.1885C381.349 32.5585 382.859 29.3084 380.149 28.0984C377.439 26.8884 373.709 29.8285 373.709 29.8285C373.709 29.8285 379.399 33.6785 379.709 38.8285C379.924 41.8223 379.031 44.7906 377.199 47.1684L370.979 48.4884C368.741 47.4308 366.685 46.0232 364.889 44.3184C361.559 41.1084 359.659 37.0885 360.569 33.1485C361.949 27.1485 367.939 26.1485 367.939 26.1485C368.058 24.3055 368.656 22.5254 369.673 20.9839C370.69 19.4424 372.092 18.1928 373.739 17.3585C378.449 14.7685 383.399 15.3584 385.219 16.7784C387.039 18.1984 387.579 18.5485 390.949 19.2185H391.099C391.549 19.2601 391.986 19.3926 392.383 19.6079C392.781 19.8232 393.13 20.117 393.411 20.4713C393.691 20.8256 393.897 21.2332 394.015 21.6693C394.133 22.1054 394.162 22.561 394.099 23.0085C394.099 23.0085 397.799 26.3184 396.359 27.8184Z" fill="#BF8228"/>
<path d="M396.359 27.8185C394.919 29.2985 393.019 27.8185 393.019 27.8185C393.249 29.9885 388.369 31.8185 384.859 32.1885C381.349 32.5585 382.859 29.3085 380.149 28.0985C377.439 26.8885 373.709 29.8285 373.709 29.8285C373.709 29.8285 379.399 33.6785 379.709 38.8285C379.924 41.8223 379.031 44.7907 377.199 47.1685L370.979 48.4885C368.741 47.4309 366.685 46.0232 364.889 44.3185C371.269 41.8585 369.019 36.1985 368.569 32.0485C367.939 26.1885 371.249 21.3385 378.569 24.0485C382.789 25.5785 387.569 22.5185 390.989 19.2985H391.139C391.589 19.3401 392.026 19.4726 392.423 19.6879C392.821 19.9033 393.17 20.197 393.451 20.5513C393.731 20.9056 393.937 21.3132 394.055 21.7493C394.173 22.1854 394.202 22.641 394.139 23.0885C394.139 23.0885 397.799 26.3185 396.359 27.8185Z" fill="#BF8228"/>
<path d="M393.019 27.8084C392.299 25.5984 391.909 25.6284 389.469 25.3684C387.029 25.1084 384.009 24.7584 383.209 23.1484" stroke="#7F542D" stroke-width="0.75" stroke-linecap="round" stroke-linejoin="round"/>
<path d="M394.059 23.1085C392.069 22.2558 389.888 21.9486 387.739 22.2185" stroke="#7F542D" stroke-width="0.75" stroke-linecap="round" stroke-linejoin="round"/>
<path d="M381.939 37.1485C381.619 38.3785 388.809 36.6985 387.649 34.1485C386.489 31.5985 382.519 34.9585 381.939 37.1485Z" fill="#BF8228"/>
<path d="M390.129 33.2785C389.909 34.8485 395.449 35.0085 395.459 33.7085C395.469 32.4085 390.449 30.9485 390.129 33.2785Z" fill="#BF8228"/>
<path d="M389.509 36.5485C390.589 40.0785 392.929 40.6785 394.339 41.6085C395.749 42.5385 395.459 45.4285 395.459 45.4285" stroke="#F4A789" stroke-width="0.75" stroke-linecap="round" stroke-linejoin="round"/>
<path d="M387.429 46.2084C388.869 48.5884 390.989 49.9684 393.329 49.2084" stroke="#F4A789" stroke-width="0.75" stroke-linecap="round" stroke-linejoin="round"/>
<path d="M377.169 47.1885C375.959 42.3685 368.169 39.8085 367.089 46.6185C366.159 52.5085 371.699 52.9984 374.609 52.7984L377.169 47.1885Z" fill="#FEBD9D"/>
<path d="M369.529 46.3384C372.709 44.7984 374.929 47.5084 375.319 48.9484" stroke="#F4A789" stroke-width="0.75" stroke-linecap="round" stroke-linejoin="round"/>
<path d="M374.909 48.0285C372.279 44.1585 368.909 50.0785 373.419 50.5385" stroke="#F4A789" stroke-width="0.75" stroke-linecap="round" stroke-linejoin="round"/>
<path d="M373.689 52.8285C374.513 52.8466 375.334 52.7283 376.119 52.4785" stroke="#F4A789" stroke-width="0.75" stroke-linecap="round" stroke-linejoin="round"/>
<path d="M279.839 418.438C282.149 413.638 289.559 407.778 292.219 411.148C295.609 415.438 281.689 418.438 281.689 418.438" stroke="#E68832" stroke-opacity="0.78" stroke-width="0.75" stroke-linecap="round" stroke-linejoin="round"/>
<path d="M280.979 417.898C284.979 415.038 292.739 404.138 289.309 402.968C285.469 401.678 280.979 416.528 280.979 416.528" stroke="#E68832" stroke-opacity="0.78" stroke-width="0.75" stroke-linecap="round" stroke-linejoin="round"/>
<path d="M294.359 430.918H257.43L258.039 410.538L259.74 354.058L287.379 352.708C287.379 352.708 277.209 410.488 277.589 412.608C283.059 418.189 288.994 423.294 295.329 427.868C295.62 428.075 295.837 428.368 295.95 428.705C296.063 429.043 296.066 429.408 295.958 429.748C295.85 430.087 295.637 430.383 295.35 430.594C295.062 430.804 294.716 430.918 294.359 430.918V430.918Z" fill="#B25E47"/>
<path d="M294.359 430.918H257.43L257.779 419.268L258.039 410.538C262.159 411.398 262.129 412.838 264.589 413.768C266.693 414.62 268.969 414.958 271.229 414.757C273.49 414.555 275.67 413.819 277.589 412.608C283.059 418.189 288.994 423.294 295.329 427.868C295.62 428.074 295.837 428.368 295.95 428.705C296.063 429.043 296.066 429.408 295.958 429.747C295.85 430.087 295.637 430.383 295.35 430.594C295.062 430.804 294.716 430.918 294.359 430.918V430.918Z" fill="#E68832"/>
<path d="M276.629 430.918H257.43L257.779 419.268C259.309 418.715 260.923 418.434 262.549 418.438C266.016 418.44 269.361 419.71 271.955 422.009C274.549 424.308 276.212 427.477 276.629 430.918V430.918Z" fill="#E68832" fill-opacity="0.78"/>
<path d="M203.03 134.498C202.68 135.958 202.31 137.498 201.89 139.038C200.89 142.828 199.309 148.788 197.319 155.548C191.739 174.378 182.829 199.248 173.459 199.548C160.759 199.918 159.21 188.838 161.67 181.398C163.8 174.918 171.199 145.158 175.909 127.748C176.619 125.118 177.27 122.748 177.83 120.828C181.1 109.468 186.459 102.888 192.099 101.368C193.787 100.899 195.572 100.899 197.259 101.368C205.809 103.708 207.81 114.308 203.03 134.498Z" fill="#B25E47"/>
<path d="M313.069 354.378C312.459 356.378 298.969 363.778 291.209 363.978C283.449 364.178 266.689 362.138 261.209 360.918C257.609 360.118 249.079 362.358 242.439 363.918C238.879 364.778 235.859 365.448 234.439 365.368C230.349 365.168 213.799 367.828 211.139 365.368C208.479 362.908 215.429 206.548 215.429 206.548C215.429 206.548 221.769 196.378 244.249 191.468C266.729 186.558 289.819 191.108 289.819 191.108C289.819 191.108 305.759 232.748 309.019 250.528C309.259 251.828 309.499 253.528 309.709 255.448C312.449 280.228 313.639 352.478 313.069 354.378Z" fill="#8ADD8F"/>
<path d="M313.069 354.378C312.459 356.378 298.969 363.778 291.209 363.978C283.449 364.178 266.689 362.138 261.209 360.918C257.609 360.118 249.079 362.358 242.439 363.918C247.639 348.438 261.439 341.688 278.579 349.578C298.419 358.678 307.649 341.768 298.639 315.118C291.319 293.468 298.719 265.778 309.709 255.448C312.449 280.228 313.639 352.478 313.069 354.378Z" fill="#8ADD8F"/>
<path d="M213.309 180.948C213.309 180.948 212.739 199.558 214.369 201.358C215.999 203.158 258.309 202.848 289.779 191.148L277.039 155.058L213.309 180.948Z" fill="#8ADD8F"/>
<path d="M284.259 156.138C284.259 156.138 282.629 157.838 279.729 160.408C275.848 163.833 271.746 167 267.449 169.888C265.099 171.468 262.559 173.038 259.849 174.528C257.395 175.904 254.872 177.153 252.289 178.268C233.729 186.268 215.209 181.898 213.289 180.948C211.369 179.998 210.499 173.618 204.429 166.438C201.465 163.229 199.056 159.549 197.299 155.548C195.379 150.978 193.959 144.878 192.769 135.018L192.439 132.088C191.344 121.87 191.224 111.57 192.079 101.328C192.079 101.078 192.079 100.948 192.079 100.948C195.929 99.2884 199.769 97.7484 202.879 96.5384C206.879 94.9884 209.679 93.9884 209.679 93.9884C209.679 93.9884 209.549 91.5184 209.239 87.1484C208.999 83.7884 208.649 79.2884 208.239 73.9184C207.978 71.198 207.978 68.4588 208.239 65.7384C209.999 49.0084 223.399 51.0884 225.349 57.4784C227.569 64.7784 235.079 87.2884 235.079 87.2884C239.436 86.1806 243.858 85.3489 248.319 84.7984C248.499 84.7984 248.669 84.7484 248.849 84.7384C251.397 84.428 253.963 84.2944 256.529 84.3384C258.335 84.3557 260.132 84.5737 261.889 84.9884C263.177 85.3171 264.389 85.8909 265.459 86.6784C267.591 88.2924 269.379 90.3151 270.719 92.6284C282.259 111.248 284.259 156.138 284.259 156.138Z" fill="#8ADD8F"/>
<path d="M270.729 92.6284C264.219 95.1184 260.369 99.5284 257.029 104.628C249.229 116.448 244.169 131.868 214.429 134.788C210.633 135.153 206.806 135.066 203.03 134.528C199.451 133.992 195.917 133.187 192.459 132.118C191.364 121.9 191.244 111.6 192.099 101.358C192.099 101.108 192.099 100.978 192.099 100.978C195.949 99.3184 199.789 97.7784 202.899 96.5684C206.899 95.0184 209.699 94.0184 209.699 94.0184C209.699 94.0184 209.569 91.5484 209.259 87.1784C209.019 83.8184 208.669 79.3184 208.259 73.9484C207.998 71.228 207.998 68.4888 208.259 65.7684C210.019 49.0384 223.419 51.1184 225.369 57.5084C227.589 64.8084 235.099 87.3184 235.099 87.3184C239.456 86.2106 243.878 85.3789 248.339 84.8284C248.519 84.8284 248.689 84.7784 248.869 84.7684C251.417 84.458 253.983 84.3244 256.55 84.3684C258.355 84.3857 260.152 84.6037 261.909 85.0184C263.197 85.3471 264.409 85.9209 265.479 86.7084C267.604 88.3146 269.389 90.3268 270.729 92.6284V92.6284Z" fill="#8ADD8F"/>
<path d="M248.859 84.7084C243.559 89.3784 229.659 101.158 220.799 103.198C213.799 104.798 207.349 104.028 202.939 96.5084C206.939 94.9584 209.739 93.9584 209.739 93.9584C209.739 93.9584 209.609 91.4884 209.299 87.1184C209.059 83.7584 208.709 79.2584 208.299 73.8884C208.038 71.168 208.038 68.4288 208.299 65.7084C210.059 48.9784 223.459 51.0584 225.409 57.4484C227.629 64.7484 235.139 87.2584 235.139 87.2584C239.653 86.1115 244.236 85.2597 248.859 84.7084Z" fill="#B25E47"/>
<path d="M209.259 87.1484C209.019 83.7884 208.669 79.2884 208.259 73.9184C207.998 71.198 207.998 68.4588 208.259 65.7384C213.149 64.5884 219.259 64.5684 220.389 71.0984C222.099 81.2884 218.579 86.1584 209.259 87.1484Z" fill="#914839"/>
<path d="M286.929 228.548C284.189 220.668 286.869 215.358 290.619 214.068C294.369 212.778 298.779 217.818 300.069 222.958L303.259 221.208C303.259 221.208 299.399 207.638 289.789 209.938C280.179 212.238 281.959 224.938 283.639 229.558L286.929 228.548Z" fill="#DDDDDD" stroke="#DDDDDD" stroke-width="0.75" stroke-linecap="round" stroke-linejoin="round"/>
<path d="M286.639 164.408C302.819 203.288 310.639 225.178 310.639 225.178C310.639 225.178 317.299 226.298 316.979 225.178C316.659 224.058 294.259 161.708 294.259 161.708L286.639 164.408Z" fill="#F9F9F9" stroke="#DDDDDD" stroke-width="0.75" stroke-linecap="round" stroke-linejoin="round"/>
<path d="M282.769 239.088H274.769C274.829 238.738 267.059 208.598 259.769 174.528C252.269 139.268 245.339 99.7984 248.249 84.7984C248.429 84.7984 248.599 84.7484 248.779 84.7384C251.327 84.428 253.893 84.2944 256.459 84.3384C253.699 95.9684 260.179 134.338 267.369 169.888C274.739 205.888 282.769 239.088 282.769 239.088Z" fill="#F9F9F9" stroke="#DDDDDD" stroke-width="0.75" stroke-linecap="round" stroke-linejoin="round"/>
<path d="M314.469 272.338C309.279 274.438 293.319 283.708 284.299 284.338L274.659 230.088C277.384 228.527 280.188 227.108 283.059 225.838C285.179 224.838 287.319 224.018 289.439 223.238C292.609 222.058 295.709 221.068 298.599 220.238C301.159 219.548 303.6 219.018 305.65 218.668C307.898 218.201 310.204 218.077 312.49 218.298C316.49 218.968 328.84 235.158 333.02 251.798C337.2 268.438 319.659 270.228 314.469 272.338Z" fill="#F9F9F9" stroke="#DDDDDD" stroke-linecap="round" stroke-linejoin="round"/>
<path d="M300.68 244.088C300.68 244.088 296.77 246.668 296.77 246.438C296.77 246.208 290.969 231.438 283.059 225.808C285.179 224.808 287.319 223.988 289.439 223.208C293.029 226.708 299.59 234.448 300.68 244.088Z" fill="#DDDDDD" stroke="#DDDDDD" stroke-width="0.75" stroke-linecap="round" stroke-linejoin="round"/>
<path d="M314.999 237.588C313.743 238.452 312.433 239.237 311.079 239.938C311.079 239.738 305.879 226.448 298.599 220.248C301.159 219.558 303.6 219.028 305.65 218.678C309.26 222.708 314.079 229.468 314.999 237.588Z" fill="#DDDDDD" stroke="#DDDDDD" stroke-width="0.75" stroke-linecap="round" stroke-linejoin="round"/>
<path d="M274.659 230.048C281.239 228.498 288.379 240.048 292.339 254.528C296.299 269.008 292.83 286.528 281.7 284.078C270.57 281.628 271.07 261.208 270.08 255.028C269.09 248.848 265.759 232.158 274.659 230.048Z" fill="#DDDDDD" stroke="#DDDDDD" stroke-linecap="round" stroke-linejoin="round"/>
<path d="M294.719 173.228C288.069 172.838 284.309 168.998 279.719 160.408C276.779 154.888 273.51 147.408 268.93 137.648C262.55 124.028 258.479 112.828 257.019 104.598C255.779 97.7184 256.379 92.9184 259.019 90.4884C260.784 88.6366 263.033 87.3167 265.509 86.6784C268.859 85.9984 272.12 87.4984 275.71 91.2384C278.153 93.9047 280.345 96.7902 282.259 99.8584C291.259 113.768 302.919 145.328 305.359 154.408C307.799 163.488 305.629 173.858 294.719 173.228Z" fill="#B25E47"/>
<path d="M215.779 151.398L250.539 143.458L257.759 144.998L257.309 146.868L215.779 157.708C215.779 157.708 210.849 153.998 215.779 151.398Z" fill="#F9F9F9" stroke="#DDDDDD" stroke-linecap="round" stroke-linejoin="round"/>
<path d="M215.78 151.398C213.23 152.458 212.23 153.778 213.21 157.918C214.19 162.058 226.7 210.388 226.7 210.388L268.39 194.928C268.39 194.928 258.479 144.628 258.119 144.928C257.759 145.228 220.12 153.928 217.74 154.528C215.36 155.128 212.96 152.988 215.78 151.398Z" fill="#F9F9F9" stroke="#DDDDDD" stroke-linecap="round" stroke-linejoin="round"/>
<path d="M217.74 165.158L221.96 159.908L253.369 148.708L268.67 195.788L267.08 201.358" fill="#F9F9F9"/>
<path d="M217.74 165.158L221.96 159.908L253.369 148.708L268.67 195.788L267.08 201.358" stroke="#DDDDDD" stroke-linecap="round" stroke-linejoin="round"/>
<path d="M251.5 152.458L253.37 148.708" stroke="#DDDDDD" stroke-linecap="round" stroke-linejoin="round"/>
<path d="M217.74 165.158L236.549 215.298L267.08 201.358L251.499 152.458L217.74 165.158Z" fill="#F9F9F9" stroke="#DDDDDD" stroke-linecap="round" stroke-linejoin="round"/>
<path d="M228.2 169.598L229.97 173.248L248.27 166.088L246.77 162.098L228.2 169.598Z" fill="#DDDDDD"/>
<path d="M214.06 193.248C226.45 191.408 236.589 192.558 238.769 191.508C240.949 190.458 261.279 177.328 269.039 170.118C276.799 162.908 283.779 149.788 295.089 152.938C309.959 157.078 307.639 171.868 295.559 182.108C285.559 190.558 233.32 212.738 227.5 214.318C221.68 215.898 209.95 211.898 208.86 209.958C207.77 208.018 205.1 194.578 214.06 193.248Z" fill="#B25E47"/>
<path d="M277.26 161.198C282.32 155.648 287.81 150.908 295.11 152.938" stroke="#914839" stroke-width="0.75" stroke-linecap="round" stroke-linejoin="round"/>
<path d="M227.26 63.2784C222.26 79.4384 206.409 82.1184 201.039 76.1584C198.769 73.6384 198.29 68.3584 198.86 62.3284C199.128 59.6401 199.549 56.9692 200.12 54.3284C201.231 48.9198 202.938 43.651 205.209 38.6184C205.209 38.6184 215.519 32.8184 226.549 44.1484C229.349 47.0284 229.76 55.1084 227.26 63.2784Z" fill="#B25E47"/>
<path d="M231.129 51.5184C230.901 52.2819 230.585 53.0167 230.189 53.7084C230.189 53.7084 225.62 58.1884 223.11 56.8884C222.784 56.7764 222.491 56.5884 222.253 56.3401C222.015 56.0918 221.84 55.7903 221.742 55.4607C221.645 55.1311 221.627 54.7829 221.691 54.4451C221.755 54.1073 221.898 53.7895 222.11 53.5184C221 52.4084 221.67 51.1584 223.11 50.9684C220.75 50.1984 220.37 47.9684 223.11 46.8184C220.41 47.0084 219.26 45.1884 221.11 43.3584C217.88 44.4184 216.199 42.8284 216.819 40.5384C216.069 42.8184 212.99 41.8984 213.11 40.5384C211.9 41.7484 210.109 42.0384 208.629 39.5884C208.629 39.5884 204.969 41.5084 203.909 38.4184C202.849 35.3284 207.659 34.9584 208.439 35.7284C208.45 35.5121 208.484 35.2976 208.539 35.0884C209.249 32.0884 213.659 32.5584 214.409 34.0884C215.129 32.0884 219.08 32.0884 219.47 34.9084C221.35 33.6984 222.98 34.4284 223.37 36.7384C225.69 35.9584 227.169 37.0384 226.879 38.8584C228.879 38.4284 230.939 40.6684 228.879 42.3284C228.879 42.3284 231.409 43.1484 231.649 46.9884C231.757 48.5175 231.58 50.0533 231.129 51.5184V51.5184Z" fill="#683F1D"/>
<path d="M231.13 51.5184C228.74 49.9884 225.95 47.5984 226.38 44.9284C227.11 40.3684 220.38 36.7584 217.75 37.5884C216.06 38.1184 211.63 37.5284 208.57 35.1084C209.28 32.1084 213.69 32.5784 214.44 34.1084C215.16 32.1084 219.11 32.1084 219.5 34.9284C221.38 33.7184 223.01 34.4484 223.4 36.7584C225.72 35.9784 227.2 37.0584 226.91 38.8784C228.91 38.4484 230.97 40.6884 228.91 42.3484C228.91 42.3484 231.44 43.1684 231.68 47.0084C231.775 48.5327 231.588 50.0616 231.13 51.5184V51.5184Z" fill="#683F1D"/>
<path d="M211.26 53.2384C211.26 53.4896 211.334 53.7351 211.474 53.944C211.613 54.1528 211.811 54.3156 212.044 54.4117C212.276 54.5078 212.531 54.533 212.777 54.484C213.024 54.435 213.25 54.314 213.428 54.1364C213.605 53.9588 213.726 53.7325 213.775 53.4862C213.824 53.2398 213.799 52.9844 213.703 52.7524C213.607 52.5203 213.444 52.322 213.235 52.1824C213.026 52.0429 212.781 51.9684 212.53 51.9684C212.193 51.9684 211.87 52.1022 211.632 52.3404C211.393 52.5785 211.26 52.9016 211.26 53.2384V53.2384Z" fill="#683F1D"/>
<path d="M202.929 51.7084C202.929 51.9576 203.003 52.2012 203.142 52.4084C203.28 52.6156 203.477 52.7771 203.707 52.8725C203.938 52.9678 204.191 52.9928 204.435 52.9442C204.68 52.8956 204.904 52.7755 205.08 52.5993C205.257 52.4231 205.377 52.1986 205.425 51.9542C205.474 51.7098 205.449 51.4564 205.354 51.2262C205.258 50.996 205.097 50.7992 204.89 50.6607C204.682 50.5223 204.439 50.4484 204.189 50.4484C204.024 50.447 203.859 50.4787 203.706 50.5416C203.552 50.6044 203.413 50.6972 203.296 50.8145C203.178 50.9317 203.086 51.0712 203.023 51.2246C202.96 51.3781 202.928 51.5425 202.929 51.7084V51.7084Z" fill="#683F1D"/>
<path d="M222.26 56.3184C224.14 53.1584 230.09 51.9584 232.01 56.3184C233.93 60.6784 228.22 65.8484 223.7 62.8484L222.26 56.3184Z" fill="#B25E47"/>
<path d="M201.5 44.9284C201.28 45.9284 207.95 46.8584 208.21 45.3284C208.64 42.7784 201.89 42.9984 201.5 44.9284Z" fill="#683F1D"/>
<path d="M218.589 48.9584C218.369 49.9584 211.899 48.1784 212.269 46.6684C212.879 44.1484 218.989 47.0284 218.589 48.9584Z" fill="#683F1D"/>
<path d="M230.43 57.1284C228.6 54.8484 225.07 56.3584 224.77 58.9584" stroke="#914839" stroke-width="0.75" stroke-linecap="round" stroke-linejoin="round"/>
<path d="M225.01 58.0884C225.95 56.8284 229.01 57.2984 228.76 59.4584C228.51 61.6184 225.45 61.1484 225.45 61.1484" stroke="#914839" stroke-width="0.75" stroke-linecap="round" stroke-linejoin="round"/>
<path d="M203.79 59.2984C203.21 56.0984 203.36 54.9084 205.67 54.2484C206.82 53.8802 207.828 53.1658 208.556 52.2028C209.285 51.2398 209.698 50.0752 209.74 48.8684" stroke="#914839" stroke-width="0.75" stroke-linecap="round" stroke-linejoin="round"/>
<path d="M207.62 63.0884C210.46 62.2884 211.499 60.8684 211.549 59.5384" stroke="#914839" stroke-width="0.75" stroke-linecap="round" stroke-linejoin="round"/>
<path d="M217.249 62.9384C219.641 62.9384 221.579 60.9998 221.579 58.6084C221.579 56.217 219.641 54.2784 217.249 54.2784C214.858 54.2784 212.919 56.217 212.919 58.6084C212.919 60.9998 214.858 62.9384 217.249 62.9384Z" fill="#914839"/>
<path d="M202.33 58.0884C202.329 59.0916 201.98 60.0634 201.341 60.837C200.702 61.6107 199.814 62.1379 198.83 62.3284C199.098 59.6401 199.519 56.9692 200.09 54.3284C200.763 54.7004 201.325 55.2447 201.718 55.9053C202.112 56.566 202.323 57.3194 202.33 58.0884Z" fill="#914839"/>
<path d="M229.57 62.8784C228.705 63.4508 227.691 63.756 226.655 63.756C225.618 63.756 224.604 63.4508 223.74 62.8784" stroke="#914839" stroke-width="0.75" stroke-linecap="round" stroke-linejoin="round"/>
<path d="M224.489 61.5084C222.867 61.6961 221.358 62.4359 220.216 63.6038C219.075 64.7717 218.369 66.2967 218.218 67.9231C218.067 69.5494 218.48 71.1783 219.387 72.5364C220.295 73.8946 221.641 74.8995 223.201 75.3826C224.762 75.8658 226.441 75.7978 227.957 75.19C229.473 74.5823 230.734 73.4718 231.528 72.0447C232.323 70.6176 232.603 68.9607 232.321 67.3519C232.039 65.7431 231.212 64.2801 229.979 63.2084" stroke="#E68832" stroke-linecap="round" stroke-linejoin="round"/>
<path d="M124.809 141.488C149.479 165.848 161.509 171.818 167.579 174.748C173.649 177.678 186.919 191.668 175.709 198.988C162.519 207.608 149.579 194.988 141.589 187.188C133.599 179.388 118.259 159.888 118.259 159.888L124.809 141.488Z" fill="#B25E47"/>
<path d="M164.049 172.978C165.409 173.698 166.58 174.268 167.58 174.748C170.09 176.108 172.349 177.887 174.26 180.008" stroke="#914839" stroke-width="0.75" stroke-linecap="round" stroke-linejoin="round"/>
<path d="M134.709 140.008C134.526 139.589 134.431 139.136 134.429 138.678C134.429 136.828 135.679 134.798 135.679 131.248C135.679 126.838 130.289 122.088 130.289 122.088H122.389C122.389 122.088 116.999 126.838 116.999 131.248C116.999 134.798 118.259 136.828 118.239 138.678C118.242 139.136 118.15 139.588 117.969 140.008C117.349 141.438 116.209 141.648 116.209 146.808C116.209 148.058 116.209 150.048 116.209 152.388C116.309 159.618 116.499 170.038 116.499 171.278C116.499 172.818 121.749 173.048 125.909 173.078H126.669C130.819 173.078 136.069 172.818 136.069 171.278C136.069 170.038 136.269 159.618 136.369 152.388C136.369 150.058 136.419 148.058 136.419 146.808C136.469 141.648 135.339 141.438 134.709 140.008Z" fill="#F9F9F9" stroke="#DDDDDD" stroke-linecap="round" stroke-linejoin="round"/>
<path d="M131.159 117.508H121.529V121.908H131.159V117.508Z" fill="#DDDDDD" stroke="#DDDDDD" stroke-miterlimit="10"/>
<path d="M136.469 146.808C136.469 148.058 136.469 150.058 136.419 152.388H116.259C116.259 150.048 116.259 148.058 116.259 146.808C116.259 141.648 117.399 141.438 118.019 140.008C118.186 139.595 118.267 139.153 118.259 138.708H134.449C134.451 139.166 134.546 139.619 134.729 140.038C135.339 141.438 136.469 141.648 136.469 146.808Z" fill="#DDDDDD" stroke="#DDDDDD" stroke-linecap="round" stroke-linejoin="round"/>
<path d="M113.47 157.708C115.76 155.708 120.14 161.398 117.92 163.708C115.7 166.018 110.49 160.428 113.47 157.708Z" fill="#B25E47" stroke="#914839" stroke-width="0.75" stroke-miterlimit="10"/>
<path d="M112.889 153.908C114.319 151.198 120.429 155.028 119.159 157.998C117.889 160.968 111.029 157.448 112.889 153.908Z" fill="#B25E47" stroke="#914839" stroke-width="0.75" stroke-miterlimit="10"/>
<path d="M111.819 148.008C113.349 144.948 119.909 149.288 118.549 152.648C117.189 156.008 109.809 152.028 111.819 148.008Z" fill="#B25E47" stroke="#914839" stroke-width="0.75" stroke-miterlimit="10"/>
<path d="M110.819 143.578C110.819 146.268 118.999 148.478 119.329 143.578C119.589 139.648 110.819 138.878 110.819 143.578Z" fill="#B25E47" stroke="#914839" stroke-width="0.75" stroke-miterlimit="10"/>
<path d="M222.669 220.428H178.609V439.538H222.669V220.428Z" fill="#DDDDDD"/>
<path d="M178.609 220.428H116.199V439.538H178.609V220.428Z" fill="#F9F9F9" stroke="#DDDDDD" stroke-linecap="round" stroke-linejoin="round"/>
<path d="M186.669 122.648L183.159 124.928C182.627 125.271 182.005 125.446 181.372 125.432C180.74 125.418 180.126 125.215 179.609 124.848L168.909 131.348V181.958C169.89 182.245 170.752 182.841 171.367 183.657C171.981 184.474 172.315 185.467 172.319 186.488V191.238C172.314 192.496 171.812 193.7 170.922 194.588C170.032 195.476 168.827 195.976 167.569 195.978C166.311 195.978 165.105 195.479 164.214 194.591C163.324 193.702 162.822 192.496 162.819 191.238V186.488C162.822 185.466 163.156 184.472 163.77 183.656C164.385 182.839 165.248 182.244 166.229 181.958V130.598C166.229 130.369 166.288 130.144 166.4 129.944C166.512 129.745 166.674 129.577 166.869 129.458L178.259 122.508C178.217 121.947 178.326 121.384 178.576 120.879C178.826 120.374 179.207 119.945 179.679 119.638L183.179 117.358C183.526 117.113 183.919 116.94 184.335 116.85C184.75 116.761 185.179 116.755 185.596 116.835C186.014 116.915 186.411 117.078 186.764 117.315C187.117 117.551 187.418 117.857 187.65 118.213C187.882 118.569 188.04 118.968 188.115 119.386C188.189 119.804 188.178 120.233 188.083 120.648C187.988 121.062 187.81 121.452 187.56 121.796C187.31 122.14 186.994 122.43 186.629 122.648H186.669Z" fill="#F9F9F9" stroke="#DDDDDD" stroke-linecap="round" stroke-linejoin="round"/>
<path d="M186.669 122.648L183.159 124.928C182.627 125.271 182.005 125.446 181.372 125.432C180.74 125.418 180.126 125.215 179.609 124.848L178.259 122.508C178.217 121.947 178.326 121.384 178.576 120.879C178.826 120.374 179.207 119.945 179.679 119.638L183.179 117.358C183.526 117.113 183.919 116.94 184.335 116.85C184.75 116.761 185.179 116.755 185.596 116.835C186.014 116.915 186.411 117.078 186.764 117.315C187.117 117.551 187.418 117.857 187.65 118.213C187.882 118.569 188.04 118.968 188.115 119.386C188.189 119.804 188.178 120.233 188.083 120.648C187.988 121.062 187.81 121.452 187.56 121.796C187.31 122.14 186.994 122.43 186.629 122.648H186.669Z" fill="#DDDDDD" stroke="#DDDDDD" stroke-linecap="round" stroke-linejoin="round"/>
<path d="M237.899 189.108H178.609V220.428H237.899V189.108Z" fill="#DDDDDD"/>
<path d="M178.609 189.108H100.479V220.428H178.609V189.108Z" fill="#F9F9F9" stroke="#DDDDDD" stroke-linecap="round" stroke-linejoin="round"/>
</svg>
