<svg width="113" height="104" viewBox="0 0 113 104" fill="none" xmlns="http://www.w3.org/2000/svg">
<mask id="mask0_379_115" style="mask-type:alpha" maskUnits="userSpaceOnUse" x="0" y="0" width="103" height="104">
<rect y="0.939453" width="102.399" height="102.4" fill="#D9D9D9"/>
</mask>
<g mask="url(#mask0_379_115)">
<path d="M54.1536 49.3008C55.7235 47.6269 56.8271 45.6878 57.4644 43.4833C58.1016 41.2789 58.4202 39.0225 58.4202 36.7142C58.4202 34.4058 58.1016 32.1493 57.4644 29.9449C56.8271 27.7404 55.7235 25.8013 54.1536 24.1274C57.3809 24.4228 60.0476 25.7739 62.1535 28.1807C64.2595 30.5876 65.3125 33.4321 65.3125 36.7142C65.3125 39.9961 64.2595 42.8406 62.1535 45.2475C60.0476 47.6543 57.3809 49.0054 54.1536 49.3008ZM75.4867 80.3654V73.1448C75.4867 71.0528 75.1093 69.0624 74.3544 67.1738C73.5996 65.2851 72.4071 63.7254 70.777 62.4946C73.6926 63.3917 76.3551 64.6758 78.7646 66.3469C81.1742 68.018 82.379 70.284 82.379 73.1448V80.3654H75.4867ZM82.379 54.2731V45.7397H73.8457V41.4731H82.379V32.9398H86.6456V41.4731H95.1789V45.7397H86.6456V54.2731H82.379ZM37.0871 49.5141C33.5671 49.5141 30.5538 48.2608 28.0472 45.7542C25.5405 43.2475 24.2872 40.2342 24.2872 36.7142C24.2872 33.1941 25.5405 30.1807 28.0472 27.6741C30.5538 25.1674 33.5671 23.9141 37.0871 23.9141C40.607 23.9141 43.6203 25.1674 46.127 27.6741C48.6336 30.1807 49.8869 33.1941 49.8869 36.7142C49.8869 40.2342 48.6336 43.2475 46.127 45.7542C43.6203 48.2608 40.607 49.5141 37.0871 49.5141ZM7.2207 80.3654V73.3417C7.2207 71.5804 7.73352 69.9325 8.75914 68.3982C9.78477 66.8638 11.1646 65.6727 12.8986 64.8249C16.9245 62.8939 20.9532 61.4457 24.9846 60.4802C29.016 59.5147 33.0502 59.032 37.0871 59.032C41.1239 59.032 45.1581 59.5147 49.1896 60.4802C53.221 61.4457 57.2496 62.8939 61.2756 64.8249C63.0096 65.6727 64.3894 66.8638 65.415 68.3982C66.4406 69.9325 66.9534 71.5804 66.9534 73.3417V80.3654H7.2207ZM37.0871 45.2475C39.4337 45.2475 41.4426 44.4119 43.1137 42.7408C44.7848 41.0697 45.6203 39.0608 45.6203 36.7142C45.6203 34.3675 44.7848 32.3586 43.1137 30.6875C41.4426 29.0164 39.4337 28.1808 37.0871 28.1808C34.7404 28.1808 32.7316 29.0164 31.0605 30.6875C29.3894 32.3586 28.5538 34.3675 28.5538 36.7142C28.5538 39.0608 29.3894 41.0697 31.0605 42.7408C32.7316 44.4119 34.7404 45.2475 37.0871 45.2475ZM11.4873 76.0987H62.6868V73.3417C62.6868 72.3955 62.3819 71.5066 61.7719 70.6751C61.162 69.8437 60.3183 69.1408 59.2408 68.5664C55.729 66.8652 52.1082 65.562 48.3784 64.6566C44.6485 63.7513 40.8847 63.2987 37.0871 63.2987C33.2894 63.2987 29.5257 63.7513 25.7959 64.6566C22.066 65.562 18.4452 66.8652 14.9335 68.5664C13.8559 69.1408 13.0121 69.8437 12.4022 70.6751C11.7923 71.5066 11.4873 72.3955 11.4873 73.3417V76.0987Z" fill="#1C1B1F"/>
</g>
<rect width="73.4976" height="90.9908" rx="36.7488" transform="matrix(0.9728 0.231648 0.265962 -0.963983 25.7324 88.3438)" fill="#8ADD8F" fill-opacity="0.3"/>
</svg>
