<svg width="16" height="17" viewBox="0 0 16 17" fill="none" xmlns="http://www.w3.org/2000/svg">
<path d="M5.20065 2.29688H10.8007C12.934 2.29688 14.6673 4.03021 14.6673 6.16354V11.7635C14.6673 12.789 14.2599 13.7725 13.5348 14.4977C12.8097 15.2228 11.8262 15.6302 10.8007 15.6302H5.20065C3.06732 15.6302 1.33398 13.8969 1.33398 11.7635V6.16354C1.33398 5.13804 1.74136 4.15454 2.4665 3.4294C3.19165 2.70425 4.17515 2.29688 5.20065 2.29688ZM5.06732 3.63021C4.4308 3.63021 3.82035 3.88306 3.37026 4.33315C2.92017 4.78324 2.66732 5.39369 2.66732 6.03021V11.8969C2.66732 13.2235 3.74065 14.2969 5.06732 14.2969H10.934C11.5705 14.2969 12.181 14.044 12.631 13.5939C13.0811 13.1438 13.334 12.5334 13.334 11.8969V6.03021C13.334 4.70354 12.2606 3.63021 10.934 3.63021H5.06732ZM11.5007 4.63021C11.7217 4.63021 11.9336 4.71801 12.0899 4.87429C12.2462 5.03057 12.334 5.24253 12.334 5.46354C12.334 5.68456 12.2462 5.89652 12.0899 6.0528C11.9336 6.20908 11.7217 6.29687 11.5007 6.29687C11.2796 6.29687 11.0677 6.20908 10.9114 6.0528C10.7551 5.89652 10.6673 5.68456 10.6673 5.46354C10.6673 5.24253 10.7551 5.03057 10.9114 4.87429C11.0677 4.71801 11.2796 4.63021 11.5007 4.63021ZM8.00065 5.63021C8.88471 5.63021 9.73255 5.9814 10.3577 6.60652C10.9828 7.23164 11.334 8.07949 11.334 8.96354C11.334 9.8476 10.9828 10.6954 10.3577 11.3206C9.73255 11.9457 8.88471 12.2969 8.00065 12.2969C7.1166 12.2969 6.26875 11.9457 5.64363 11.3206C5.01851 10.6954 4.66732 9.8476 4.66732 8.96354C4.66732 8.07949 5.01851 7.23164 5.64363 6.60652C6.26875 5.9814 7.1166 5.63021 8.00065 5.63021ZM8.00065 6.96354C7.47022 6.96354 6.96151 7.17425 6.58644 7.54933C6.21136 7.9244 6.00065 8.43311 6.00065 8.96354C6.00065 9.49397 6.21136 10.0027 6.58644 10.3778C6.96151 10.7528 7.47022 10.9635 8.00065 10.9635C8.53108 10.9635 9.03979 10.7528 9.41486 10.3778C9.78994 10.0027 10.0007 9.49397 10.0007 8.96354C10.0007 8.43311 9.78994 7.9244 9.41486 7.54933C9.03979 7.17425 8.53108 6.96354 8.00065 6.96354Z" fill="white"/>
</svg>
